<?xml version="1.0" encoding="utf-8" standalone="no"?>
<!DOCTYPE svg PUBLIC "-//W3C//DTD SVG 1.1//EN"
  "http://www.w3.org/Graphics/SVG/1.1/DTD/svg11.dtd">
<!-- Created with matplotlib (https://matplotlib.org/) -->
<svg height="504pt" version="1.1" viewBox="0 0 720 504" width="720pt" xmlns="http://www.w3.org/2000/svg" xmlns:xlink="http://www.w3.org/1999/xlink">
 <defs>
  <style type="text/css">
*{stroke-linecap:butt;stroke-linejoin:round;white-space:pre;}
  </style>
 </defs>
 <g id="figure_1">
  <g id="patch_1">
   <path d="M 0 504 
L 720 504 
L 720 0 
L 0 0 
z
" style="fill:#ffffff;"/>
  </g>
  <g id="axes_1">
   <g id="patch_2">
    <path d="M 47.675 215.6 
L 350.6 215.6 
L 350.6 10.8 
L 47.675 10.8 
z
" style="fill:#ffffff;"/>
   </g>
   <g id="matplotlib.axis_1">
    <g id="xtick_1">
     <g id="line2d_1">
      <defs>
       <path d="M 0 0 
L 0 3.5 
" id="m0bdd6a3e3d" style="stroke:#000000;stroke-width:0.8;"/>
      </defs>
      <g>
       <use style="stroke:#000000;stroke-width:0.8;" x="53.959751" xlink:href="#m0bdd6a3e3d" y="215.6"/>
      </g>
     </g>
     <g id="text_1">
      <!-- 0 -->
      <defs>
       <path d="M 31.78125 66.40625 
Q 24.171875 66.40625 20.328125 58.90625 
Q 16.5 51.421875 16.5 36.375 
Q 16.5 21.390625 20.328125 13.890625 
Q 24.171875 6.390625 31.78125 6.390625 
Q 39.453125 6.390625 43.28125 13.890625 
Q 47.125 21.390625 47.125 36.375 
Q 47.125 51.421875 43.28125 58.90625 
Q 39.453125 66.40625 31.78125 66.40625 
z
M 31.78125 74.21875 
Q 44.046875 74.21875 50.515625 64.515625 
Q 56.984375 54.828125 56.984375 36.375 
Q 56.984375 17.96875 50.515625 8.265625 
Q 44.046875 -1.421875 31.78125 -1.421875 
Q 19.53125 -1.421875 13.0625 8.265625 
Q 6.59375 17.96875 6.59375 36.375 
Q 6.59375 54.828125 13.0625 64.515625 
Q 19.53125 74.21875 31.78125 74.21875 
z
" id="DejaVuSans-48"/>
      </defs>
      <g transform="translate(50.778501 230.198438)scale(0.1 -0.1)">
       <use xlink:href="#DejaVuSans-48"/>
      </g>
     </g>
    </g>
    <g id="xtick_2">
     <g id="line2d_2">
      <g>
       <use style="stroke:#000000;stroke-width:0.8;" x="116.807261" xlink:href="#m0bdd6a3e3d" y="215.6"/>
      </g>
     </g>
     <g id="text_2">
      <!-- 100 -->
      <defs>
       <path d="M 12.40625 8.296875 
L 28.515625 8.296875 
L 28.515625 63.921875 
L 10.984375 60.40625 
L 10.984375 69.390625 
L 28.421875 72.90625 
L 38.28125 72.90625 
L 38.28125 8.296875 
L 54.390625 8.296875 
L 54.390625 0 
L 12.40625 0 
z
" id="DejaVuSans-49"/>
      </defs>
      <g transform="translate(107.263511 230.198438)scale(0.1 -0.1)">
       <use xlink:href="#DejaVuSans-49"/>
       <use x="63.623047" xlink:href="#DejaVuSans-48"/>
       <use x="127.246094" xlink:href="#DejaVuSans-48"/>
      </g>
     </g>
    </g>
    <g id="xtick_3">
     <g id="line2d_3">
      <g>
       <use style="stroke:#000000;stroke-width:0.8;" x="179.654772" xlink:href="#m0bdd6a3e3d" y="215.6"/>
      </g>
     </g>
     <g id="text_3">
      <!-- 200 -->
      <defs>
       <path d="M 19.1875 8.296875 
L 53.609375 8.296875 
L 53.609375 0 
L 7.328125 0 
L 7.328125 8.296875 
Q 12.9375 14.109375 22.625 23.890625 
Q 32.328125 33.6875 34.8125 36.53125 
Q 39.546875 41.84375 41.421875 45.53125 
Q 43.3125 49.21875 43.3125 52.78125 
Q 43.3125 58.59375 39.234375 62.25 
Q 35.15625 65.921875 28.609375 65.921875 
Q 23.96875 65.921875 18.8125 64.3125 
Q 13.671875 62.703125 7.8125 59.421875 
L 7.8125 69.390625 
Q 13.765625 71.78125 18.9375 73 
Q 24.125 74.21875 28.421875 74.21875 
Q 39.75 74.21875 46.484375 68.546875 
Q 53.21875 62.890625 53.21875 53.421875 
Q 53.21875 48.921875 51.53125 44.890625 
Q 49.859375 40.875 45.40625 35.40625 
Q 44.1875 33.984375 37.640625 27.21875 
Q 31.109375 20.453125 19.1875 8.296875 
z
" id="DejaVuSans-50"/>
      </defs>
      <g transform="translate(170.111022 230.198438)scale(0.1 -0.1)">
       <use xlink:href="#DejaVuSans-50"/>
       <use x="63.623047" xlink:href="#DejaVuSans-48"/>
       <use x="127.246094" xlink:href="#DejaVuSans-48"/>
      </g>
     </g>
    </g>
    <g id="xtick_4">
     <g id="line2d_4">
      <g>
       <use style="stroke:#000000;stroke-width:0.8;" x="242.502282" xlink:href="#m0bdd6a3e3d" y="215.6"/>
      </g>
     </g>
     <g id="text_4">
      <!-- 300 -->
      <defs>
       <path d="M 40.578125 39.3125 
Q 47.65625 37.796875 51.625 33 
Q 55.609375 28.21875 55.609375 21.1875 
Q 55.609375 10.40625 48.1875 4.484375 
Q 40.765625 -1.421875 27.09375 -1.421875 
Q 22.515625 -1.421875 17.65625 -0.515625 
Q 12.796875 0.390625 7.625 2.203125 
L 7.625 11.71875 
Q 11.71875 9.328125 16.59375 8.109375 
Q 21.484375 6.890625 26.8125 6.890625 
Q 36.078125 6.890625 40.9375 10.546875 
Q 45.796875 14.203125 45.796875 21.1875 
Q 45.796875 27.640625 41.28125 31.265625 
Q 36.765625 34.90625 28.71875 34.90625 
L 20.21875 34.90625 
L 20.21875 43.015625 
L 29.109375 43.015625 
Q 36.375 43.015625 40.234375 45.921875 
Q 44.09375 48.828125 44.09375 54.296875 
Q 44.09375 59.90625 40.109375 62.90625 
Q 36.140625 65.921875 28.71875 65.921875 
Q 24.65625 65.921875 20.015625 65.03125 
Q 15.375 64.15625 9.8125 62.3125 
L 9.8125 71.09375 
Q 15.4375 72.65625 20.34375 73.4375 
Q 25.25 74.21875 29.59375 74.21875 
Q 40.828125 74.21875 47.359375 69.109375 
Q 53.90625 64.015625 53.90625 55.328125 
Q 53.90625 49.265625 50.4375 45.09375 
Q 46.96875 40.921875 40.578125 39.3125 
z
" id="DejaVuSans-51"/>
      </defs>
      <g transform="translate(232.958532 230.198438)scale(0.1 -0.1)">
       <use xlink:href="#DejaVuSans-51"/>
       <use x="63.623047" xlink:href="#DejaVuSans-48"/>
       <use x="127.246094" xlink:href="#DejaVuSans-48"/>
      </g>
     </g>
    </g>
    <g id="xtick_5">
     <g id="line2d_5">
      <g>
       <use style="stroke:#000000;stroke-width:0.8;" x="305.349793" xlink:href="#m0bdd6a3e3d" y="215.6"/>
      </g>
     </g>
     <g id="text_5">
      <!-- 400 -->
      <defs>
       <path d="M 37.796875 64.3125 
L 12.890625 25.390625 
L 37.796875 25.390625 
z
M 35.203125 72.90625 
L 47.609375 72.90625 
L 47.609375 25.390625 
L 58.015625 25.390625 
L 58.015625 17.1875 
L 47.609375 17.1875 
L 47.609375 0 
L 37.796875 0 
L 37.796875 17.1875 
L 4.890625 17.1875 
L 4.890625 26.703125 
z
" id="DejaVuSans-52"/>
      </defs>
      <g transform="translate(295.806043 230.198438)scale(0.1 -0.1)">
       <use xlink:href="#DejaVuSans-52"/>
       <use x="63.623047" xlink:href="#DejaVuSans-48"/>
       <use x="127.246094" xlink:href="#DejaVuSans-48"/>
      </g>
     </g>
    </g>
    <g id="text_6">
     <!-- (a) Path length (km) -->
     <defs>
      <path d="M 31 75.875 
Q 24.46875 64.65625 21.28125 53.65625 
Q 18.109375 42.671875 18.109375 31.390625 
Q 18.109375 20.125 21.3125 9.0625 
Q 24.515625 -2 31 -13.1875 
L 23.1875 -13.1875 
Q 15.875 -1.703125 12.234375 9.375 
Q 8.59375 20.453125 8.59375 31.390625 
Q 8.59375 42.28125 12.203125 53.3125 
Q 15.828125 64.359375 23.1875 75.875 
z
" id="DejaVuSans-40"/>
      <path d="M 34.28125 27.484375 
Q 23.390625 27.484375 19.1875 25 
Q 14.984375 22.515625 14.984375 16.5 
Q 14.984375 11.71875 18.140625 8.90625 
Q 21.296875 6.109375 26.703125 6.109375 
Q 34.1875 6.109375 38.703125 11.40625 
Q 43.21875 16.703125 43.21875 25.484375 
L 43.21875 27.484375 
z
M 52.203125 31.203125 
L 52.203125 0 
L 43.21875 0 
L 43.21875 8.296875 
Q 40.140625 3.328125 35.546875 0.953125 
Q 30.953125 -1.421875 24.3125 -1.421875 
Q 15.921875 -1.421875 10.953125 3.296875 
Q 6 8.015625 6 15.921875 
Q 6 25.140625 12.171875 29.828125 
Q 18.359375 34.515625 30.609375 34.515625 
L 43.21875 34.515625 
L 43.21875 35.40625 
Q 43.21875 41.609375 39.140625 45 
Q 35.0625 48.390625 27.6875 48.390625 
Q 23 48.390625 18.546875 47.265625 
Q 14.109375 46.140625 10.015625 43.890625 
L 10.015625 52.203125 
Q 14.9375 54.109375 19.578125 55.046875 
Q 24.21875 56 28.609375 56 
Q 40.484375 56 46.34375 49.84375 
Q 52.203125 43.703125 52.203125 31.203125 
z
" id="DejaVuSans-97"/>
      <path d="M 8.015625 75.875 
L 15.828125 75.875 
Q 23.140625 64.359375 26.78125 53.3125 
Q 30.421875 42.28125 30.421875 31.390625 
Q 30.421875 20.453125 26.78125 9.375 
Q 23.140625 -1.703125 15.828125 -13.1875 
L 8.015625 -13.1875 
Q 14.5 -2 17.703125 9.0625 
Q 20.90625 20.125 20.90625 31.390625 
Q 20.90625 42.671875 17.703125 53.65625 
Q 14.5 64.65625 8.015625 75.875 
z
" id="DejaVuSans-41"/>
      <path id="DejaVuSans-32"/>
      <path d="M 19.671875 64.796875 
L 19.671875 37.40625 
L 32.078125 37.40625 
Q 38.96875 37.40625 42.71875 40.96875 
Q 46.484375 44.53125 46.484375 51.125 
Q 46.484375 57.671875 42.71875 61.234375 
Q 38.96875 64.796875 32.078125 64.796875 
z
M 9.8125 72.90625 
L 32.078125 72.90625 
Q 44.34375 72.90625 50.609375 67.359375 
Q 56.890625 61.8125 56.890625 51.125 
Q 56.890625 40.328125 50.609375 34.8125 
Q 44.34375 29.296875 32.078125 29.296875 
L 19.671875 29.296875 
L 19.671875 0 
L 9.8125 0 
z
" id="DejaVuSans-80"/>
      <path d="M 18.3125 70.21875 
L 18.3125 54.6875 
L 36.8125 54.6875 
L 36.8125 47.703125 
L 18.3125 47.703125 
L 18.3125 18.015625 
Q 18.3125 11.328125 20.140625 9.421875 
Q 21.96875 7.515625 27.59375 7.515625 
L 36.8125 7.515625 
L 36.8125 0 
L 27.59375 0 
Q 17.1875 0 13.234375 3.875 
Q 9.28125 7.765625 9.28125 18.015625 
L 9.28125 47.703125 
L 2.6875 47.703125 
L 2.6875 54.6875 
L 9.28125 54.6875 
L 9.28125 70.21875 
z
" id="DejaVuSans-116"/>
      <path d="M 54.890625 33.015625 
L 54.890625 0 
L 45.90625 0 
L 45.90625 32.71875 
Q 45.90625 40.484375 42.875 44.328125 
Q 39.84375 48.1875 33.796875 48.1875 
Q 26.515625 48.1875 22.3125 43.546875 
Q 18.109375 38.921875 18.109375 30.90625 
L 18.109375 0 
L 9.078125 0 
L 9.078125 75.984375 
L 18.109375 75.984375 
L 18.109375 46.1875 
Q 21.34375 51.125 25.703125 53.5625 
Q 30.078125 56 35.796875 56 
Q 45.21875 56 50.046875 50.171875 
Q 54.890625 44.34375 54.890625 33.015625 
z
" id="DejaVuSans-104"/>
      <path d="M 9.421875 75.984375 
L 18.40625 75.984375 
L 18.40625 0 
L 9.421875 0 
z
" id="DejaVuSans-108"/>
      <path d="M 56.203125 29.59375 
L 56.203125 25.203125 
L 14.890625 25.203125 
Q 15.484375 15.921875 20.484375 11.0625 
Q 25.484375 6.203125 34.421875 6.203125 
Q 39.59375 6.203125 44.453125 7.46875 
Q 49.3125 8.734375 54.109375 11.28125 
L 54.109375 2.78125 
Q 49.265625 0.734375 44.1875 -0.34375 
Q 39.109375 -1.421875 33.890625 -1.421875 
Q 20.796875 -1.421875 13.15625 6.1875 
Q 5.515625 13.8125 5.515625 26.8125 
Q 5.515625 40.234375 12.765625 48.109375 
Q 20.015625 56 32.328125 56 
Q 43.359375 56 49.78125 48.890625 
Q 56.203125 41.796875 56.203125 29.59375 
z
M 47.21875 32.234375 
Q 47.125 39.59375 43.09375 43.984375 
Q 39.0625 48.390625 32.421875 48.390625 
Q 24.90625 48.390625 20.390625 44.140625 
Q 15.875 39.890625 15.1875 32.171875 
z
" id="DejaVuSans-101"/>
      <path d="M 54.890625 33.015625 
L 54.890625 0 
L 45.90625 0 
L 45.90625 32.71875 
Q 45.90625 40.484375 42.875 44.328125 
Q 39.84375 48.1875 33.796875 48.1875 
Q 26.515625 48.1875 22.3125 43.546875 
Q 18.109375 38.921875 18.109375 30.90625 
L 18.109375 0 
L 9.078125 0 
L 9.078125 54.6875 
L 18.109375 54.6875 
L 18.109375 46.1875 
Q 21.34375 51.125 25.703125 53.5625 
Q 30.078125 56 35.796875 56 
Q 45.21875 56 50.046875 50.171875 
Q 54.890625 44.34375 54.890625 33.015625 
z
" id="DejaVuSans-110"/>
      <path d="M 45.40625 27.984375 
Q 45.40625 37.75 41.375 43.109375 
Q 37.359375 48.484375 30.078125 48.484375 
Q 22.859375 48.484375 18.828125 43.109375 
Q 14.796875 37.75 14.796875 27.984375 
Q 14.796875 18.265625 18.828125 12.890625 
Q 22.859375 7.515625 30.078125 7.515625 
Q 37.359375 7.515625 41.375 12.890625 
Q 45.40625 18.265625 45.40625 27.984375 
z
M 54.390625 6.78125 
Q 54.390625 -7.171875 48.1875 -13.984375 
Q 42 -20.796875 29.203125 -20.796875 
Q 24.46875 -20.796875 20.265625 -20.09375 
Q 16.0625 -19.390625 12.109375 -17.921875 
L 12.109375 -9.1875 
Q 16.0625 -11.328125 19.921875 -12.34375 
Q 23.78125 -13.375 27.78125 -13.375 
Q 36.625 -13.375 41.015625 -8.765625 
Q 45.40625 -4.15625 45.40625 5.171875 
L 45.40625 9.625 
Q 42.625 4.78125 38.28125 2.390625 
Q 33.9375 0 27.875 0 
Q 17.828125 0 11.671875 7.65625 
Q 5.515625 15.328125 5.515625 27.984375 
Q 5.515625 40.671875 11.671875 48.328125 
Q 17.828125 56 27.875 56 
Q 33.9375 56 38.28125 53.609375 
Q 42.625 51.21875 45.40625 46.390625 
L 45.40625 54.6875 
L 54.390625 54.6875 
z
" id="DejaVuSans-103"/>
      <path d="M 9.078125 75.984375 
L 18.109375 75.984375 
L 18.109375 31.109375 
L 44.921875 54.6875 
L 56.390625 54.6875 
L 27.390625 29.109375 
L 57.625 0 
L 45.90625 0 
L 18.109375 26.703125 
L 18.109375 0 
L 9.078125 0 
z
" id="DejaVuSans-107"/>
      <path d="M 52 44.1875 
Q 55.375 50.25 60.0625 53.125 
Q 64.75 56 71.09375 56 
Q 79.640625 56 84.28125 50.015625 
Q 88.921875 44.046875 88.921875 33.015625 
L 88.921875 0 
L 79.890625 0 
L 79.890625 32.71875 
Q 79.890625 40.578125 77.09375 44.375 
Q 74.3125 48.1875 68.609375 48.1875 
Q 61.625 48.1875 57.5625 43.546875 
Q 53.515625 38.921875 53.515625 30.90625 
L 53.515625 0 
L 44.484375 0 
L 44.484375 32.71875 
Q 44.484375 40.625 41.703125 44.40625 
Q 38.921875 48.1875 33.109375 48.1875 
Q 26.21875 48.1875 22.15625 43.53125 
Q 18.109375 38.875 18.109375 30.90625 
L 18.109375 0 
L 9.078125 0 
L 9.078125 54.6875 
L 18.109375 54.6875 
L 18.109375 46.1875 
Q 21.1875 51.21875 25.484375 53.609375 
Q 29.78125 56 35.6875 56 
Q 41.65625 56 45.828125 52.96875 
Q 50 49.953125 52 44.1875 
z
" id="DejaVuSans-109"/>
     </defs>
     <g transform="translate(148.595312 243.876563)scale(0.1 -0.1)">
      <use xlink:href="#DejaVuSans-40"/>
      <use x="39.013672" xlink:href="#DejaVuSans-97"/>
      <use x="100.292969" xlink:href="#DejaVuSans-41"/>
      <use x="139.306641" xlink:href="#DejaVuSans-32"/>
      <use x="171.09375" xlink:href="#DejaVuSans-80"/>
      <use x="231.333984" xlink:href="#DejaVuSans-97"/>
      <use x="292.613281" xlink:href="#DejaVuSans-116"/>
      <use x="331.822266" xlink:href="#DejaVuSans-104"/>
      <use x="395.201172" xlink:href="#DejaVuSans-32"/>
      <use x="426.988281" xlink:href="#DejaVuSans-108"/>
      <use x="454.771484" xlink:href="#DejaVuSans-101"/>
      <use x="516.294922" xlink:href="#DejaVuSans-110"/>
      <use x="579.673828" xlink:href="#DejaVuSans-103"/>
      <use x="643.150391" xlink:href="#DejaVuSans-116"/>
      <use x="682.359375" xlink:href="#DejaVuSans-104"/>
      <use x="745.738281" xlink:href="#DejaVuSans-32"/>
      <use x="777.525391" xlink:href="#DejaVuSans-40"/>
      <use x="816.539062" xlink:href="#DejaVuSans-107"/>
      <use x="874.449219" xlink:href="#DejaVuSans-109"/>
      <use x="971.861328" xlink:href="#DejaVuSans-41"/>
     </g>
    </g>
   </g>
   <g id="matplotlib.axis_2">
    <g id="ytick_1">
     <g id="line2d_6">
      <defs>
       <path d="M 0 0 
L -3.5 0 
" id="me100b05e94" style="stroke:#000000;stroke-width:0.8;"/>
      </defs>
      <g>
       <use style="stroke:#000000;stroke-width:0.8;" x="47.675" xlink:href="#me100b05e94" y="206.290909"/>
      </g>
     </g>
     <g id="text_7">
      <!-- 0.0 -->
      <defs>
       <path d="M 10.6875 12.40625 
L 21 12.40625 
L 21 0 
L 10.6875 0 
z
" id="DejaVuSans-46"/>
      </defs>
      <g transform="translate(24.771875 210.090128)scale(0.1 -0.1)">
       <use xlink:href="#DejaVuSans-48"/>
       <use x="63.623047" xlink:href="#DejaVuSans-46"/>
       <use x="95.410156" xlink:href="#DejaVuSans-48"/>
      </g>
     </g>
    </g>
    <g id="ytick_2">
     <g id="line2d_7">
      <g>
       <use style="stroke:#000000;stroke-width:0.8;" x="47.675" xlink:href="#me100b05e94" y="169.054545"/>
      </g>
     </g>
     <g id="text_8">
      <!-- 0.2 -->
      <g transform="translate(24.771875 172.853764)scale(0.1 -0.1)">
       <use xlink:href="#DejaVuSans-48"/>
       <use x="63.623047" xlink:href="#DejaVuSans-46"/>
       <use x="95.410156" xlink:href="#DejaVuSans-50"/>
      </g>
     </g>
    </g>
    <g id="ytick_3">
     <g id="line2d_8">
      <g>
       <use style="stroke:#000000;stroke-width:0.8;" x="47.675" xlink:href="#me100b05e94" y="131.818182"/>
      </g>
     </g>
     <g id="text_9">
      <!-- 0.4 -->
      <g transform="translate(24.771875 135.617401)scale(0.1 -0.1)">
       <use xlink:href="#DejaVuSans-48"/>
       <use x="63.623047" xlink:href="#DejaVuSans-46"/>
       <use x="95.410156" xlink:href="#DejaVuSans-52"/>
      </g>
     </g>
    </g>
    <g id="ytick_4">
     <g id="line2d_9">
      <g>
       <use style="stroke:#000000;stroke-width:0.8;" x="47.675" xlink:href="#me100b05e94" y="94.581818"/>
      </g>
     </g>
     <g id="text_10">
      <!-- 0.6 -->
      <defs>
       <path d="M 33.015625 40.375 
Q 26.375 40.375 22.484375 35.828125 
Q 18.609375 31.296875 18.609375 23.390625 
Q 18.609375 15.53125 22.484375 10.953125 
Q 26.375 6.390625 33.015625 6.390625 
Q 39.65625 6.390625 43.53125 10.953125 
Q 47.40625 15.53125 47.40625 23.390625 
Q 47.40625 31.296875 43.53125 35.828125 
Q 39.65625 40.375 33.015625 40.375 
z
M 52.59375 71.296875 
L 52.59375 62.3125 
Q 48.875 64.0625 45.09375 64.984375 
Q 41.3125 65.921875 37.59375 65.921875 
Q 27.828125 65.921875 22.671875 59.328125 
Q 17.53125 52.734375 16.796875 39.40625 
Q 19.671875 43.65625 24.015625 45.921875 
Q 28.375 48.1875 33.59375 48.1875 
Q 44.578125 48.1875 50.953125 41.515625 
Q 57.328125 34.859375 57.328125 23.390625 
Q 57.328125 12.15625 50.6875 5.359375 
Q 44.046875 -1.421875 33.015625 -1.421875 
Q 20.359375 -1.421875 13.671875 8.265625 
Q 6.984375 17.96875 6.984375 36.375 
Q 6.984375 53.65625 15.1875 63.9375 
Q 23.390625 74.21875 37.203125 74.21875 
Q 40.921875 74.21875 44.703125 73.484375 
Q 48.484375 72.75 52.59375 71.296875 
z
" id="DejaVuSans-54"/>
      </defs>
      <g transform="translate(24.771875 98.381037)scale(0.1 -0.1)">
       <use xlink:href="#DejaVuSans-48"/>
       <use x="63.623047" xlink:href="#DejaVuSans-46"/>
       <use x="95.410156" xlink:href="#DejaVuSans-54"/>
      </g>
     </g>
    </g>
    <g id="ytick_5">
     <g id="line2d_10">
      <g>
       <use style="stroke:#000000;stroke-width:0.8;" x="47.675" xlink:href="#me100b05e94" y="57.345455"/>
      </g>
     </g>
     <g id="text_11">
      <!-- 0.8 -->
      <defs>
       <path d="M 31.78125 34.625 
Q 24.75 34.625 20.71875 30.859375 
Q 16.703125 27.09375 16.703125 20.515625 
Q 16.703125 13.921875 20.71875 10.15625 
Q 24.75 6.390625 31.78125 6.390625 
Q 38.8125 6.390625 42.859375 10.171875 
Q 46.921875 13.96875 46.921875 20.515625 
Q 46.921875 27.09375 42.890625 30.859375 
Q 38.875 34.625 31.78125 34.625 
z
M 21.921875 38.8125 
Q 15.578125 40.375 12.03125 44.71875 
Q 8.5 49.078125 8.5 55.328125 
Q 8.5 64.0625 14.71875 69.140625 
Q 20.953125 74.21875 31.78125 74.21875 
Q 42.671875 74.21875 48.875 69.140625 
Q 55.078125 64.0625 55.078125 55.328125 
Q 55.078125 49.078125 51.53125 44.71875 
Q 48 40.375 41.703125 38.8125 
Q 48.828125 37.15625 52.796875 32.3125 
Q 56.78125 27.484375 56.78125 20.515625 
Q 56.78125 9.90625 50.3125 4.234375 
Q 43.84375 -1.421875 31.78125 -1.421875 
Q 19.734375 -1.421875 13.25 4.234375 
Q 6.78125 9.90625 6.78125 20.515625 
Q 6.78125 27.484375 10.78125 32.3125 
Q 14.796875 37.15625 21.921875 38.8125 
z
M 18.3125 54.390625 
Q 18.3125 48.734375 21.84375 45.5625 
Q 25.390625 42.390625 31.78125 42.390625 
Q 38.140625 42.390625 41.71875 45.5625 
Q 45.3125 48.734375 45.3125 54.390625 
Q 45.3125 60.0625 41.71875 63.234375 
Q 38.140625 66.40625 31.78125 66.40625 
Q 25.390625 66.40625 21.84375 63.234375 
Q 18.3125 60.0625 18.3125 54.390625 
z
" id="DejaVuSans-56"/>
      </defs>
      <g transform="translate(24.771875 61.144673)scale(0.1 -0.1)">
       <use xlink:href="#DejaVuSans-48"/>
       <use x="63.623047" xlink:href="#DejaVuSans-46"/>
       <use x="95.410156" xlink:href="#DejaVuSans-56"/>
      </g>
     </g>
    </g>
    <g id="ytick_6">
     <g id="line2d_11">
      <g>
       <use style="stroke:#000000;stroke-width:0.8;" x="47.675" xlink:href="#me100b05e94" y="20.109091"/>
      </g>
     </g>
     <g id="text_12">
      <!-- 1.0 -->
      <g transform="translate(24.771875 23.90831)scale(0.1 -0.1)">
       <use xlink:href="#DejaVuSans-49"/>
       <use x="63.623047" xlink:href="#DejaVuSans-46"/>
       <use x="95.410156" xlink:href="#DejaVuSans-48"/>
      </g>
     </g>
    </g>
    <g id="text_13">
     <!-- CDF -->
     <defs>
      <path d="M 64.40625 67.28125 
L 64.40625 56.890625 
Q 59.421875 61.53125 53.78125 63.8125 
Q 48.140625 66.109375 41.796875 66.109375 
Q 29.296875 66.109375 22.65625 58.46875 
Q 16.015625 50.828125 16.015625 36.375 
Q 16.015625 21.96875 22.65625 14.328125 
Q 29.296875 6.6875 41.796875 6.6875 
Q 48.140625 6.6875 53.78125 8.984375 
Q 59.421875 11.28125 64.40625 15.921875 
L 64.40625 5.609375 
Q 59.234375 2.09375 53.4375 0.328125 
Q 47.65625 -1.421875 41.21875 -1.421875 
Q 24.65625 -1.421875 15.125 8.703125 
Q 5.609375 18.84375 5.609375 36.375 
Q 5.609375 53.953125 15.125 64.078125 
Q 24.65625 74.21875 41.21875 74.21875 
Q 47.75 74.21875 53.53125 72.484375 
Q 59.328125 70.75 64.40625 67.28125 
z
" id="DejaVuSans-67"/>
      <path d="M 19.671875 64.796875 
L 19.671875 8.109375 
L 31.59375 8.109375 
Q 46.6875 8.109375 53.6875 14.9375 
Q 60.6875 21.78125 60.6875 36.53125 
Q 60.6875 51.171875 53.6875 57.984375 
Q 46.6875 64.796875 31.59375 64.796875 
z
M 9.8125 72.90625 
L 30.078125 72.90625 
Q 51.265625 72.90625 61.171875 64.09375 
Q 71.09375 55.28125 71.09375 36.53125 
Q 71.09375 17.671875 61.125 8.828125 
Q 51.171875 0 30.078125 0 
L 9.8125 0 
z
" id="DejaVuSans-68"/>
      <path d="M 9.8125 72.90625 
L 51.703125 72.90625 
L 51.703125 64.59375 
L 19.671875 64.59375 
L 19.671875 43.109375 
L 48.578125 43.109375 
L 48.578125 34.8125 
L 19.671875 34.8125 
L 19.671875 0 
L 9.8125 0 
z
" id="DejaVuSans-70"/>
     </defs>
     <g transform="translate(18.692187 123.417188)rotate(-90)scale(0.1 -0.1)">
      <use xlink:href="#DejaVuSans-67"/>
      <use x="69.824219" xlink:href="#DejaVuSans-68"/>
      <use x="146.826172" xlink:href="#DejaVuSans-70"/>
     </g>
    </g>
   </g>
   <g id="line2d_12">
    <path clip-path="url(#p1a9408e2d9)" d="M 53.959751 191.396364 
L 72.989977 191.396364 
L 73.103103 187.672727 
L 86.753582 187.672727 
L 86.866707 183.949091 
L 87.702579 183.949091 
L 87.815705 180.225455 
L 89.631998 180.225455 
L 89.745123 176.501818 
L 90.090785 176.501818 
L 90.20391 172.778182 
L 90.863809 172.778182 
L 90.976935 169.054545 
L 91.284887 169.054545 
L 91.398013 165.330909 
L 96.02359 165.330909 
L 96.136715 161.607273 
L 101.742713 161.607273 
L 101.855839 157.883636 
L 102.987094 157.883636 
L 103.100219 154.16 
L 104.099495 154.16 
L 104.21262 150.436364 
L 111.358382 150.436364 
L 111.471508 146.712727 
L 113.394642 146.712727 
L 113.507767 142.989091 
L 115.217219 142.989091 
L 115.330345 139.265455 
L 116.587295 139.265455 
L 116.706705 131.818182 
L 116.876394 131.818182 
L 116.989519 128.094545 
L 118.931507 128.094545 
L 119.044633 124.370909 
L 131.299897 124.370909 
L 131.413023 120.647273 
L 132.889939 120.647273 
L 133.003065 116.923636 
L 137.79833 116.923636 
L 137.91774 109.476364 
L 138.401666 109.476364 
L 138.514791 105.752727 
L 139.947715 105.752727 
L 140.06084 102.029091 
L 143.731135 102.029091 
L 143.84426 98.305455 
L 144.736695 98.305455 
L 144.849821 94.581818 
L 145.195482 94.581818 
L 145.308607 90.858182 
L 148.105322 90.858182 
L 148.218447 87.134545 
L 148.978902 87.134545 
L 149.092027 83.410909 
L 156.275498 83.410909 
L 156.388623 79.687273 
L 158.607141 79.687273 
L 158.720266 75.963636 
L 160.046349 75.963636 
L 160.159474 72.24 
L 166.456795 72.24 
L 166.56992 68.516364 
L 176.889481 68.516364 
L 177.002607 64.792727 
L 180.94943 64.792727 
L 181.062556 61.069091 
L 186.486296 61.069091 
L 186.599422 57.345455 
L 192.004308 57.345455 
L 192.117433 53.621818 
L 194.235394 53.621818 
L 194.34852 49.898182 
L 197.710862 49.898182 
L 197.823987 46.174545 
L 198.546733 46.174545 
L 198.659859 42.450909 
L 200.595562 42.450909 
L 200.708688 38.727273 
L 214.54771 38.727273 
L 214.660835 35.003636 
L 217.130742 35.003636 
L 217.243868 31.28 
L 220.260548 31.28 
L 220.373674 27.556364 
L 232.515813 27.556364 
L 232.628938 23.832727 
L 287.425683 23.832727 
L 287.538808 20.109091 
L 521.532659 20.109091 
L 521.532659 20.109091 
" style="fill:none;stroke:#1f77b4;stroke-linecap:square;stroke-width:1.5;"/>
   </g>
   <g id="line2d_13">
    <path clip-path="url(#p1a9408e2d9)" d="M 53.959751 187.672727 
L 72.989977 187.672727 
L 73.103103 183.949091 
L 80.808207 183.949091 
L 80.921333 180.225455 
L 86.055975 180.225455 
L 86.1691 176.501818 
L 86.753582 176.501818 
L 86.866707 172.778182 
L 87.583169 172.778182 
L 87.696295 169.054545 
L 87.702579 169.054545 
L 87.815705 165.330909 
L 90.863809 165.330909 
L 90.976935 161.607273 
L 91.284887 161.607273 
L 91.398013 157.883636 
L 96.02359 157.883636 
L 96.136715 154.16 
L 101.742713 154.16 
L 101.855839 150.436364 
L 102.987094 150.436364 
L 103.100219 146.712727 
L 113.394642 146.712727 
L 113.507767 142.989091 
L 115.217219 142.989091 
L 115.330345 139.265455 
L 116.587295 139.265455 
L 116.700421 135.541818 
L 116.876394 135.541818 
L 116.995804 128.094545 
L 117.856815 128.094545 
L 117.96994 124.370909 
L 118.051642 124.370909 
L 118.164768 120.647273 
L 118.397303 120.647273 
L 118.510429 116.923636 
L 118.931507 116.923636 
L 119.044633 113.2 
L 119.761094 113.2 
L 119.87422 109.476364 
L 125.794455 109.476364 
L 125.907581 105.752727 
L 130.130934 105.752727 
L 130.244059 102.029091 
L 131.299897 102.029091 
L 131.413023 98.305455 
L 132.889939 98.305455 
L 133.003065 94.581818 
L 134.787934 94.581818 
L 134.90106 90.858182 
L 139.947715 90.858182 
L 140.06084 87.134545 
L 144.736695 87.134545 
L 144.849821 83.410909 
L 145.195482 83.410909 
L 145.308607 79.687273 
L 146.51528 79.687273 
L 146.628405 75.963636 
L 147.219172 75.963636 
L 147.332297 72.24 
L 148.105322 72.24 
L 148.218447 68.516364 
L 153.013712 68.516364 
L 153.126838 64.792727 
L 154.610039 64.792727 
L 154.723164 61.069091 
L 156.275498 61.069091 
L 156.388623 57.345455 
L 158.550578 57.345455 
L 158.669988 49.898182 
L 166.456795 49.898182 
L 166.56992 46.174545 
L 173.690543 46.174545 
L 173.803669 42.450909 
L 179.120568 42.450909 
L 179.233693 38.727273 
L 185.2482 38.727273 
L 185.361326 35.003636 
L 200.834383 35.003636 
L 200.947508 31.28 
L 217.287861 31.28 
L 217.400987 27.556364 
L 219.632073 27.556364 
L 219.745199 23.832727 
L 256.969779 23.832727 
L 257.082905 20.109091 
L 521.532659 20.109091 
L 521.532659 20.109091 
" style="fill:none;stroke:#ff7f0e;stroke-linecap:square;stroke-width:1.5;"/>
   </g>
   <g id="line2d_14">
    <path clip-path="url(#p1a9408e2d9)" d="M 53.959751 183.949091 
L 72.989977 183.949091 
L 73.103103 180.225455 
L 80.808207 180.225455 
L 80.921333 176.501818 
L 86.055975 176.501818 
L 86.1691 172.778182 
L 86.753582 172.778182 
L 86.866707 169.054545 
L 87.583169 169.054545 
L 87.696295 165.330909 
L 87.702579 165.330909 
L 87.815705 161.607273 
L 90.863809 161.607273 
L 90.976935 157.883636 
L 91.284887 157.883636 
L 91.398013 154.16 
L 94.464971 154.16 
L 94.578097 150.436364 
L 96.02359 150.436364 
L 96.136715 146.712727 
L 101.742713 146.712727 
L 101.855839 142.989091 
L 102.987094 142.989091 
L 103.100219 139.265455 
L 108.040034 139.265455 
L 108.153159 135.541818 
L 113.394642 135.541818 
L 113.507767 131.818182 
L 115.217219 131.818182 
L 115.330345 128.094545 
L 116.587295 128.094545 
L 116.700421 124.370909 
L 116.876394 124.370909 
L 116.995804 116.923636 
L 117.856815 116.923636 
L 117.96994 113.2 
L 118.051642 113.2 
L 118.164768 109.476364 
L 118.397303 109.476364 
L 118.510429 105.752727 
L 118.931507 105.752727 
L 119.044633 102.029091 
L 119.761094 102.029091 
L 119.87422 98.305455 
L 125.794455 98.305455 
L 125.907581 94.581818 
L 130.130934 94.581818 
L 130.244059 90.858182 
L 131.299897 90.858182 
L 131.413023 87.134545 
L 131.689552 87.134545 
L 131.802677 83.410909 
L 132.889939 83.410909 
L 133.003065 79.687273 
L 134.787934 79.687273 
L 134.90106 75.963636 
L 139.947715 75.963636 
L 140.06084 72.24 
L 144.736695 72.24 
L 144.849821 68.516364 
L 145.195482 68.516364 
L 145.308607 64.792727 
L 146.51528 64.792727 
L 146.628405 61.069091 
L 147.219172 61.069091 
L 147.332297 57.345455 
L 148.105322 57.345455 
L 148.218447 53.621818 
L 153.013712 53.621818 
L 153.126838 49.898182 
L 154.610039 49.898182 
L 154.723164 46.174545 
L 156.275498 46.174545 
L 156.388623 42.450909 
L 158.550578 42.450909 
L 158.669988 35.003636 
L 166.456795 35.003636 
L 166.56992 31.28 
L 173.690543 31.28 
L 173.803669 27.556364 
L 185.2482 27.556364 
L 185.361326 23.832727 
L 220.574786 23.832727 
L 220.687911 20.109091 
L 521.532659 20.109091 
L 521.532659 20.109091 
" style="fill:none;stroke:#2ca02c;stroke-linecap:square;stroke-width:1.5;"/>
   </g>
   <g id="patch_3">
    <path d="M 47.675 215.6 
L 47.675 10.8 
" style="fill:none;stroke:#000000;stroke-linecap:square;stroke-linejoin:miter;stroke-width:0.8;"/>
   </g>
   <g id="patch_4">
    <path d="M 350.6 215.6 
L 350.6 10.8 
" style="fill:none;stroke:#000000;stroke-linecap:square;stroke-linejoin:miter;stroke-width:0.8;"/>
   </g>
   <g id="patch_5">
    <path d="M 47.675 215.6 
L 350.6 215.6 
" style="fill:none;stroke:#000000;stroke-linecap:square;stroke-linejoin:miter;stroke-width:0.8;"/>
   </g>
   <g id="patch_6">
    <path d="M 47.675 10.8 
L 350.6 10.8 
" style="fill:none;stroke:#000000;stroke-linecap:square;stroke-linejoin:miter;stroke-width:0.8;"/>
   </g>
  </g>
  <g id="axes_2">
   <g id="patch_7">
    <path d="M 398.275 215.6 
L 701.2 215.6 
L 701.2 10.8 
L 398.275 10.8 
z
" style="fill:#ffffff;"/>
   </g>
   <g id="matplotlib.axis_3">
    <g id="xtick_6">
     <g id="line2d_15">
      <g>
       <use style="stroke:#000000;stroke-width:0.8;" x="430.73125" xlink:href="#m0bdd6a3e3d" y="215.6"/>
      </g>
     </g>
     <g id="text_14">
      <!-- 0.0 -->
      <g transform="translate(422.779688 230.198438)scale(0.1 -0.1)">
       <use xlink:href="#DejaVuSans-48"/>
       <use x="63.623047" xlink:href="#DejaVuSans-46"/>
       <use x="95.410156" xlink:href="#DejaVuSans-48"/>
      </g>
     </g>
    </g>
    <g id="xtick_7">
     <g id="line2d_16">
      <g>
       <use style="stroke:#000000;stroke-width:0.8;" x="484.825" xlink:href="#m0bdd6a3e3d" y="215.6"/>
      </g>
     </g>
     <g id="text_15">
      <!-- 0.5 -->
      <defs>
       <path d="M 10.796875 72.90625 
L 49.515625 72.90625 
L 49.515625 64.59375 
L 19.828125 64.59375 
L 19.828125 46.734375 
Q 21.96875 47.46875 24.109375 47.828125 
Q 26.265625 48.1875 28.421875 48.1875 
Q 40.625 48.1875 47.75 41.5 
Q 54.890625 34.8125 54.890625 23.390625 
Q 54.890625 11.625 47.5625 5.09375 
Q 40.234375 -1.421875 26.90625 -1.421875 
Q 22.3125 -1.421875 17.546875 -0.640625 
Q 12.796875 0.140625 7.71875 1.703125 
L 7.71875 11.625 
Q 12.109375 9.234375 16.796875 8.0625 
Q 21.484375 6.890625 26.703125 6.890625 
Q 35.15625 6.890625 40.078125 11.328125 
Q 45.015625 15.765625 45.015625 23.390625 
Q 45.015625 31 40.078125 35.4375 
Q 35.15625 39.890625 26.703125 39.890625 
Q 22.75 39.890625 18.8125 39.015625 
Q 14.890625 38.140625 10.796875 36.28125 
z
" id="DejaVuSans-53"/>
      </defs>
      <g transform="translate(476.873438 230.198438)scale(0.1 -0.1)">
       <use xlink:href="#DejaVuSans-48"/>
       <use x="63.623047" xlink:href="#DejaVuSans-46"/>
       <use x="95.410156" xlink:href="#DejaVuSans-53"/>
      </g>
     </g>
    </g>
    <g id="xtick_8">
     <g id="line2d_17">
      <g>
       <use style="stroke:#000000;stroke-width:0.8;" x="538.91875" xlink:href="#m0bdd6a3e3d" y="215.6"/>
      </g>
     </g>
     <g id="text_16">
      <!-- 1.0 -->
      <g transform="translate(530.967188 230.198438)scale(0.1 -0.1)">
       <use xlink:href="#DejaVuSans-49"/>
       <use x="63.623047" xlink:href="#DejaVuSans-46"/>
       <use x="95.410156" xlink:href="#DejaVuSans-48"/>
      </g>
     </g>
    </g>
    <g id="xtick_9">
     <g id="line2d_18">
      <g>
       <use style="stroke:#000000;stroke-width:0.8;" x="593.0125" xlink:href="#m0bdd6a3e3d" y="215.6"/>
      </g>
     </g>
     <g id="text_17">
      <!-- 1.5 -->
      <g transform="translate(585.060938 230.198438)scale(0.1 -0.1)">
       <use xlink:href="#DejaVuSans-49"/>
       <use x="63.623047" xlink:href="#DejaVuSans-46"/>
       <use x="95.410156" xlink:href="#DejaVuSans-53"/>
      </g>
     </g>
    </g>
    <g id="xtick_10">
     <g id="line2d_19">
      <g>
       <use style="stroke:#000000;stroke-width:0.8;" x="647.10625" xlink:href="#m0bdd6a3e3d" y="215.6"/>
      </g>
     </g>
     <g id="text_18">
      <!-- 2.0 -->
      <g transform="translate(639.154688 230.198438)scale(0.1 -0.1)">
       <use xlink:href="#DejaVuSans-50"/>
       <use x="63.623047" xlink:href="#DejaVuSans-46"/>
       <use x="95.410156" xlink:href="#DejaVuSans-48"/>
      </g>
     </g>
    </g>
    <g id="xtick_11">
     <g id="line2d_20">
      <g>
       <use style="stroke:#000000;stroke-width:0.8;" x="701.2" xlink:href="#m0bdd6a3e3d" y="215.6"/>
      </g>
     </g>
     <g id="text_19">
      <!-- 2.5 -->
      <g transform="translate(693.248438 230.198438)scale(0.1 -0.1)">
       <use xlink:href="#DejaVuSans-50"/>
       <use x="63.623047" xlink:href="#DejaVuSans-46"/>
       <use x="95.410156" xlink:href="#DejaVuSans-53"/>
      </g>
     </g>
    </g>
    <g id="text_20">
     <!-- (b) Propagation latency (ms) -->
     <defs>
      <path d="M 48.6875 27.296875 
Q 48.6875 37.203125 44.609375 42.84375 
Q 40.53125 48.484375 33.40625 48.484375 
Q 26.265625 48.484375 22.1875 42.84375 
Q 18.109375 37.203125 18.109375 27.296875 
Q 18.109375 17.390625 22.1875 11.75 
Q 26.265625 6.109375 33.40625 6.109375 
Q 40.53125 6.109375 44.609375 11.75 
Q 48.6875 17.390625 48.6875 27.296875 
z
M 18.109375 46.390625 
Q 20.953125 51.265625 25.265625 53.625 
Q 29.59375 56 35.59375 56 
Q 45.5625 56 51.78125 48.09375 
Q 58.015625 40.1875 58.015625 27.296875 
Q 58.015625 14.40625 51.78125 6.484375 
Q 45.5625 -1.421875 35.59375 -1.421875 
Q 29.59375 -1.421875 25.265625 0.953125 
Q 20.953125 3.328125 18.109375 8.203125 
L 18.109375 0 
L 9.078125 0 
L 9.078125 75.984375 
L 18.109375 75.984375 
z
" id="DejaVuSans-98"/>
      <path d="M 41.109375 46.296875 
Q 39.59375 47.171875 37.8125 47.578125 
Q 36.03125 48 33.890625 48 
Q 26.265625 48 22.1875 43.046875 
Q 18.109375 38.09375 18.109375 28.8125 
L 18.109375 0 
L 9.078125 0 
L 9.078125 54.6875 
L 18.109375 54.6875 
L 18.109375 46.1875 
Q 20.953125 51.171875 25.484375 53.578125 
Q 30.03125 56 36.53125 56 
Q 37.453125 56 38.578125 55.875 
Q 39.703125 55.765625 41.0625 55.515625 
z
" id="DejaVuSans-114"/>
      <path d="M 30.609375 48.390625 
Q 23.390625 48.390625 19.1875 42.75 
Q 14.984375 37.109375 14.984375 27.296875 
Q 14.984375 17.484375 19.15625 11.84375 
Q 23.34375 6.203125 30.609375 6.203125 
Q 37.796875 6.203125 41.984375 11.859375 
Q 46.1875 17.53125 46.1875 27.296875 
Q 46.1875 37.015625 41.984375 42.703125 
Q 37.796875 48.390625 30.609375 48.390625 
z
M 30.609375 56 
Q 42.328125 56 49.015625 48.375 
Q 55.71875 40.765625 55.71875 27.296875 
Q 55.71875 13.875 49.015625 6.21875 
Q 42.328125 -1.421875 30.609375 -1.421875 
Q 18.84375 -1.421875 12.171875 6.21875 
Q 5.515625 13.875 5.515625 27.296875 
Q 5.515625 40.765625 12.171875 48.375 
Q 18.84375 56 30.609375 56 
z
" id="DejaVuSans-111"/>
      <path d="M 18.109375 8.203125 
L 18.109375 -20.796875 
L 9.078125 -20.796875 
L 9.078125 54.6875 
L 18.109375 54.6875 
L 18.109375 46.390625 
Q 20.953125 51.265625 25.265625 53.625 
Q 29.59375 56 35.59375 56 
Q 45.5625 56 51.78125 48.09375 
Q 58.015625 40.1875 58.015625 27.296875 
Q 58.015625 14.40625 51.78125 6.484375 
Q 45.5625 -1.421875 35.59375 -1.421875 
Q 29.59375 -1.421875 25.265625 0.953125 
Q 20.953125 3.328125 18.109375 8.203125 
z
M 48.6875 27.296875 
Q 48.6875 37.203125 44.609375 42.84375 
Q 40.53125 48.484375 33.40625 48.484375 
Q 26.265625 48.484375 22.1875 42.84375 
Q 18.109375 37.203125 18.109375 27.296875 
Q 18.109375 17.390625 22.1875 11.75 
Q 26.265625 6.109375 33.40625 6.109375 
Q 40.53125 6.109375 44.609375 11.75 
Q 48.6875 17.390625 48.6875 27.296875 
z
" id="DejaVuSans-112"/>
      <path d="M 9.421875 54.6875 
L 18.40625 54.6875 
L 18.40625 0 
L 9.421875 0 
z
M 9.421875 75.984375 
L 18.40625 75.984375 
L 18.40625 64.59375 
L 9.421875 64.59375 
z
" id="DejaVuSans-105"/>
      <path d="M 48.78125 52.59375 
L 48.78125 44.1875 
Q 44.96875 46.296875 41.140625 47.34375 
Q 37.3125 48.390625 33.40625 48.390625 
Q 24.65625 48.390625 19.8125 42.84375 
Q 14.984375 37.3125 14.984375 27.296875 
Q 14.984375 17.28125 19.8125 11.734375 
Q 24.65625 6.203125 33.40625 6.203125 
Q 37.3125 6.203125 41.140625 7.25 
Q 44.96875 8.296875 48.78125 10.40625 
L 48.78125 2.09375 
Q 45.015625 0.34375 40.984375 -0.53125 
Q 36.96875 -1.421875 32.421875 -1.421875 
Q 20.0625 -1.421875 12.78125 6.34375 
Q 5.515625 14.109375 5.515625 27.296875 
Q 5.515625 40.671875 12.859375 48.328125 
Q 20.21875 56 33.015625 56 
Q 37.15625 56 41.109375 55.140625 
Q 45.0625 54.296875 48.78125 52.59375 
z
" id="DejaVuSans-99"/>
      <path d="M 32.171875 -5.078125 
Q 28.375 -14.84375 24.75 -17.8125 
Q 21.140625 -20.796875 15.09375 -20.796875 
L 7.90625 -20.796875 
L 7.90625 -13.28125 
L 13.1875 -13.28125 
Q 16.890625 -13.28125 18.9375 -11.515625 
Q 21 -9.765625 23.484375 -3.21875 
L 25.09375 0.875 
L 2.984375 54.6875 
L 12.5 54.6875 
L 29.59375 11.921875 
L 46.6875 54.6875 
L 56.203125 54.6875 
z
" id="DejaVuSans-121"/>
      <path d="M 44.28125 53.078125 
L 44.28125 44.578125 
Q 40.484375 46.53125 36.375 47.5 
Q 32.28125 48.484375 27.875 48.484375 
Q 21.1875 48.484375 17.84375 46.4375 
Q 14.5 44.390625 14.5 40.28125 
Q 14.5 37.15625 16.890625 35.375 
Q 19.28125 33.59375 26.515625 31.984375 
L 29.59375 31.296875 
Q 39.15625 29.25 43.1875 25.515625 
Q 47.21875 21.78125 47.21875 15.09375 
Q 47.21875 7.46875 41.1875 3.015625 
Q 35.15625 -1.421875 24.609375 -1.421875 
Q 20.21875 -1.421875 15.453125 -0.5625 
Q 10.6875 0.296875 5.421875 2 
L 5.421875 11.28125 
Q 10.40625 8.6875 15.234375 7.390625 
Q 20.0625 6.109375 24.8125 6.109375 
Q 31.15625 6.109375 34.5625 8.28125 
Q 37.984375 10.453125 37.984375 14.40625 
Q 37.984375 18.0625 35.515625 20.015625 
Q 33.0625 21.96875 24.703125 23.78125 
L 21.578125 24.515625 
Q 13.234375 26.265625 9.515625 29.90625 
Q 5.8125 33.546875 5.8125 39.890625 
Q 5.8125 47.609375 11.28125 51.796875 
Q 16.75 56 26.8125 56 
Q 31.78125 56 36.171875 55.265625 
Q 40.578125 54.546875 44.28125 53.078125 
z
" id="DejaVuSans-115"/>
     </defs>
     <g transform="translate(477.969531 243.876563)scale(0.1 -0.1)">
      <use xlink:href="#DejaVuSans-40"/>
      <use x="39.013672" xlink:href="#DejaVuSans-98"/>
      <use x="102.490234" xlink:href="#DejaVuSans-41"/>
      <use x="141.503906" xlink:href="#DejaVuSans-32"/>
      <use x="173.291016" xlink:href="#DejaVuSans-80"/>
      <use x="233.578125" xlink:href="#DejaVuSans-114"/>
      <use x="274.660156" xlink:href="#DejaVuSans-111"/>
      <use x="335.841797" xlink:href="#DejaVuSans-112"/>
      <use x="399.318359" xlink:href="#DejaVuSans-97"/>
      <use x="460.597656" xlink:href="#DejaVuSans-103"/>
      <use x="524.074219" xlink:href="#DejaVuSans-97"/>
      <use x="585.353516" xlink:href="#DejaVuSans-116"/>
      <use x="624.5625" xlink:href="#DejaVuSans-105"/>
      <use x="652.345703" xlink:href="#DejaVuSans-111"/>
      <use x="713.527344" xlink:href="#DejaVuSans-110"/>
      <use x="776.90625" xlink:href="#DejaVuSans-32"/>
      <use x="808.693359" xlink:href="#DejaVuSans-108"/>
      <use x="836.476562" xlink:href="#DejaVuSans-97"/>
      <use x="897.755859" xlink:href="#DejaVuSans-116"/>
      <use x="936.964844" xlink:href="#DejaVuSans-101"/>
      <use x="998.488281" xlink:href="#DejaVuSans-110"/>
      <use x="1061.867188" xlink:href="#DejaVuSans-99"/>
      <use x="1116.847656" xlink:href="#DejaVuSans-121"/>
      <use x="1176.027344" xlink:href="#DejaVuSans-32"/>
      <use x="1207.814453" xlink:href="#DejaVuSans-40"/>
      <use x="1246.828125" xlink:href="#DejaVuSans-109"/>
      <use x="1344.240234" xlink:href="#DejaVuSans-115"/>
      <use x="1396.339844" xlink:href="#DejaVuSans-41"/>
     </g>
    </g>
   </g>
   <g id="matplotlib.axis_4">
    <g id="ytick_7">
     <g id="line2d_21">
      <g>
       <use style="stroke:#000000;stroke-width:0.8;" x="398.275" xlink:href="#me100b05e94" y="206.290909"/>
      </g>
     </g>
     <g id="text_21">
      <!-- 0.0 -->
      <g transform="translate(375.371875 210.090128)scale(0.1 -0.1)">
       <use xlink:href="#DejaVuSans-48"/>
       <use x="63.623047" xlink:href="#DejaVuSans-46"/>
       <use x="95.410156" xlink:href="#DejaVuSans-48"/>
      </g>
     </g>
    </g>
    <g id="ytick_8">
     <g id="line2d_22">
      <g>
       <use style="stroke:#000000;stroke-width:0.8;" x="398.275" xlink:href="#me100b05e94" y="169.054545"/>
      </g>
     </g>
     <g id="text_22">
      <!-- 0.2 -->
      <g transform="translate(375.371875 172.853764)scale(0.1 -0.1)">
       <use xlink:href="#DejaVuSans-48"/>
       <use x="63.623047" xlink:href="#DejaVuSans-46"/>
       <use x="95.410156" xlink:href="#DejaVuSans-50"/>
      </g>
     </g>
    </g>
    <g id="ytick_9">
     <g id="line2d_23">
      <g>
       <use style="stroke:#000000;stroke-width:0.8;" x="398.275" xlink:href="#me100b05e94" y="131.818182"/>
      </g>
     </g>
     <g id="text_23">
      <!-- 0.4 -->
      <g transform="translate(375.371875 135.617401)scale(0.1 -0.1)">
       <use xlink:href="#DejaVuSans-48"/>
       <use x="63.623047" xlink:href="#DejaVuSans-46"/>
       <use x="95.410156" xlink:href="#DejaVuSans-52"/>
      </g>
     </g>
    </g>
    <g id="ytick_10">
     <g id="line2d_24">
      <g>
       <use style="stroke:#000000;stroke-width:0.8;" x="398.275" xlink:href="#me100b05e94" y="94.581818"/>
      </g>
     </g>
     <g id="text_24">
      <!-- 0.6 -->
      <g transform="translate(375.371875 98.381037)scale(0.1 -0.1)">
       <use xlink:href="#DejaVuSans-48"/>
       <use x="63.623047" xlink:href="#DejaVuSans-46"/>
       <use x="95.410156" xlink:href="#DejaVuSans-54"/>
      </g>
     </g>
    </g>
    <g id="ytick_11">
     <g id="line2d_25">
      <g>
       <use style="stroke:#000000;stroke-width:0.8;" x="398.275" xlink:href="#me100b05e94" y="57.345455"/>
      </g>
     </g>
     <g id="text_25">
      <!-- 0.8 -->
      <g transform="translate(375.371875 61.144673)scale(0.1 -0.1)">
       <use xlink:href="#DejaVuSans-48"/>
       <use x="63.623047" xlink:href="#DejaVuSans-46"/>
       <use x="95.410156" xlink:href="#DejaVuSans-56"/>
      </g>
     </g>
    </g>
    <g id="ytick_12">
     <g id="line2d_26">
      <g>
       <use style="stroke:#000000;stroke-width:0.8;" x="398.275" xlink:href="#me100b05e94" y="20.109091"/>
      </g>
     </g>
     <g id="text_26">
      <!-- 1.0 -->
      <g transform="translate(375.371875 23.90831)scale(0.1 -0.1)">
       <use xlink:href="#DejaVuSans-49"/>
       <use x="63.623047" xlink:href="#DejaVuSans-46"/>
       <use x="95.410156" xlink:href="#DejaVuSans-48"/>
      </g>
     </g>
    </g>
    <g id="text_27">
     <!-- CDF -->
     <g transform="translate(369.292188 123.417188)rotate(-90)scale(0.1 -0.1)">
      <use xlink:href="#DejaVuSans-67"/>
      <use x="69.824219" xlink:href="#DejaVuSans-68"/>
      <use x="146.826172" xlink:href="#DejaVuSans-70"/>
     </g>
    </g>
   </g>
   <g id="line2d_27">
    <path clip-path="url(#pe0b6a5cc99)" d="M 430.73125 191.396364 
L 445.8775 191.396364 
L 446.959375 187.672727 
L 457.778125 187.672727 
L 458.86 180.225455 
L 459.941875 180.225455 
L 462.105625 165.330909 
L 465.35125 165.330909 
L 466.433125 161.607273 
L 470.760625 161.607273 
L 471.8425 157.883636 
L 472.924375 150.436364 
L 478.33375 150.436364 
L 479.415625 146.712727 
L 480.4975 146.712727 
L 482.66125 139.265455 
L 483.743125 131.818182 
L 485.906875 124.370909 
L 495.64375 124.370909 
L 497.8075 116.923636 
L 501.053125 116.923636 
L 502.135 109.476364 
L 504.29875 102.029091 
L 506.4625 102.029091 
L 507.544375 98.305455 
L 508.62625 90.858182 
L 509.708125 90.858182 
L 511.871875 83.410909 
L 517.28125 83.410909 
L 518.363125 79.687273 
L 519.445 79.687273 
L 521.60875 72.24 
L 525.93625 72.24 
L 527.018125 68.516364 
L 534.59125 68.516364 
L 535.673125 64.792727 
L 538.91875 64.792727 
L 540.000625 61.069091 
L 543.24625 61.069091 
L 544.328125 57.345455 
L 547.57375 57.345455 
L 548.655625 53.621818 
L 549.7375 53.621818 
L 550.819375 49.898182 
L 552.983125 49.898182 
L 556.22875 38.727273 
L 567.0475 38.727273 
L 568.129375 35.003636 
L 569.21125 35.003636 
L 570.293125 31.28 
L 572.456875 31.28 
L 573.53875 27.556364 
L 583.275625 27.556364 
L 584.3575 23.832727 
L 629.79625 23.832727 
L 630.878125 20.109091 
L 721 20.109091 
L 721 20.109091 
" style="fill:none;stroke:#1f77b4;stroke-linecap:square;stroke-width:1.5;"/>
   </g>
   <g id="line2d_28">
    <path clip-path="url(#pe0b6a5cc99)" d="M 430.73125 187.672727 
L 445.8775 187.672727 
L 446.959375 183.949091 
L 452.36875 183.949091 
L 453.450625 180.225455 
L 456.69625 180.225455 
L 457.778125 176.501818 
L 458.86 165.330909 
L 461.02375 165.330909 
L 462.105625 157.883636 
L 465.35125 157.883636 
L 466.433125 154.16 
L 470.760625 154.16 
L 472.924375 146.712727 
L 480.4975 146.712727 
L 483.743125 135.541818 
L 484.825 120.647273 
L 485.906875 113.2 
L 486.98875 109.476364 
L 491.31625 109.476364 
L 492.398125 105.752727 
L 494.561875 105.752727 
L 497.8075 94.581818 
L 498.889375 94.581818 
L 499.97125 90.858182 
L 503.216875 90.858182 
L 504.29875 87.134545 
L 507.544375 87.134545 
L 508.62625 79.687273 
L 509.708125 75.963636 
L 510.79 68.516364 
L 514.035625 68.516364 
L 515.1175 64.792727 
L 516.199375 64.792727 
L 518.363125 57.345455 
L 519.445 57.345455 
L 520.526875 49.898182 
L 525.93625 49.898182 
L 527.018125 46.174545 
L 532.4275 46.174545 
L 533.509375 42.450909 
L 536.755 42.450909 
L 537.836875 38.727273 
L 542.164375 38.727273 
L 543.24625 35.003636 
L 555.146875 35.003636 
L 556.22875 31.28 
L 569.21125 31.28 
L 570.293125 27.556364 
L 571.375 27.556364 
L 572.456875 23.832727 
L 603.83125 23.832727 
L 604.913125 20.109091 
L 721 20.109091 
L 721 20.109091 
" style="fill:none;stroke:#ff7f0e;stroke-linecap:square;stroke-width:1.5;"/>
   </g>
   <g id="line2d_29">
    <path clip-path="url(#pe0b6a5cc99)" d="M 430.73125 183.949091 
L 445.8775 183.949091 
L 446.959375 180.225455 
L 452.36875 180.225455 
L 453.450625 176.501818 
L 456.69625 176.501818 
L 457.778125 172.778182 
L 458.86 161.607273 
L 461.02375 161.607273 
L 462.105625 154.16 
L 464.269375 154.16 
L 466.433125 146.712727 
L 470.760625 146.712727 
L 472.924375 139.265455 
L 476.17 139.265455 
L 477.251875 135.541818 
L 480.4975 135.541818 
L 483.743125 124.370909 
L 484.825 109.476364 
L 485.906875 102.029091 
L 486.98875 98.305455 
L 491.31625 98.305455 
L 492.398125 94.581818 
L 494.561875 94.581818 
L 495.64375 90.858182 
L 496.725625 83.410909 
L 497.8075 79.687273 
L 498.889375 79.687273 
L 499.97125 75.963636 
L 503.216875 75.963636 
L 504.29875 72.24 
L 507.544375 72.24 
L 508.62625 64.792727 
L 509.708125 61.069091 
L 510.79 53.621818 
L 514.035625 53.621818 
L 515.1175 49.898182 
L 516.199375 49.898182 
L 518.363125 42.450909 
L 519.445 42.450909 
L 520.526875 35.003636 
L 525.93625 35.003636 
L 527.018125 31.28 
L 532.4275 31.28 
L 533.509375 27.556364 
L 542.164375 27.556364 
L 543.24625 23.832727 
L 572.456875 23.832727 
L 573.53875 20.109091 
L 721 20.109091 
L 721 20.109091 
" style="fill:none;stroke:#2ca02c;stroke-linecap:square;stroke-width:1.5;"/>
   </g>
   <g id="patch_8">
    <path d="M 398.275 215.6 
L 398.275 10.8 
" style="fill:none;stroke:#000000;stroke-linecap:square;stroke-linejoin:miter;stroke-width:0.8;"/>
   </g>
   <g id="patch_9">
    <path d="M 701.2 215.6 
L 701.2 10.8 
" style="fill:none;stroke:#000000;stroke-linecap:square;stroke-linejoin:miter;stroke-width:0.8;"/>
   </g>
   <g id="patch_10">
    <path d="M 398.275 215.6 
L 701.2 215.6 
" style="fill:none;stroke:#000000;stroke-linecap:square;stroke-linejoin:miter;stroke-width:0.8;"/>
   </g>
   <g id="patch_11">
    <path d="M 398.275 10.8 
L 701.2 10.8 
" style="fill:none;stroke:#000000;stroke-linecap:square;stroke-linejoin:miter;stroke-width:0.8;"/>
   </g>
   <g id="legend_1">
    <g id="patch_12">
     <path d="M 641 210.6 
L 694.2 210.6 
Q 696.2 210.6 696.2 208.6 
L 696.2 165.2 
Q 696.2 163.2 694.2 163.2 
L 641 163.2 
Q 639 163.2 639 165.2 
L 639 208.6 
Q 639 210.6 641 210.6 
z
" style="fill:#ffffff;opacity:0.8;stroke:#cccccc;stroke-linejoin:miter;"/>
    </g>
    <g id="line2d_30">
     <path d="M 643 171.4 
L 663 171.4 
" style="fill:none;stroke:#1f77b4;stroke-linecap:square;stroke-width:1.5;"/>
    </g>
    <g id="line2d_31"/>
    <g id="text_28">
     <!-- $\beta$=4 -->
     <defs>
      <path d="M 13.625 3.375 
L 8.9375 -20.796875 
L -0.09375 -20.796875 
L 14.5 54.34375 
Q 18.84375 76.609375 39.65625 76.609375 
Q 60.75 76.609375 57.171875 57.8125 
Q 54.734375 44.4375 45.21875 39.546875 
Q 58.015625 35.15625 55.515625 22.125 
Q 51.125 -1.078125 27.484375 -1.03125 
Q 17.140625 -0.984375 13.625 3.375 
z
M 15.921875 15.09375 
Q 19.671875 6.59375 29.296875 6.640625 
Q 43.359375 6.640625 46.34375 21.96875 
Q 49.03125 35.75 26.171875 34.671875 
L 27.78125 42.96875 
Q 45.453125 42.671875 48.53125 58.59375 
Q 50.640625 69.34375 39.203125 69.28125 
Q 26.421875 69.28125 23.484375 54.046875 
z
" id="DejaVuSans-Oblique-946"/>
      <path d="M 10.59375 45.40625 
L 73.1875 45.40625 
L 73.1875 37.203125 
L 10.59375 37.203125 
z
M 10.59375 25.484375 
L 73.1875 25.484375 
L 73.1875 17.1875 
L 10.59375 17.1875 
z
" id="DejaVuSans-61"/>
     </defs>
     <g transform="translate(671 174.9)scale(0.1 -0.1)">
      <use transform="translate(0 0.390625)" xlink:href="#DejaVuSans-Oblique-946"/>
      <use transform="translate(63.818359 0.390625)" xlink:href="#DejaVuSans-61"/>
      <use transform="translate(147.607422 0.390625)" xlink:href="#DejaVuSans-52"/>
     </g>
    </g>
    <g id="line2d_32">
     <path d="M 643 186.2 
L 663 186.2 
" style="fill:none;stroke:#ff7f0e;stroke-linecap:square;stroke-width:1.5;"/>
    </g>
    <g id="line2d_33"/>
    <g id="text_29">
     <!-- $\beta$=5 -->
     <g transform="translate(671 189.7)scale(0.1 -0.1)">
      <use transform="translate(0 0.390625)" xlink:href="#DejaVuSans-Oblique-946"/>
      <use transform="translate(63.818359 0.390625)" xlink:href="#DejaVuSans-61"/>
      <use transform="translate(147.607422 0.390625)" xlink:href="#DejaVuSans-53"/>
     </g>
    </g>
    <g id="line2d_34">
     <path d="M 643 201 
L 663 201 
" style="fill:none;stroke:#2ca02c;stroke-linecap:square;stroke-width:1.5;"/>
    </g>
    <g id="line2d_35"/>
    <g id="text_30">
     <!-- $\beta$=6 -->
     <g transform="translate(671 204.5)scale(0.1 -0.1)">
      <use transform="translate(0 0.390625)" xlink:href="#DejaVuSans-Oblique-946"/>
      <use transform="translate(63.818359 0.390625)" xlink:href="#DejaVuSans-61"/>
      <use transform="translate(147.607422 0.390625)" xlink:href="#DejaVuSans-54"/>
     </g>
    </g>
   </g>
  </g>
  <g id="axes_3">
   <g id="patch_13">
    <path d="M 47.675 462.2 
L 350.6 462.2 
L 350.6 257.4 
L 47.675 257.4 
z
" style="fill:#ffffff;"/>
   </g>
   <g id="matplotlib.axis_5">
    <g id="xtick_12">
     <g id="line2d_36">
      <g>
       <use style="stroke:#000000;stroke-width:0.8;" x="63.49944" xlink:href="#m0bdd6a3e3d" y="462.2"/>
      </g>
     </g>
     <g id="text_31">
      <!-- 0 -->
      <g transform="translate(60.31819 476.798437)scale(0.1 -0.1)">
       <use xlink:href="#DejaVuSans-48"/>
      </g>
     </g>
    </g>
    <g id="xtick_13">
     <g id="line2d_37">
      <g>
       <use style="stroke:#000000;stroke-width:0.8;" x="199.1375" xlink:href="#m0bdd6a3e3d" y="462.2"/>
      </g>
     </g>
     <g id="text_32">
      <!-- 3 -->
      <g transform="translate(195.95625 476.798437)scale(0.1 -0.1)">
       <use xlink:href="#DejaVuSans-51"/>
      </g>
     </g>
    </g>
    <g id="xtick_14">
     <g id="line2d_38">
      <g>
       <use style="stroke:#000000;stroke-width:0.8;" x="334.77556" xlink:href="#m0bdd6a3e3d" y="462.2"/>
      </g>
     </g>
     <g id="text_33">
      <!-- 6 -->
      <g transform="translate(331.59431 476.798437)scale(0.1 -0.1)">
       <use xlink:href="#DejaVuSans-54"/>
      </g>
     </g>
    </g>
    <g id="text_34">
     <!-- (c) Spectral efficiency (b/Hz/s) -->
     <defs>
      <path d="M 53.515625 70.515625 
L 53.515625 60.890625 
Q 47.90625 63.578125 42.921875 64.890625 
Q 37.9375 66.21875 33.296875 66.21875 
Q 25.25 66.21875 20.875 63.09375 
Q 16.5 59.96875 16.5 54.203125 
Q 16.5 49.359375 19.40625 46.890625 
Q 22.3125 44.4375 30.421875 42.921875 
L 36.375 41.703125 
Q 47.40625 39.59375 52.65625 34.296875 
Q 57.90625 29 57.90625 20.125 
Q 57.90625 9.515625 50.796875 4.046875 
Q 43.703125 -1.421875 29.984375 -1.421875 
Q 24.8125 -1.421875 18.96875 -0.25 
Q 13.140625 0.921875 6.890625 3.21875 
L 6.890625 13.375 
Q 12.890625 10.015625 18.65625 8.296875 
Q 24.421875 6.59375 29.984375 6.59375 
Q 38.421875 6.59375 43.015625 9.90625 
Q 47.609375 13.234375 47.609375 19.390625 
Q 47.609375 24.75 44.3125 27.78125 
Q 41.015625 30.8125 33.5 32.328125 
L 27.484375 33.5 
Q 16.453125 35.6875 11.515625 40.375 
Q 6.59375 45.0625 6.59375 53.421875 
Q 6.59375 63.09375 13.40625 68.65625 
Q 20.21875 74.21875 32.171875 74.21875 
Q 37.3125 74.21875 42.625 73.28125 
Q 47.953125 72.359375 53.515625 70.515625 
z
" id="DejaVuSans-83"/>
      <path d="M 37.109375 75.984375 
L 37.109375 68.5 
L 28.515625 68.5 
Q 23.6875 68.5 21.796875 66.546875 
Q 19.921875 64.59375 19.921875 59.515625 
L 19.921875 54.6875 
L 34.71875 54.6875 
L 34.71875 47.703125 
L 19.921875 47.703125 
L 19.921875 0 
L 10.890625 0 
L 10.890625 47.703125 
L 2.296875 47.703125 
L 2.296875 54.6875 
L 10.890625 54.6875 
L 10.890625 58.5 
Q 10.890625 67.625 15.140625 71.796875 
Q 19.390625 75.984375 28.609375 75.984375 
z
" id="DejaVuSans-102"/>
      <path d="M 25.390625 72.90625 
L 33.6875 72.90625 
L 8.296875 -9.28125 
L 0 -9.28125 
z
" id="DejaVuSans-47"/>
      <path d="M 9.8125 72.90625 
L 19.671875 72.90625 
L 19.671875 43.015625 
L 55.515625 43.015625 
L 55.515625 72.90625 
L 65.375 72.90625 
L 65.375 0 
L 55.515625 0 
L 55.515625 34.71875 
L 19.671875 34.71875 
L 19.671875 0 
L 9.8125 0 
z
" id="DejaVuSans-72"/>
      <path d="M 5.515625 54.6875 
L 48.1875 54.6875 
L 48.1875 46.484375 
L 14.40625 7.171875 
L 48.1875 7.171875 
L 48.1875 0 
L 4.296875 0 
L 4.296875 8.203125 
L 38.09375 47.515625 
L 5.515625 47.515625 
z
" id="DejaVuSans-122"/>
     </defs>
     <g transform="translate(123.564844 490.476562)scale(0.1 -0.1)">
      <use xlink:href="#DejaVuSans-40"/>
      <use x="39.013672" xlink:href="#DejaVuSans-99"/>
      <use x="93.994141" xlink:href="#DejaVuSans-41"/>
      <use x="133.007812" xlink:href="#DejaVuSans-32"/>
      <use x="164.794922" xlink:href="#DejaVuSans-83"/>
      <use x="228.271484" xlink:href="#DejaVuSans-112"/>
      <use x="291.748047" xlink:href="#DejaVuSans-101"/>
      <use x="353.271484" xlink:href="#DejaVuSans-99"/>
      <use x="408.251953" xlink:href="#DejaVuSans-116"/>
      <use x="447.460938" xlink:href="#DejaVuSans-114"/>
      <use x="488.574219" xlink:href="#DejaVuSans-97"/>
      <use x="549.853516" xlink:href="#DejaVuSans-108"/>
      <use x="577.636719" xlink:href="#DejaVuSans-32"/>
      <use x="609.423828" xlink:href="#DejaVuSans-101"/>
      <use x="670.947266" xlink:href="#DejaVuSans-102"/>
      <use x="706.152344" xlink:href="#DejaVuSans-102"/>
      <use x="741.357422" xlink:href="#DejaVuSans-105"/>
      <use x="769.140625" xlink:href="#DejaVuSans-99"/>
      <use x="824.121094" xlink:href="#DejaVuSans-105"/>
      <use x="851.904297" xlink:href="#DejaVuSans-101"/>
      <use x="913.427734" xlink:href="#DejaVuSans-110"/>
      <use x="976.806641" xlink:href="#DejaVuSans-99"/>
      <use x="1031.787109" xlink:href="#DejaVuSans-121"/>
      <use x="1090.966797" xlink:href="#DejaVuSans-32"/>
      <use x="1122.753906" xlink:href="#DejaVuSans-40"/>
      <use x="1161.767578" xlink:href="#DejaVuSans-98"/>
      <use x="1225.244141" xlink:href="#DejaVuSans-47"/>
      <use x="1258.935547" xlink:href="#DejaVuSans-72"/>
      <use x="1334.130859" xlink:href="#DejaVuSans-122"/>
      <use x="1386.621094" xlink:href="#DejaVuSans-47"/>
      <use x="1420.3125" xlink:href="#DejaVuSans-115"/>
      <use x="1472.412109" xlink:href="#DejaVuSans-41"/>
     </g>
    </g>
   </g>
   <g id="matplotlib.axis_6">
    <g id="ytick_13">
     <g id="line2d_39">
      <g>
       <use style="stroke:#000000;stroke-width:0.8;" x="47.675" xlink:href="#me100b05e94" y="452.890909"/>
      </g>
     </g>
     <g id="text_35">
      <!-- 0.0 -->
      <g transform="translate(24.771875 456.690128)scale(0.1 -0.1)">
       <use xlink:href="#DejaVuSans-48"/>
       <use x="63.623047" xlink:href="#DejaVuSans-46"/>
       <use x="95.410156" xlink:href="#DejaVuSans-48"/>
      </g>
     </g>
    </g>
    <g id="ytick_14">
     <g id="line2d_40">
      <g>
       <use style="stroke:#000000;stroke-width:0.8;" x="47.675" xlink:href="#me100b05e94" y="415.654545"/>
      </g>
     </g>
     <g id="text_36">
      <!-- 0.2 -->
      <g transform="translate(24.771875 419.453764)scale(0.1 -0.1)">
       <use xlink:href="#DejaVuSans-48"/>
       <use x="63.623047" xlink:href="#DejaVuSans-46"/>
       <use x="95.410156" xlink:href="#DejaVuSans-50"/>
      </g>
     </g>
    </g>
    <g id="ytick_15">
     <g id="line2d_41">
      <g>
       <use style="stroke:#000000;stroke-width:0.8;" x="47.675" xlink:href="#me100b05e94" y="378.418182"/>
      </g>
     </g>
     <g id="text_37">
      <!-- 0.4 -->
      <g transform="translate(24.771875 382.217401)scale(0.1 -0.1)">
       <use xlink:href="#DejaVuSans-48"/>
       <use x="63.623047" xlink:href="#DejaVuSans-46"/>
       <use x="95.410156" xlink:href="#DejaVuSans-52"/>
      </g>
     </g>
    </g>
    <g id="ytick_16">
     <g id="line2d_42">
      <g>
       <use style="stroke:#000000;stroke-width:0.8;" x="47.675" xlink:href="#me100b05e94" y="341.181818"/>
      </g>
     </g>
     <g id="text_38">
      <!-- 0.6 -->
      <g transform="translate(24.771875 344.981037)scale(0.1 -0.1)">
       <use xlink:href="#DejaVuSans-48"/>
       <use x="63.623047" xlink:href="#DejaVuSans-46"/>
       <use x="95.410156" xlink:href="#DejaVuSans-54"/>
      </g>
     </g>
    </g>
    <g id="ytick_17">
     <g id="line2d_43">
      <g>
       <use style="stroke:#000000;stroke-width:0.8;" x="47.675" xlink:href="#me100b05e94" y="303.945455"/>
      </g>
     </g>
     <g id="text_39">
      <!-- 0.8 -->
      <g transform="translate(24.771875 307.744673)scale(0.1 -0.1)">
       <use xlink:href="#DejaVuSans-48"/>
       <use x="63.623047" xlink:href="#DejaVuSans-46"/>
       <use x="95.410156" xlink:href="#DejaVuSans-56"/>
      </g>
     </g>
    </g>
    <g id="ytick_18">
     <g id="line2d_44">
      <g>
       <use style="stroke:#000000;stroke-width:0.8;" x="47.675" xlink:href="#me100b05e94" y="266.709091"/>
      </g>
     </g>
     <g id="text_40">
      <!-- 1.0 -->
      <g transform="translate(24.771875 270.50831)scale(0.1 -0.1)">
       <use xlink:href="#DejaVuSans-49"/>
       <use x="63.623047" xlink:href="#DejaVuSans-46"/>
       <use x="95.410156" xlink:href="#DejaVuSans-48"/>
      </g>
     </g>
    </g>
    <g id="text_41">
     <!-- CDF -->
     <g transform="translate(18.692187 370.017187)rotate(-90)scale(0.1 -0.1)">
      <use xlink:href="#DejaVuSans-67"/>
      <use x="69.824219" xlink:href="#DejaVuSans-68"/>
      <use x="146.826172" xlink:href="#DejaVuSans-70"/>
     </g>
    </g>
   </g>
   <g id="line2d_45">
    <path clip-path="url(#p56b7358306)" d="M 63.49944 452.890909 
L 108.712127 452.890909 
L 153.924813 452.890909 
L 199.1375 452.890909 
L 244.350187 434.272727 
L 289.562873 352.352727 
L 334.77556 266.709091 
L 379.988246 266.709091 
" style="fill:none;stroke:#1f77b4;stroke-linecap:square;stroke-width:1.5;"/>
   </g>
   <g id="line2d_46">
    <path clip-path="url(#p56b7358306)" d="M 63.49944 452.890909 
L 108.712127 452.890909 
L 153.924813 452.890909 
L 199.1375 452.890909 
L 244.350187 441.72 
L 289.562873 374.694545 
L 334.77556 266.709091 
L 379.988246 266.709091 
" style="fill:none;stroke:#ff7f0e;stroke-linecap:square;stroke-width:1.5;"/>
   </g>
   <g id="line2d_47">
    <path clip-path="url(#p56b7358306)" d="M 63.49944 452.890909 
L 108.712127 452.890909 
L 153.924813 452.890909 
L 199.1375 452.890909 
L 244.350187 449.167273 
L 289.562873 389.589091 
L 334.77556 266.709091 
L 379.988246 266.709091 
" style="fill:none;stroke:#2ca02c;stroke-linecap:square;stroke-width:1.5;"/>
   </g>
   <g id="patch_14">
    <path d="M 47.675 462.2 
L 47.675 257.4 
" style="fill:none;stroke:#000000;stroke-linecap:square;stroke-linejoin:miter;stroke-width:0.8;"/>
   </g>
   <g id="patch_15">
    <path d="M 350.6 462.2 
L 350.6 257.4 
" style="fill:none;stroke:#000000;stroke-linecap:square;stroke-linejoin:miter;stroke-width:0.8;"/>
   </g>
   <g id="patch_16">
    <path d="M 47.675 462.2 
L 350.6 462.2 
" style="fill:none;stroke:#000000;stroke-linecap:square;stroke-linejoin:miter;stroke-width:0.8;"/>
   </g>
   <g id="patch_17">
    <path d="M 47.675 257.4 
L 350.6 257.4 
" style="fill:none;stroke:#000000;stroke-linecap:square;stroke-linejoin:miter;stroke-width:0.8;"/>
   </g>
  </g>
  <g id="axes_4">
   <g id="patch_18">
    <path d="M 398.275 462.2 
L 701.2 462.2 
L 701.2 257.4 
L 398.275 257.4 
z
" style="fill:#ffffff;"/>
   </g>
   <g id="matplotlib.axis_7">
    <g id="xtick_15">
     <g id="line2d_48">
      <g>
       <use style="stroke:#000000;stroke-width:0.8;" x="399.360377" xlink:href="#m0bdd6a3e3d" y="462.2"/>
      </g>
     </g>
     <g id="text_42">
      <!-- 0 -->
      <g transform="translate(396.179127 476.798437)scale(0.1 -0.1)">
       <use xlink:href="#DejaVuSans-48"/>
      </g>
     </g>
    </g>
    <g id="xtick_16">
     <g id="line2d_49">
      <g>
       <use style="stroke:#000000;stroke-width:0.8;" x="453.629252" xlink:href="#m0bdd6a3e3d" y="462.2"/>
      </g>
     </g>
     <g id="text_43">
      <!-- 20 -->
      <g transform="translate(447.266752 476.798437)scale(0.1 -0.1)">
       <use xlink:href="#DejaVuSans-50"/>
       <use x="63.623047" xlink:href="#DejaVuSans-48"/>
      </g>
     </g>
    </g>
    <g id="xtick_17">
     <g id="line2d_50">
      <g>
       <use style="stroke:#000000;stroke-width:0.8;" x="507.898126" xlink:href="#m0bdd6a3e3d" y="462.2"/>
      </g>
     </g>
     <g id="text_44">
      <!-- 40 -->
      <g transform="translate(501.535626 476.798437)scale(0.1 -0.1)">
       <use xlink:href="#DejaVuSans-52"/>
       <use x="63.623047" xlink:href="#DejaVuSans-48"/>
      </g>
     </g>
    </g>
    <g id="xtick_18">
     <g id="line2d_51">
      <g>
       <use style="stroke:#000000;stroke-width:0.8;" x="562.167" xlink:href="#m0bdd6a3e3d" y="462.2"/>
      </g>
     </g>
     <g id="text_45">
      <!-- 60 -->
      <g transform="translate(555.8045 476.798437)scale(0.1 -0.1)">
       <use xlink:href="#DejaVuSans-54"/>
       <use x="63.623047" xlink:href="#DejaVuSans-48"/>
      </g>
     </g>
    </g>
    <g id="xtick_19">
     <g id="line2d_52">
      <g>
       <use style="stroke:#000000;stroke-width:0.8;" x="616.435874" xlink:href="#m0bdd6a3e3d" y="462.2"/>
      </g>
     </g>
     <g id="text_46">
      <!-- 80 -->
      <g transform="translate(610.073374 476.798437)scale(0.1 -0.1)">
       <use xlink:href="#DejaVuSans-56"/>
       <use x="63.623047" xlink:href="#DejaVuSans-48"/>
      </g>
     </g>
    </g>
    <g id="xtick_20">
     <g id="line2d_53">
      <g>
       <use style="stroke:#000000;stroke-width:0.8;" x="670.704749" xlink:href="#m0bdd6a3e3d" y="462.2"/>
      </g>
     </g>
     <g id="text_47">
      <!-- 100 -->
      <g transform="translate(661.160999 476.798437)scale(0.1 -0.1)">
       <use xlink:href="#DejaVuSans-49"/>
       <use x="63.623047" xlink:href="#DejaVuSans-48"/>
       <use x="127.246094" xlink:href="#DejaVuSans-48"/>
      </g>
     </g>
    </g>
    <g id="text_48">
     <!-- (d) Bit rate (Mbps/user) -->
     <defs>
      <path d="M 45.40625 46.390625 
L 45.40625 75.984375 
L 54.390625 75.984375 
L 54.390625 0 
L 45.40625 0 
L 45.40625 8.203125 
Q 42.578125 3.328125 38.25 0.953125 
Q 33.9375 -1.421875 27.875 -1.421875 
Q 17.96875 -1.421875 11.734375 6.484375 
Q 5.515625 14.40625 5.515625 27.296875 
Q 5.515625 40.1875 11.734375 48.09375 
Q 17.96875 56 27.875 56 
Q 33.9375 56 38.25 53.625 
Q 42.578125 51.265625 45.40625 46.390625 
z
M 14.796875 27.296875 
Q 14.796875 17.390625 18.875 11.75 
Q 22.953125 6.109375 30.078125 6.109375 
Q 37.203125 6.109375 41.296875 11.75 
Q 45.40625 17.390625 45.40625 27.296875 
Q 45.40625 37.203125 41.296875 42.84375 
Q 37.203125 48.484375 30.078125 48.484375 
Q 22.953125 48.484375 18.875 42.84375 
Q 14.796875 37.203125 14.796875 27.296875 
z
" id="DejaVuSans-100"/>
      <path d="M 19.671875 34.8125 
L 19.671875 8.109375 
L 35.5 8.109375 
Q 43.453125 8.109375 47.28125 11.40625 
Q 51.125 14.703125 51.125 21.484375 
Q 51.125 28.328125 47.28125 31.5625 
Q 43.453125 34.8125 35.5 34.8125 
z
M 19.671875 64.796875 
L 19.671875 42.828125 
L 34.28125 42.828125 
Q 41.5 42.828125 45.03125 45.53125 
Q 48.578125 48.25 48.578125 53.8125 
Q 48.578125 59.328125 45.03125 62.0625 
Q 41.5 64.796875 34.28125 64.796875 
z
M 9.8125 72.90625 
L 35.015625 72.90625 
Q 46.296875 72.90625 52.390625 68.21875 
Q 58.5 63.53125 58.5 54.890625 
Q 58.5 48.1875 55.375 44.234375 
Q 52.25 40.28125 46.1875 39.3125 
Q 53.46875 37.75 57.5 32.78125 
Q 61.53125 27.828125 61.53125 20.40625 
Q 61.53125 10.640625 54.890625 5.3125 
Q 48.25 0 35.984375 0 
L 9.8125 0 
z
" id="DejaVuSans-66"/>
      <path d="M 9.8125 72.90625 
L 24.515625 72.90625 
L 43.109375 23.296875 
L 61.8125 72.90625 
L 76.515625 72.90625 
L 76.515625 0 
L 66.890625 0 
L 66.890625 64.015625 
L 48.09375 14.015625 
L 38.1875 14.015625 
L 19.390625 64.015625 
L 19.390625 0 
L 9.8125 0 
z
" id="DejaVuSans-77"/>
      <path d="M 8.5 21.578125 
L 8.5 54.6875 
L 17.484375 54.6875 
L 17.484375 21.921875 
Q 17.484375 14.15625 20.5 10.265625 
Q 23.53125 6.390625 29.59375 6.390625 
Q 36.859375 6.390625 41.078125 11.03125 
Q 45.3125 15.671875 45.3125 23.6875 
L 45.3125 54.6875 
L 54.296875 54.6875 
L 54.296875 0 
L 45.3125 0 
L 45.3125 8.40625 
Q 42.046875 3.421875 37.71875 1 
Q 33.40625 -1.421875 27.6875 -1.421875 
Q 18.265625 -1.421875 13.375 4.4375 
Q 8.5 10.296875 8.5 21.578125 
z
M 31.109375 56 
z
" id="DejaVuSans-117"/>
     </defs>
     <g transform="translate(491.2 490.476562)scale(0.1 -0.1)">
      <use xlink:href="#DejaVuSans-40"/>
      <use x="39.013672" xlink:href="#DejaVuSans-100"/>
      <use x="102.490234" xlink:href="#DejaVuSans-41"/>
      <use x="141.503906" xlink:href="#DejaVuSans-32"/>
      <use x="173.291016" xlink:href="#DejaVuSans-66"/>
      <use x="241.894531" xlink:href="#DejaVuSans-105"/>
      <use x="269.677734" xlink:href="#DejaVuSans-116"/>
      <use x="308.886719" xlink:href="#DejaVuSans-32"/>
      <use x="340.673828" xlink:href="#DejaVuSans-114"/>
      <use x="381.787109" xlink:href="#DejaVuSans-97"/>
      <use x="443.066406" xlink:href="#DejaVuSans-116"/>
      <use x="482.275391" xlink:href="#DejaVuSans-101"/>
      <use x="543.798828" xlink:href="#DejaVuSans-32"/>
      <use x="575.585938" xlink:href="#DejaVuSans-40"/>
      <use x="614.599609" xlink:href="#DejaVuSans-77"/>
      <use x="700.878906" xlink:href="#DejaVuSans-98"/>
      <use x="764.355469" xlink:href="#DejaVuSans-112"/>
      <use x="827.832031" xlink:href="#DejaVuSans-115"/>
      <use x="879.931641" xlink:href="#DejaVuSans-47"/>
      <use x="913.623047" xlink:href="#DejaVuSans-117"/>
      <use x="977.001953" xlink:href="#DejaVuSans-115"/>
      <use x="1029.101562" xlink:href="#DejaVuSans-101"/>
      <use x="1090.625" xlink:href="#DejaVuSans-114"/>
      <use x="1131.738281" xlink:href="#DejaVuSans-41"/>
     </g>
    </g>
   </g>
   <g id="matplotlib.axis_8">
    <g id="ytick_19">
     <g id="line2d_54">
      <g>
       <use style="stroke:#000000;stroke-width:0.8;" x="398.275" xlink:href="#me100b05e94" y="452.890909"/>
      </g>
     </g>
     <g id="text_49">
      <!-- 0.0 -->
      <g transform="translate(375.371875 456.690128)scale(0.1 -0.1)">
       <use xlink:href="#DejaVuSans-48"/>
       <use x="63.623047" xlink:href="#DejaVuSans-46"/>
       <use x="95.410156" xlink:href="#DejaVuSans-48"/>
      </g>
     </g>
    </g>
    <g id="ytick_20">
     <g id="line2d_55">
      <g>
       <use style="stroke:#000000;stroke-width:0.8;" x="398.275" xlink:href="#me100b05e94" y="415.654545"/>
      </g>
     </g>
     <g id="text_50">
      <!-- 0.2 -->
      <g transform="translate(375.371875 419.453764)scale(0.1 -0.1)">
       <use xlink:href="#DejaVuSans-48"/>
       <use x="63.623047" xlink:href="#DejaVuSans-46"/>
       <use x="95.410156" xlink:href="#DejaVuSans-50"/>
      </g>
     </g>
    </g>
    <g id="ytick_21">
     <g id="line2d_56">
      <g>
       <use style="stroke:#000000;stroke-width:0.8;" x="398.275" xlink:href="#me100b05e94" y="378.418182"/>
      </g>
     </g>
     <g id="text_51">
      <!-- 0.4 -->
      <g transform="translate(375.371875 382.217401)scale(0.1 -0.1)">
       <use xlink:href="#DejaVuSans-48"/>
       <use x="63.623047" xlink:href="#DejaVuSans-46"/>
       <use x="95.410156" xlink:href="#DejaVuSans-52"/>
      </g>
     </g>
    </g>
    <g id="ytick_22">
     <g id="line2d_57">
      <g>
       <use style="stroke:#000000;stroke-width:0.8;" x="398.275" xlink:href="#me100b05e94" y="341.181818"/>
      </g>
     </g>
     <g id="text_52">
      <!-- 0.6 -->
      <g transform="translate(375.371875 344.981037)scale(0.1 -0.1)">
       <use xlink:href="#DejaVuSans-48"/>
       <use x="63.623047" xlink:href="#DejaVuSans-46"/>
       <use x="95.410156" xlink:href="#DejaVuSans-54"/>
      </g>
     </g>
    </g>
    <g id="ytick_23">
     <g id="line2d_58">
      <g>
       <use style="stroke:#000000;stroke-width:0.8;" x="398.275" xlink:href="#me100b05e94" y="303.945455"/>
      </g>
     </g>
     <g id="text_53">
      <!-- 0.8 -->
      <g transform="translate(375.371875 307.744673)scale(0.1 -0.1)">
       <use xlink:href="#DejaVuSans-48"/>
       <use x="63.623047" xlink:href="#DejaVuSans-46"/>
       <use x="95.410156" xlink:href="#DejaVuSans-56"/>
      </g>
     </g>
    </g>
    <g id="ytick_24">
     <g id="line2d_59">
      <g>
       <use style="stroke:#000000;stroke-width:0.8;" x="398.275" xlink:href="#me100b05e94" y="266.709091"/>
      </g>
     </g>
     <g id="text_54">
      <!-- 1.0 -->
      <g transform="translate(375.371875 270.50831)scale(0.1 -0.1)">
       <use xlink:href="#DejaVuSans-49"/>
       <use x="63.623047" xlink:href="#DejaVuSans-46"/>
       <use x="95.410156" xlink:href="#DejaVuSans-48"/>
      </g>
     </g>
    </g>
    <g id="text_55">
     <!-- CDF -->
     <g transform="translate(369.292188 370.017187)rotate(-90)scale(0.1 -0.1)">
      <use xlink:href="#DejaVuSans-67"/>
      <use x="69.824219" xlink:href="#DejaVuSans-68"/>
      <use x="146.826172" xlink:href="#DejaVuSans-70"/>
     </g>
    </g>
   </g>
   <g id="line2d_60">
    <path clip-path="url(#p44785d0e00)" d="M 399.360377 437.996364 
L 410.051346 437.996364 
L 410.187018 434.272727 
L 412.384907 434.272727 
L 412.520579 430.549091 
L 414.962679 430.549091 
L 415.098351 426.825455 
L 419.304189 426.825455 
L 419.439861 423.101818 
L 420.443835 423.101818 
L 420.579507 419.378182 
L 423.10301 419.378182 
L 423.238682 415.654545 
L 423.83564 415.654545 
L 423.998446 408.207273 
L 424.215522 408.207273 
L 424.351194 404.483636 
L 424.405463 404.483636 
L 424.541135 400.76 
L 424.866748 400.76 
L 425.029555 393.312727 
L 429.968023 393.312727 
L 430.103695 389.589091 
L 435.1507 389.589091 
L 435.286372 385.865455 
L 435.476313 385.865455 
L 435.611985 382.141818 
L 437.321455 382.141818 
L 437.457127 378.418182 
L 437.647068 378.418182 
L 437.78274 374.694545 
L 444.023661 374.694545 
L 444.159333 370.970909 
L 444.213602 370.970909 
L 444.349274 367.247273 
L 451.214287 367.247273 
L 451.349959 363.523636 
L 452.001185 363.523636 
L 452.136858 359.8 
L 454.144806 359.8 
L 454.280478 356.076364 
L 455.718603 356.076364 
L 455.854276 352.352727 
L 456.071351 352.352727 
L 456.207023 348.629091 
L 460.412861 348.629091 
L 460.548533 344.905455 
L 462.285137 344.905455 
L 462.420809 341.181818 
L 464.455892 341.181818 
L 464.618699 333.734545 
L 468.41752 333.734545 
L 468.553192 330.010909 
L 508.522218 330.010909 
L 508.65789 326.287273 
L 529.768482 326.287273 
L 529.904154 322.563636 
L 532.291985 322.563636 
L 532.427657 318.84 
L 532.861808 318.84 
L 532.99748 315.116364 
L 534.896891 315.116364 
L 535.059697 307.669091 
L 537.881679 307.669091 
L 538.017351 303.945455 
L 538.424368 303.945455 
L 538.587174 296.498182 
L 539.265535 296.498182 
L 539.401207 292.774545 
L 553.755325 292.774545 
L 553.890997 289.050909 
L 562.139866 289.050909 
L 562.302672 281.603636 
L 563.605125 281.603636 
L 563.740797 277.88 
L 565.341729 277.88 
L 565.477401 274.156364 
L 566.02009 274.156364 
L 566.155762 270.432727 
L 566.888392 270.432727 
L 567.024064 266.709091 
L 721 266.709091 
L 721 266.709091 
" style="fill:none;stroke:#1f77b4;stroke-linecap:square;stroke-width:1.5;"/>
   </g>
   <g id="line2d_61">
    <path clip-path="url(#p44785d0e00)" d="M 399.360377 434.272727 
L 410.81111 434.272727 
L 410.946782 430.549091 
L 411.163858 430.549091 
L 411.29953 426.825455 
L 413.877301 426.825455 
L 414.012974 423.101818 
L 420.091087 423.101818 
L 420.253894 415.654545 
L 420.308163 415.654545 
L 420.443835 411.930909 
L 424.486866 411.930909 
L 424.649673 404.483636 
L 424.703942 404.483636 
L 424.866748 397.036364 
L 424.948152 397.036364 
L 425.083824 393.312727 
L 454.17194 393.312727 
L 454.307613 389.589091 
L 464.103144 389.589091 
L 464.238817 385.865455 
L 464.862909 385.865455 
L 464.998581 382.141818 
L 470.371199 382.141818 
L 470.506872 378.418182 
L 479.569774 378.418182 
L 479.73258 370.970909 
L 482.418889 370.970909 
L 482.554562 367.247273 
L 486.054904 367.247273 
L 486.190576 363.523636 
L 496.474528 363.523636 
L 496.6102 359.8 
L 505.727371 359.8 
L 505.863043 356.076364 
L 519.077514 356.076364 
L 519.213186 352.352727 
L 522.632125 352.352727 
L 522.767797 348.629091 
L 544.095465 348.629091 
L 544.231137 344.905455 
L 558.259641 344.905455 
L 558.395313 341.181818 
L 559.182212 341.181818 
L 559.317884 337.458182 
L 569.086282 337.458182 
L 569.221954 333.734545 
L 569.249088 333.734545 
L 569.38476 330.010909 
L 574.296094 330.010909 
L 574.431766 326.287273 
L 574.513169 326.287273 
L 574.648841 322.563636 
L 576.629655 322.563636 
L 576.792462 315.116364 
L 580.537014 315.116364 
L 580.672686 311.392727 
L 582.137946 311.392727 
L 582.273618 307.669091 
L 582.355021 307.669091 
L 582.490694 303.945455 
L 584.932793 303.945455 
L 585.068465 300.221818 
L 605.690637 300.221818 
L 605.826309 296.498182 
L 608.892501 296.498182 
L 609.028173 292.774545 
L 615.866051 292.774545 
L 616.001723 289.050909 
L 617.521252 289.050909 
L 617.656924 285.327273 
L 618.226747 285.327273 
L 618.389554 277.88 
L 618.443823 277.88 
L 618.579495 274.156364 
L 620.316099 274.156364 
L 620.451771 270.432727 
L 621.754224 270.432727 
L 621.889896 266.709091 
L 721 266.709091 
L 721 266.709091 
" style="fill:none;stroke:#ff7f0e;stroke-linecap:square;stroke-width:1.5;"/>
   </g>
   <g id="line2d_62">
    <path clip-path="url(#p44785d0e00)" d="M 399.360377 430.549091 
L 414.501393 430.549091 
L 414.637066 426.825455 
L 420.688045 426.825455 
L 420.823717 423.101818 
L 424.32406 423.101818 
L 424.459732 419.378182 
L 424.676807 419.378182 
L 424.812479 415.654545 
L 424.893883 415.654545 
L 425.029555 411.930909 
L 425.24663 411.930909 
L 425.382303 408.207273 
L 435.286372 408.207273 
L 435.422044 404.483636 
L 453.629252 404.483636 
L 453.764924 400.76 
L 464.672968 400.76 
L 464.80864 397.036364 
L 467.359277 397.036364 
L 467.494949 393.312727 
L 469.448629 393.312727 
L 469.584301 389.589091 
L 471.483711 389.589091 
L 471.619383 385.865455 
L 479.624042 385.865455 
L 479.759715 382.141818 
L 480.410941 382.141818 
L 480.546613 378.418182 
L 480.600882 378.418182 
L 480.736554 374.694545 
L 481.93047 374.694545 
L 482.066142 370.970909 
L 485.78356 370.970909 
L 485.919232 367.247273 
L 505.727371 367.247273 
L 505.863043 363.523636 
L 519.077514 363.523636 
L 519.213186 359.8 
L 558.205372 359.8 
L 558.341044 356.076364 
L 558.693792 356.076364 
L 558.829464 352.352727 
L 560.294724 352.352727 
L 560.430396 348.629091 
L 570.632944 348.629091 
L 570.768617 344.905455 
L 572.342414 344.905455 
L 572.478086 341.181818 
L 575.19153 341.181818 
L 575.327202 337.458182 
L 575.978429 337.458182 
L 576.114101 333.734545 
L 577.606495 333.734545 
L 577.742167 330.010909 
L 579.017486 330.010909 
L 579.153158 326.287273 
L 586.533725 326.287273 
L 586.669397 322.563636 
L 602.488774 322.563636 
L 602.624446 318.84 
L 602.760118 318.84 
L 602.89579 315.116364 
L 606.803149 315.116364 
L 606.965956 307.669091 
L 611.958692 307.669091 
L 612.094364 303.945455 
L 622.486854 303.945455 
L 622.622526 300.221818 
L 644.085866 300.221818 
L 644.221538 296.498182 
L 644.682823 296.498182 
L 644.818496 292.774545 
L 644.84563 292.774545 
L 644.981302 289.050909 
L 645.116974 289.050909 
L 645.252647 285.327273 
L 645.523991 285.327273 
L 645.659663 281.603636 
L 645.741066 281.603636 
L 645.876739 277.88 
L 646.527965 277.88 
L 646.663637 274.156364 
L 646.826444 274.156364 
L 646.989251 266.709091 
L 721 266.709091 
L 721 266.709091 
" style="fill:none;stroke:#2ca02c;stroke-linecap:square;stroke-width:1.5;"/>
   </g>
   <g id="patch_19">
    <path d="M 398.275 462.2 
L 398.275 257.4 
" style="fill:none;stroke:#000000;stroke-linecap:square;stroke-linejoin:miter;stroke-width:0.8;"/>
   </g>
   <g id="patch_20">
    <path d="M 701.2 462.2 
L 701.2 257.4 
" style="fill:none;stroke:#000000;stroke-linecap:square;stroke-linejoin:miter;stroke-width:0.8;"/>
   </g>
   <g id="patch_21">
    <path d="M 398.275 462.2 
L 701.2 462.2 
" style="fill:none;stroke:#000000;stroke-linecap:square;stroke-linejoin:miter;stroke-width:0.8;"/>
   </g>
   <g id="patch_22">
    <path d="M 398.275 257.4 
L 701.2 257.4 
" style="fill:none;stroke:#000000;stroke-linecap:square;stroke-linejoin:miter;stroke-width:0.8;"/>
   </g>
  </g>
 </g>
 <defs>
  <clipPath id="p1a9408e2d9">
   <rect height="204.8" width="302.925" x="47.675" y="10.8"/>
  </clipPath>
  <clipPath id="pe0b6a5cc99">
   <rect height="204.8" width="302.925" x="398.275" y="10.8"/>
  </clipPath>
  <clipPath id="p56b7358306">
   <rect height="204.8" width="302.925" x="47.675" y="257.4"/>
  </clipPath>
  <clipPath id="p44785d0e00">
   <rect height="204.8" width="302.925" x="398.275" y="257.4"/>
  </clipPath>
 </defs>
</svg>
