<?xml version="1.0" encoding="utf-8" standalone="no"?>
<!DOCTYPE svg PUBLIC "-//W3C//DTD SVG 1.1//EN"
  "http://www.w3.org/Graphics/SVG/1.1/DTD/svg11.dtd">
<!-- Created with matplotlib (https://matplotlib.org/) -->
<svg height="576pt" version="1.1" viewBox="0 0 432 576" width="432pt" xmlns="http://www.w3.org/2000/svg" xmlns:xlink="http://www.w3.org/1999/xlink">
 <defs>
  <style type="text/css">
*{stroke-linecap:butt;stroke-linejoin:round;white-space:pre;}
  </style>
 </defs>
 <g id="figure_1">
  <g id="patch_1">
   <path d="M 0 576 
L 432 576 
L 432 0 
L 0 0 
z
" style="fill:#ffffff;"/>
  </g>
  <g id="axes_1">
   <g id="LineCollection_1">
    <path clip-path="url(#pac4c3317b0)" d="M 30.70113 333.780066 
L 70.700626 321.801139 
" style="fill:none;stroke:#000000;stroke-width:2;"/>
    <path clip-path="url(#pac4c3317b0)" d="M 30.70113 333.780066 
L 61.544115 400.995158 
" style="fill:none;stroke:#000000;stroke-width:2;"/>
    <path clip-path="url(#pac4c3317b0)" d="M 30.70113 333.780066 
L 46.604544 291.853821 
" style="fill:none;stroke:#000000;stroke-width:2;"/>
    <path clip-path="url(#pac4c3317b0)" d="M 264.915046 495.495585 
L 221.060177 490.837113 
" style="fill:none;stroke:#000000;stroke-width:2;"/>
    <path clip-path="url(#pac4c3317b0)" d="M 264.915046 495.495585 
L 297.203796 507.474512 
" style="fill:none;stroke:#000000;stroke-width:2;"/>
    <path clip-path="url(#pac4c3317b0)" d="M 264.915046 495.495585 
L 220.096334 398.99867 
" style="fill:none;stroke:#000000;stroke-width:2;"/>
    <path clip-path="url(#pac4c3317b0)" d="M 298.16764 389.016231 
L 362.745139 328.456099 
" style="fill:none;stroke:#000000;stroke-width:2;"/>
    <path clip-path="url(#pac4c3317b0)" d="M 298.16764 389.016231 
L 336.239449 295.1813 
" style="fill:none;stroke:#000000;stroke-width:2;"/>
    <path clip-path="url(#pac4c3317b0)" d="M 298.16764 389.016231 
L 271.180028 412.974086 
" style="fill:none;stroke:#000000;stroke-width:2;"/>
    <path clip-path="url(#pac4c3317b0)" d="M 384.913535 216.652777 
L 401.29887 315.811675 
" style="fill:none;stroke:#000000;stroke-width:2;"/>
    <path clip-path="url(#pac4c3317b0)" d="M 384.913535 216.652777 
L 385.395456 112.169911 
" style="fill:none;stroke:#000000;stroke-width:2;"/>
    <path clip-path="url(#pac4c3317b0)" d="M 384.913535 216.652777 
L 336.239449 295.1813 
" style="fill:none;stroke:#000000;stroke-width:2;"/>
    <path clip-path="url(#pac4c3317b0)" d="M 384.913535 216.652777 
L 300.577248 241.941624 
" style="fill:none;stroke:#000000;stroke-width:2;"/>
    <path clip-path="url(#pac4c3317b0)" d="M 384.913535 216.652777 
L 291.420737 148.106693 
" style="fill:none;stroke:#000000;stroke-width:2;"/>
    <path clip-path="url(#pac4c3317b0)" d="M 149.253853 248.596583 
L 248.047789 232.62468 
" style="fill:none;stroke:#000000;stroke-width:2;"/>
    <path clip-path="url(#pac4c3317b0)" d="M 149.253853 248.596583 
L 208.048293 225.969721 
" style="fill:none;stroke:#000000;stroke-width:2;"/>
    <path clip-path="url(#pac4c3317b0)" d="M 149.253853 248.596583 
L 105.880905 253.255055 
" style="fill:none;stroke:#000000;stroke-width:2;"/>
    <path clip-path="url(#pac4c3317b0)" d="M 149.253853 248.596583 
L 126.603536 323.797627 
" style="fill:none;stroke:#000000;stroke-width:2;"/>
    <path clip-path="url(#pac4c3317b0)" d="M 248.047789 232.62468 
L 221.060177 146.775701 
" style="fill:none;stroke:#000000;stroke-width:2;"/>
    <path clip-path="url(#pac4c3317b0)" d="M 248.047789 232.62468 
L 208.048293 225.969721 
" style="fill:none;stroke:#000000;stroke-width:2;"/>
    <path clip-path="url(#pac4c3317b0)" d="M 248.047789 232.62468 
L 197.927939 296.512292 
" style="fill:none;stroke:#000000;stroke-width:2;"/>
    <path clip-path="url(#pac4c3317b0)" d="M 248.047789 232.62468 
L 300.577248 241.941624 
" style="fill:none;stroke:#000000;stroke-width:2;"/>
    <path clip-path="url(#pac4c3317b0)" d="M 166.12111 177.388515 
L 153.109226 148.772189 
" style="fill:none;stroke:#000000;stroke-width:2;"/>
    <path clip-path="url(#pac4c3317b0)" d="M 166.12111 177.388515 
L 208.048293 225.969721 
" style="fill:none;stroke:#000000;stroke-width:2;"/>
    <path clip-path="url(#pac4c3317b0)" d="M 166.12111 177.388515 
L 135.278125 177.388515 
" style="fill:none;stroke:#000000;stroke-width:2;"/>
    <path clip-path="url(#pac4c3317b0)" d="M 153.109226 148.772189 
L 195.036409 66.916186 
" style="fill:none;stroke:#000000;stroke-width:2;"/>
    <path clip-path="url(#pac4c3317b0)" d="M 362.745139 328.456099 
L 401.29887 315.811675 
" style="fill:none;stroke:#000000;stroke-width:2;"/>
    <path clip-path="url(#pac4c3317b0)" d="M 362.745139 328.456099 
L 271.661949 319.139155 
" style="fill:none;stroke:#000000;stroke-width:2;"/>
    <path clip-path="url(#pac4c3317b0)" d="M 156.482678 391.678215 
L 159.374207 376.371808 
" style="fill:none;stroke:#000000;stroke-width:2;"/>
    <path clip-path="url(#pac4c3317b0)" d="M 156.482678 391.678215 
L 113.10973 422.291029 
" style="fill:none;stroke:#000000;stroke-width:2;"/>
    <path clip-path="url(#pac4c3317b0)" d="M 156.482678 391.678215 
L 148.771931 418.298053 
" style="fill:none;stroke:#000000;stroke-width:2;"/>
    <path clip-path="url(#pac4c3317b0)" d="M 98.652081 283.867869 
L 77.92945 287.195349 
" style="fill:none;stroke:#000000;stroke-width:2;"/>
    <path clip-path="url(#pac4c3317b0)" d="M 98.652081 283.867869 
L 197.927939 296.512292 
" style="fill:none;stroke:#000000;stroke-width:2;"/>
    <path clip-path="url(#pac4c3317b0)" d="M 98.652081 283.867869 
L 105.880905 253.255055 
" style="fill:none;stroke:#000000;stroke-width:2;"/>
    <path clip-path="url(#pac4c3317b0)" d="M 98.652081 283.867869 
L 126.603536 323.797627 
" style="fill:none;stroke:#000000;stroke-width:2;"/>
    <path clip-path="url(#pac4c3317b0)" d="M 401.29887 315.811675 
L 271.661949 319.139155 
" style="fill:none;stroke:#000000;stroke-width:2;"/>
    <path clip-path="url(#pac4c3317b0)" d="M 401.29887 315.811675 
L 336.239449 295.1813 
" style="fill:none;stroke:#000000;stroke-width:2;"/>
    <path clip-path="url(#pac4c3317b0)" d="M 65.881409 301.170764 
L 77.92945 287.195349 
" style="fill:none;stroke:#000000;stroke-width:2;"/>
    <path clip-path="url(#pac4c3317b0)" d="M 65.881409 301.170764 
L 70.700626 321.801139 
" style="fill:none;stroke:#000000;stroke-width:2;"/>
    <path clip-path="url(#pac4c3317b0)" d="M 271.661949 319.139155 
L 197.927939 296.512292 
" style="fill:none;stroke:#000000;stroke-width:2;"/>
    <path clip-path="url(#pac4c3317b0)" d="M 271.661949 319.139155 
L 336.239449 295.1813 
" style="fill:none;stroke:#000000;stroke-width:2;"/>
    <path clip-path="url(#pac4c3317b0)" d="M 271.661949 319.139155 
L 220.096334 398.99867 
" style="fill:none;stroke:#000000;stroke-width:2;"/>
    <path clip-path="url(#pac4c3317b0)" d="M 77.92945 287.195349 
L 46.604544 291.853821 
" style="fill:none;stroke:#000000;stroke-width:2;"/>
    <path clip-path="url(#pac4c3317b0)" d="M 195.036409 66.916186 
L 227.325159 95.532512 
" style="fill:none;stroke:#000000;stroke-width:2;"/>
    <path clip-path="url(#pac4c3317b0)" d="M 159.374207 376.371808 
L 206.602528 347.089985 
" style="fill:none;stroke:#000000;stroke-width:2;"/>
    <path clip-path="url(#pac4c3317b0)" d="M 159.374207 376.371808 
L 157.446521 346.424489 
" style="fill:none;stroke:#000000;stroke-width:2;"/>
    <path clip-path="url(#pac4c3317b0)" d="M 159.374207 376.371808 
L 102.025532 357.737921 
" style="fill:none;stroke:#000000;stroke-width:2;"/>
    <path clip-path="url(#pac4c3317b0)" d="M 115.519338 518.787943 
L 144.916558 450.241859 
" style="fill:none;stroke:#000000;stroke-width:2;"/>
    <path clip-path="url(#pac4c3317b0)" d="M 115.519338 518.787943 
L 182.024524 540.083814 
" style="fill:none;stroke:#000000;stroke-width:2;"/>
    <path clip-path="url(#pac4c3317b0)" d="M 206.602528 347.089985 
L 157.446521 346.424489 
" style="fill:none;stroke:#000000;stroke-width:2;"/>
    <path clip-path="url(#pac4c3317b0)" d="M 206.602528 347.089985 
L 197.927939 296.512292 
" style="fill:none;stroke:#000000;stroke-width:2;"/>
    <path clip-path="url(#pac4c3317b0)" d="M 206.602528 347.089985 
L 220.096334 398.99867 
" style="fill:none;stroke:#000000;stroke-width:2;"/>
    <path clip-path="url(#pac4c3317b0)" d="M 157.446521 346.424489 
L 197.927939 296.512292 
" style="fill:none;stroke:#000000;stroke-width:2;"/>
    <path clip-path="url(#pac4c3317b0)" d="M 157.446521 346.424489 
L 126.603536 323.797627 
" style="fill:none;stroke:#000000;stroke-width:2;"/>
    <path clip-path="url(#pac4c3317b0)" d="M 385.395456 112.169911 
L 291.420737 148.106693 
" style="fill:none;stroke:#000000;stroke-width:2;"/>
    <path clip-path="url(#pac4c3317b0)" d="M 221.060177 146.775701 
L 208.048293 225.969721 
" style="fill:none;stroke:#000000;stroke-width:2;"/>
    <path clip-path="url(#pac4c3317b0)" d="M 221.060177 146.775701 
L 227.325159 95.532512 
" style="fill:none;stroke:#000000;stroke-width:2;"/>
    <path clip-path="url(#pac4c3317b0)" d="M 221.060177 146.775701 
L 291.420737 148.106693 
" style="fill:none;stroke:#000000;stroke-width:2;"/>
    <path clip-path="url(#pac4c3317b0)" d="M 208.048293 225.969721 
L 126.603536 232.62468 
" style="fill:none;stroke:#000000;stroke-width:2;"/>
    <path clip-path="url(#pac4c3317b0)" d="M 113.10973 422.291029 
L 144.916558 450.241859 
" style="fill:none;stroke:#000000;stroke-width:2;"/>
    <path clip-path="url(#pac4c3317b0)" d="M 113.10973 422.291029 
L 102.025532 357.737921 
" style="fill:none;stroke:#000000;stroke-width:2;"/>
    <path clip-path="url(#pac4c3317b0)" d="M 113.10973 422.291029 
L 78.411372 435.600948 
" style="fill:none;stroke:#000000;stroke-width:2;"/>
    <path clip-path="url(#pac4c3317b0)" d="M 144.916558 450.241859 
L 148.771931 418.298053 
" style="fill:none;stroke:#000000;stroke-width:2;"/>
    <path clip-path="url(#pac4c3317b0)" d="M 144.916558 450.241859 
L 78.411372 435.600948 
" style="fill:none;stroke:#000000;stroke-width:2;"/>
    <path clip-path="url(#pac4c3317b0)" d="M 144.916558 450.241859 
L 178.169151 468.21025 
" style="fill:none;stroke:#000000;stroke-width:2;"/>
    <path clip-path="url(#pac4c3317b0)" d="M 236.963591 536.090838 
L 182.024524 540.083814 
" style="fill:none;stroke:#000000;stroke-width:2;"/>
    <path clip-path="url(#pac4c3317b0)" d="M 236.963591 536.090838 
L 297.203796 507.474512 
" style="fill:none;stroke:#000000;stroke-width:2;"/>
    <path clip-path="url(#pac4c3317b0)" d="M 227.325159 95.532512 
L 291.420737 148.106693 
" style="fill:none;stroke:#000000;stroke-width:2;"/>
    <path clip-path="url(#pac4c3317b0)" d="M 102.025532 357.737921 
L 70.700626 321.801139 
" style="fill:none;stroke:#000000;stroke-width:2;"/>
    <path clip-path="url(#pac4c3317b0)" d="M 102.025532 357.737921 
L 126.603536 323.797627 
" style="fill:none;stroke:#000000;stroke-width:2;"/>
    <path clip-path="url(#pac4c3317b0)" d="M 102.025532 357.737921 
L 61.544115 400.995158 
" style="fill:none;stroke:#000000;stroke-width:2;"/>
    <path clip-path="url(#pac4c3317b0)" d="M 182.024524 540.083814 
L 178.169151 468.21025 
" style="fill:none;stroke:#000000;stroke-width:2;"/>
    <path clip-path="url(#pac4c3317b0)" d="M 336.239449 295.1813 
L 300.577248 241.941624 
" style="fill:none;stroke:#000000;stroke-width:2;"/>
    <path clip-path="url(#pac4c3317b0)" d="M 300.577248 241.941624 
L 291.420737 148.106693 
" style="fill:none;stroke:#000000;stroke-width:2;"/>
    <path clip-path="url(#pac4c3317b0)" d="M 297.203796 507.474512 
L 271.180028 412.974086 
" style="fill:none;stroke:#000000;stroke-width:2;"/>
    <path clip-path="url(#pac4c3317b0)" d="M 297.203796 507.474512 
L 388.286986 479.523682 
" style="fill:none;stroke:#000000;stroke-width:2;"/>
    <path clip-path="url(#pac4c3317b0)" d="M 297.203796 507.474512 
L 322.263721 450.907355 
" style="fill:none;stroke:#000000;stroke-width:2;"/>
    <path clip-path="url(#pac4c3317b0)" d="M 105.880905 253.255055 
L 126.603536 232.62468 
" style="fill:none;stroke:#000000;stroke-width:2;"/>
    <path clip-path="url(#pac4c3317b0)" d="M 87.085961 144.779213 
L 135.278125 177.388515 
" style="fill:none;stroke:#000000;stroke-width:2;"/>
    <path clip-path="url(#pac4c3317b0)" d="M 87.085961 144.779213 
L 46.604544 291.853821 
" style="fill:none;stroke:#000000;stroke-width:2;"/>
    <path clip-path="url(#pac4c3317b0)" d="M 271.180028 412.974086 
L 322.263721 450.907355 
" style="fill:none;stroke:#000000;stroke-width:2;"/>
    <path clip-path="url(#pac4c3317b0)" d="M 271.180028 412.974086 
L 220.096334 398.99867 
" style="fill:none;stroke:#000000;stroke-width:2;"/>
    <path clip-path="url(#pac4c3317b0)" d="M 135.278125 177.388515 
L 126.603536 232.62468 
" style="fill:none;stroke:#000000;stroke-width:2;"/>
    <path clip-path="url(#pac4c3317b0)" d="M 135.278125 177.388515 
L 46.604544 291.853821 
" style="fill:none;stroke:#000000;stroke-width:2;"/>
    <path clip-path="url(#pac4c3317b0)" d="M 388.286986 479.523682 
L 322.263721 450.907355 
" style="fill:none;stroke:#000000;stroke-width:2;"/>
    <path clip-path="url(#pac4c3317b0)" d="M 78.411372 435.600948 
L 61.544115 400.995158 
" style="fill:none;stroke:#000000;stroke-width:2;"/>
    <path clip-path="url(#pac4c3317b0)" d="M 178.169151 468.21025 
L 221.060177 490.837113 
" style="fill:none;stroke:#000000;stroke-width:2;"/>
    <path clip-path="url(#pac4c3317b0)" d="M 178.169151 468.21025 
L 220.096334 398.99867 
" style="fill:none;stroke:#000000;stroke-width:2;"/>
   </g>
   <g id="PathCollection_1">
    <defs>
     <path d="M 0 8.660254 
C 2.296726 8.660254 4.499694 7.747755 6.123724 6.123724 
C 7.747755 4.499694 8.660254 2.296726 8.660254 0 
C 8.660254 -2.296726 7.747755 -4.499694 6.123724 -6.123724 
C 4.499694 -7.747755 2.296726 -8.660254 0 -8.660254 
C -2.296726 -8.660254 -4.499694 -7.747755 -6.123724 -6.123724 
C -7.747755 -4.499694 -8.660254 -2.296726 -8.660254 0 
C -8.660254 2.296726 -7.747755 4.499694 -6.123724 6.123724 
C -4.499694 7.747755 -2.296726 8.660254 0 8.660254 
z
" id="mcfd51a07c8" style="stroke:#000000;"/>
    </defs>
    <g clip-path="url(#pac4c3317b0)">
     <use style="fill:#ffffff;stroke:#000000;" x="30.70113" xlink:href="#mcfd51a07c8" y="333.780066"/>
     <use style="fill:#ffffff;stroke:#000000;" x="264.915046" xlink:href="#mcfd51a07c8" y="495.495585"/>
     <use style="fill:#ffffff;stroke:#000000;" x="298.16764" xlink:href="#mcfd51a07c8" y="389.016231"/>
     <use style="fill:#ffffff;stroke:#000000;" x="384.913535" xlink:href="#mcfd51a07c8" y="216.652777"/>
     <use style="fill:#ffffff;stroke:#000000;" x="149.253853" xlink:href="#mcfd51a07c8" y="248.596583"/>
     <use style="fill:#ffffff;stroke:#000000;" x="248.047789" xlink:href="#mcfd51a07c8" y="232.62468"/>
     <use style="fill:#ffffff;stroke:#000000;" x="166.12111" xlink:href="#mcfd51a07c8" y="177.388515"/>
     <use style="fill:#ffffff;stroke:#000000;" x="153.109226" xlink:href="#mcfd51a07c8" y="148.772189"/>
     <use style="fill:#ffffff;stroke:#000000;" x="362.745139" xlink:href="#mcfd51a07c8" y="328.456099"/>
     <use style="fill:#ffffff;stroke:#000000;" x="156.482678" xlink:href="#mcfd51a07c8" y="391.678215"/>
     <use style="fill:#ffffff;stroke:#000000;" x="98.652081" xlink:href="#mcfd51a07c8" y="283.867869"/>
     <use style="fill:#ffffff;stroke:#000000;" x="401.29887" xlink:href="#mcfd51a07c8" y="315.811675"/>
     <use style="fill:#ffffff;stroke:#000000;" x="65.881409" xlink:href="#mcfd51a07c8" y="301.170764"/>
     <use style="fill:#ffffff;stroke:#000000;" x="271.661949" xlink:href="#mcfd51a07c8" y="319.139155"/>
     <use style="fill:#ffffff;stroke:#000000;" x="77.92945" xlink:href="#mcfd51a07c8" y="287.195349"/>
     <use style="fill:#ffffff;stroke:#000000;" x="195.036409" xlink:href="#mcfd51a07c8" y="66.916186"/>
     <use style="fill:#ffffff;stroke:#000000;" x="159.374207" xlink:href="#mcfd51a07c8" y="376.371808"/>
     <use style="fill:#ffffff;stroke:#000000;" x="115.519338" xlink:href="#mcfd51a07c8" y="518.787943"/>
     <use style="fill:#ffffff;stroke:#000000;" x="206.602528" xlink:href="#mcfd51a07c8" y="347.089985"/>
     <use style="fill:#ffffff;stroke:#000000;" x="157.446521" xlink:href="#mcfd51a07c8" y="346.424489"/>
     <use style="fill:#ffffff;stroke:#000000;" x="385.395456" xlink:href="#mcfd51a07c8" y="112.169911"/>
     <use style="fill:#ffffff;stroke:#000000;" x="221.060177" xlink:href="#mcfd51a07c8" y="146.775701"/>
     <use style="fill:#ffffff;stroke:#000000;" x="208.048293" xlink:href="#mcfd51a07c8" y="225.969721"/>
     <use style="fill:#ffffff;stroke:#000000;" x="113.10973" xlink:href="#mcfd51a07c8" y="422.291029"/>
     <use style="fill:#ffffff;stroke:#000000;" x="144.916558" xlink:href="#mcfd51a07c8" y="450.241859"/>
     <use style="fill:#ffffff;stroke:#000000;" x="197.927939" xlink:href="#mcfd51a07c8" y="296.512292"/>
     <use style="fill:#ffffff;stroke:#000000;" x="236.963591" xlink:href="#mcfd51a07c8" y="536.090838"/>
     <use style="fill:#ffffff;stroke:#000000;" x="227.325159" xlink:href="#mcfd51a07c8" y="95.532512"/>
     <use style="fill:#ffffff;stroke:#000000;" x="102.025532" xlink:href="#mcfd51a07c8" y="357.737921"/>
     <use style="fill:#ffffff;stroke:#000000;" x="70.700626" xlink:href="#mcfd51a07c8" y="321.801139"/>
     <use style="fill:#ffffff;stroke:#000000;" x="182.024524" xlink:href="#mcfd51a07c8" y="540.083814"/>
     <use style="fill:#ffffff;stroke:#000000;" x="336.239449" xlink:href="#mcfd51a07c8" y="295.1813"/>
     <use style="fill:#ffffff;stroke:#000000;" x="300.577248" xlink:href="#mcfd51a07c8" y="241.941624"/>
     <use style="fill:#ffffff;stroke:#000000;" x="148.771931" xlink:href="#mcfd51a07c8" y="418.298053"/>
     <use style="fill:#ffffff;stroke:#000000;" x="297.203796" xlink:href="#mcfd51a07c8" y="507.474512"/>
     <use style="fill:#ffffff;stroke:#000000;" x="105.880905" xlink:href="#mcfd51a07c8" y="253.255055"/>
     <use style="fill:#ffffff;stroke:#000000;" x="87.085961" xlink:href="#mcfd51a07c8" y="144.779213"/>
     <use style="fill:#ffffff;stroke:#000000;" x="271.180028" xlink:href="#mcfd51a07c8" y="412.974086"/>
     <use style="fill:#ffffff;stroke:#000000;" x="135.278125" xlink:href="#mcfd51a07c8" y="177.388515"/>
     <use style="fill:#ffffff;stroke:#000000;" x="126.603536" xlink:href="#mcfd51a07c8" y="232.62468"/>
     <use style="fill:#ffffff;stroke:#000000;" x="388.286986" xlink:href="#mcfd51a07c8" y="479.523682"/>
     <use style="fill:#ffffff;stroke:#000000;" x="322.263721" xlink:href="#mcfd51a07c8" y="450.907355"/>
     <use style="fill:#ffffff;stroke:#000000;" x="78.411372" xlink:href="#mcfd51a07c8" y="435.600948"/>
     <use style="fill:#ffffff;stroke:#000000;" x="291.420737" xlink:href="#mcfd51a07c8" y="148.106693"/>
     <use style="fill:#ffffff;stroke:#000000;" x="126.603536" xlink:href="#mcfd51a07c8" y="323.797627"/>
     <use style="fill:#ffffff;stroke:#000000;" x="178.169151" xlink:href="#mcfd51a07c8" y="468.21025"/>
     <use style="fill:#ffffff;stroke:#000000;" x="61.544115" xlink:href="#mcfd51a07c8" y="400.995158"/>
     <use style="fill:#ffffff;stroke:#000000;" x="221.060177" xlink:href="#mcfd51a07c8" y="490.837113"/>
     <use style="fill:#ffffff;stroke:#000000;" x="46.604544" xlink:href="#mcfd51a07c8" y="291.853821"/>
     <use style="fill:#ffffff;stroke:#000000;" x="220.096334" xlink:href="#mcfd51a07c8" y="398.99867"/>
    </g>
   </g>
   <g id="text_1">
    <g clip-path="url(#pac4c3317b0)">
     <!-- 1 -->
     <defs>
      <path d="M 12.40625 8.296875 
L 28.515625 8.296875 
L 28.515625 63.921875 
L 10.984375 60.40625 
L 10.984375 69.390625 
L 28.421875 72.90625 
L 38.28125 72.90625 
L 38.28125 8.296875 
L 54.390625 8.296875 
L 54.390625 0 
L 12.40625 0 
z
" id="DejaVuSans-49"/>
     </defs>
     <g transform="translate(26.88363 337.091316)scale(0.12 -0.12)">
      <use xlink:href="#DejaVuSans-49"/>
     </g>
    </g>
   </g>
   <g id="text_2">
    <g clip-path="url(#pac4c3317b0)">
     <!-- 2 -->
     <defs>
      <path d="M 19.1875 8.296875 
L 53.609375 8.296875 
L 53.609375 0 
L 7.328125 0 
L 7.328125 8.296875 
Q 12.9375 14.109375 22.625 23.890625 
Q 32.328125 33.6875 34.8125 36.53125 
Q 39.546875 41.84375 41.421875 45.53125 
Q 43.3125 49.21875 43.3125 52.78125 
Q 43.3125 58.59375 39.234375 62.25 
Q 35.15625 65.921875 28.609375 65.921875 
Q 23.96875 65.921875 18.8125 64.3125 
Q 13.671875 62.703125 7.8125 59.421875 
L 7.8125 69.390625 
Q 13.765625 71.78125 18.9375 73 
Q 24.125 74.21875 28.421875 74.21875 
Q 39.75 74.21875 46.484375 68.546875 
Q 53.21875 62.890625 53.21875 53.421875 
Q 53.21875 48.921875 51.53125 44.890625 
Q 49.859375 40.875 45.40625 35.40625 
Q 44.1875 33.984375 37.640625 27.21875 
Q 31.109375 20.453125 19.1875 8.296875 
z
" id="DejaVuSans-50"/>
     </defs>
     <g transform="translate(261.097546 498.806835)scale(0.12 -0.12)">
      <use xlink:href="#DejaVuSans-50"/>
     </g>
    </g>
   </g>
   <g id="text_3">
    <g clip-path="url(#pac4c3317b0)">
     <!-- 3 -->
     <defs>
      <path d="M 40.578125 39.3125 
Q 47.65625 37.796875 51.625 33 
Q 55.609375 28.21875 55.609375 21.1875 
Q 55.609375 10.40625 48.1875 4.484375 
Q 40.765625 -1.421875 27.09375 -1.421875 
Q 22.515625 -1.421875 17.65625 -0.515625 
Q 12.796875 0.390625 7.625 2.203125 
L 7.625 11.71875 
Q 11.71875 9.328125 16.59375 8.109375 
Q 21.484375 6.890625 26.8125 6.890625 
Q 36.078125 6.890625 40.9375 10.546875 
Q 45.796875 14.203125 45.796875 21.1875 
Q 45.796875 27.640625 41.28125 31.265625 
Q 36.765625 34.90625 28.71875 34.90625 
L 20.21875 34.90625 
L 20.21875 43.015625 
L 29.109375 43.015625 
Q 36.375 43.015625 40.234375 45.921875 
Q 44.09375 48.828125 44.09375 54.296875 
Q 44.09375 59.90625 40.109375 62.90625 
Q 36.140625 65.921875 28.71875 65.921875 
Q 24.65625 65.921875 20.015625 65.03125 
Q 15.375 64.15625 9.8125 62.3125 
L 9.8125 71.09375 
Q 15.4375 72.65625 20.34375 73.4375 
Q 25.25 74.21875 29.59375 74.21875 
Q 40.828125 74.21875 47.359375 69.109375 
Q 53.90625 64.015625 53.90625 55.328125 
Q 53.90625 49.265625 50.4375 45.09375 
Q 46.96875 40.921875 40.578125 39.3125 
z
" id="DejaVuSans-51"/>
     </defs>
     <g transform="translate(294.35014 392.327481)scale(0.12 -0.12)">
      <use xlink:href="#DejaVuSans-51"/>
     </g>
    </g>
   </g>
   <g id="text_4">
    <g clip-path="url(#pac4c3317b0)">
     <!-- 4 -->
     <defs>
      <path d="M 37.796875 64.3125 
L 12.890625 25.390625 
L 37.796875 25.390625 
z
M 35.203125 72.90625 
L 47.609375 72.90625 
L 47.609375 25.390625 
L 58.015625 25.390625 
L 58.015625 17.1875 
L 47.609375 17.1875 
L 47.609375 0 
L 37.796875 0 
L 37.796875 17.1875 
L 4.890625 17.1875 
L 4.890625 26.703125 
z
" id="DejaVuSans-52"/>
     </defs>
     <g transform="translate(381.096035 219.964027)scale(0.12 -0.12)">
      <use xlink:href="#DejaVuSans-52"/>
     </g>
    </g>
   </g>
   <g id="text_5">
    <g clip-path="url(#pac4c3317b0)">
     <!-- 5 -->
     <defs>
      <path d="M 10.796875 72.90625 
L 49.515625 72.90625 
L 49.515625 64.59375 
L 19.828125 64.59375 
L 19.828125 46.734375 
Q 21.96875 47.46875 24.109375 47.828125 
Q 26.265625 48.1875 28.421875 48.1875 
Q 40.625 48.1875 47.75 41.5 
Q 54.890625 34.8125 54.890625 23.390625 
Q 54.890625 11.625 47.5625 5.09375 
Q 40.234375 -1.421875 26.90625 -1.421875 
Q 22.3125 -1.421875 17.546875 -0.640625 
Q 12.796875 0.140625 7.71875 1.703125 
L 7.71875 11.625 
Q 12.109375 9.234375 16.796875 8.0625 
Q 21.484375 6.890625 26.703125 6.890625 
Q 35.15625 6.890625 40.078125 11.328125 
Q 45.015625 15.765625 45.015625 23.390625 
Q 45.015625 31 40.078125 35.4375 
Q 35.15625 39.890625 26.703125 39.890625 
Q 22.75 39.890625 18.8125 39.015625 
Q 14.890625 38.140625 10.796875 36.28125 
z
" id="DejaVuSans-53"/>
     </defs>
     <g transform="translate(145.436353 251.907833)scale(0.12 -0.12)">
      <use xlink:href="#DejaVuSans-53"/>
     </g>
    </g>
   </g>
   <g id="text_6">
    <g clip-path="url(#pac4c3317b0)">
     <!-- 6 -->
     <defs>
      <path d="M 33.015625 40.375 
Q 26.375 40.375 22.484375 35.828125 
Q 18.609375 31.296875 18.609375 23.390625 
Q 18.609375 15.53125 22.484375 10.953125 
Q 26.375 6.390625 33.015625 6.390625 
Q 39.65625 6.390625 43.53125 10.953125 
Q 47.40625 15.53125 47.40625 23.390625 
Q 47.40625 31.296875 43.53125 35.828125 
Q 39.65625 40.375 33.015625 40.375 
z
M 52.59375 71.296875 
L 52.59375 62.3125 
Q 48.875 64.0625 45.09375 64.984375 
Q 41.3125 65.921875 37.59375 65.921875 
Q 27.828125 65.921875 22.671875 59.328125 
Q 17.53125 52.734375 16.796875 39.40625 
Q 19.671875 43.65625 24.015625 45.921875 
Q 28.375 48.1875 33.59375 48.1875 
Q 44.578125 48.1875 50.953125 41.515625 
Q 57.328125 34.859375 57.328125 23.390625 
Q 57.328125 12.15625 50.6875 5.359375 
Q 44.046875 -1.421875 33.015625 -1.421875 
Q 20.359375 -1.421875 13.671875 8.265625 
Q 6.984375 17.96875 6.984375 36.375 
Q 6.984375 53.65625 15.1875 63.9375 
Q 23.390625 74.21875 37.203125 74.21875 
Q 40.921875 74.21875 44.703125 73.484375 
Q 48.484375 72.75 52.59375 71.296875 
z
" id="DejaVuSans-54"/>
     </defs>
     <g transform="translate(244.230289 235.93593)scale(0.12 -0.12)">
      <use xlink:href="#DejaVuSans-54"/>
     </g>
    </g>
   </g>
   <g id="text_7">
    <g clip-path="url(#pac4c3317b0)">
     <!-- 7 -->
     <defs>
      <path d="M 8.203125 72.90625 
L 55.078125 72.90625 
L 55.078125 68.703125 
L 28.609375 0 
L 18.3125 0 
L 43.21875 64.59375 
L 8.203125 64.59375 
z
" id="DejaVuSans-55"/>
     </defs>
     <g transform="translate(162.30361 180.699765)scale(0.12 -0.12)">
      <use xlink:href="#DejaVuSans-55"/>
     </g>
    </g>
   </g>
   <g id="text_8">
    <g clip-path="url(#pac4c3317b0)">
     <!-- 8 -->
     <defs>
      <path d="M 31.78125 34.625 
Q 24.75 34.625 20.71875 30.859375 
Q 16.703125 27.09375 16.703125 20.515625 
Q 16.703125 13.921875 20.71875 10.15625 
Q 24.75 6.390625 31.78125 6.390625 
Q 38.8125 6.390625 42.859375 10.171875 
Q 46.921875 13.96875 46.921875 20.515625 
Q 46.921875 27.09375 42.890625 30.859375 
Q 38.875 34.625 31.78125 34.625 
z
M 21.921875 38.8125 
Q 15.578125 40.375 12.03125 44.71875 
Q 8.5 49.078125 8.5 55.328125 
Q 8.5 64.0625 14.71875 69.140625 
Q 20.953125 74.21875 31.78125 74.21875 
Q 42.671875 74.21875 48.875 69.140625 
Q 55.078125 64.0625 55.078125 55.328125 
Q 55.078125 49.078125 51.53125 44.71875 
Q 48 40.375 41.703125 38.8125 
Q 48.828125 37.15625 52.796875 32.3125 
Q 56.78125 27.484375 56.78125 20.515625 
Q 56.78125 9.90625 50.3125 4.234375 
Q 43.84375 -1.421875 31.78125 -1.421875 
Q 19.734375 -1.421875 13.25 4.234375 
Q 6.78125 9.90625 6.78125 20.515625 
Q 6.78125 27.484375 10.78125 32.3125 
Q 14.796875 37.15625 21.921875 38.8125 
z
M 18.3125 54.390625 
Q 18.3125 48.734375 21.84375 45.5625 
Q 25.390625 42.390625 31.78125 42.390625 
Q 38.140625 42.390625 41.71875 45.5625 
Q 45.3125 48.734375 45.3125 54.390625 
Q 45.3125 60.0625 41.71875 63.234375 
Q 38.140625 66.40625 31.78125 66.40625 
Q 25.390625 66.40625 21.84375 63.234375 
Q 18.3125 60.0625 18.3125 54.390625 
z
" id="DejaVuSans-56"/>
     </defs>
     <g transform="translate(149.291726 152.083439)scale(0.12 -0.12)">
      <use xlink:href="#DejaVuSans-56"/>
     </g>
    </g>
   </g>
   <g id="text_9">
    <g clip-path="url(#pac4c3317b0)">
     <!-- 9 -->
     <defs>
      <path d="M 10.984375 1.515625 
L 10.984375 10.5 
Q 14.703125 8.734375 18.5 7.8125 
Q 22.3125 6.890625 25.984375 6.890625 
Q 35.75 6.890625 40.890625 13.453125 
Q 46.046875 20.015625 46.78125 33.40625 
Q 43.953125 29.203125 39.59375 26.953125 
Q 35.25 24.703125 29.984375 24.703125 
Q 19.046875 24.703125 12.671875 31.3125 
Q 6.296875 37.9375 6.296875 49.421875 
Q 6.296875 60.640625 12.9375 67.421875 
Q 19.578125 74.21875 30.609375 74.21875 
Q 43.265625 74.21875 49.921875 64.515625 
Q 56.59375 54.828125 56.59375 36.375 
Q 56.59375 19.140625 48.40625 8.859375 
Q 40.234375 -1.421875 26.421875 -1.421875 
Q 22.703125 -1.421875 18.890625 -0.6875 
Q 15.09375 0.046875 10.984375 1.515625 
z
M 30.609375 32.421875 
Q 37.25 32.421875 41.125 36.953125 
Q 45.015625 41.5 45.015625 49.421875 
Q 45.015625 57.28125 41.125 61.84375 
Q 37.25 66.40625 30.609375 66.40625 
Q 23.96875 66.40625 20.09375 61.84375 
Q 16.21875 57.28125 16.21875 49.421875 
Q 16.21875 41.5 20.09375 36.953125 
Q 23.96875 32.421875 30.609375 32.421875 
z
" id="DejaVuSans-57"/>
     </defs>
     <g transform="translate(358.927639 331.767349)scale(0.12 -0.12)">
      <use xlink:href="#DejaVuSans-57"/>
     </g>
    </g>
   </g>
   <g id="text_10">
    <g clip-path="url(#pac4c3317b0)">
     <!-- 10 -->
     <defs>
      <path d="M 31.78125 66.40625 
Q 24.171875 66.40625 20.328125 58.90625 
Q 16.5 51.421875 16.5 36.375 
Q 16.5 21.390625 20.328125 13.890625 
Q 24.171875 6.390625 31.78125 6.390625 
Q 39.453125 6.390625 43.28125 13.890625 
Q 47.125 21.390625 47.125 36.375 
Q 47.125 51.421875 43.28125 58.90625 
Q 39.453125 66.40625 31.78125 66.40625 
z
M 31.78125 74.21875 
Q 44.046875 74.21875 50.515625 64.515625 
Q 56.984375 54.828125 56.984375 36.375 
Q 56.984375 17.96875 50.515625 8.265625 
Q 44.046875 -1.421875 31.78125 -1.421875 
Q 19.53125 -1.421875 13.0625 8.265625 
Q 6.59375 17.96875 6.59375 36.375 
Q 6.59375 54.828125 13.0625 64.515625 
Q 19.53125 74.21875 31.78125 74.21875 
z
" id="DejaVuSans-48"/>
     </defs>
     <g transform="translate(148.847678 394.989465)scale(0.12 -0.12)">
      <use xlink:href="#DejaVuSans-49"/>
      <use x="63.623047" xlink:href="#DejaVuSans-48"/>
     </g>
    </g>
   </g>
   <g id="text_11">
    <g clip-path="url(#pac4c3317b0)">
     <!-- 11 -->
     <g transform="translate(91.017081 287.179119)scale(0.12 -0.12)">
      <use xlink:href="#DejaVuSans-49"/>
      <use x="63.623047" xlink:href="#DejaVuSans-49"/>
     </g>
    </g>
   </g>
   <g id="text_12">
    <g clip-path="url(#pac4c3317b0)">
     <!-- 12 -->
     <g transform="translate(393.66387 319.122925)scale(0.12 -0.12)">
      <use xlink:href="#DejaVuSans-49"/>
      <use x="63.623047" xlink:href="#DejaVuSans-50"/>
     </g>
    </g>
   </g>
   <g id="text_13">
    <g clip-path="url(#pac4c3317b0)">
     <!-- 13 -->
     <g transform="translate(58.246409 304.482014)scale(0.12 -0.12)">
      <use xlink:href="#DejaVuSans-49"/>
      <use x="63.623047" xlink:href="#DejaVuSans-51"/>
     </g>
    </g>
   </g>
   <g id="text_14">
    <g clip-path="url(#pac4c3317b0)">
     <!-- 14 -->
     <g transform="translate(264.026949 322.450405)scale(0.12 -0.12)">
      <use xlink:href="#DejaVuSans-49"/>
      <use x="63.623047" xlink:href="#DejaVuSans-52"/>
     </g>
    </g>
   </g>
   <g id="text_15">
    <g clip-path="url(#pac4c3317b0)">
     <!-- 15 -->
     <g transform="translate(70.29445 290.506599)scale(0.12 -0.12)">
      <use xlink:href="#DejaVuSans-49"/>
      <use x="63.623047" xlink:href="#DejaVuSans-53"/>
     </g>
    </g>
   </g>
   <g id="text_16">
    <g clip-path="url(#pac4c3317b0)">
     <!-- 16 -->
     <g transform="translate(187.401409 70.227436)scale(0.12 -0.12)">
      <use xlink:href="#DejaVuSans-49"/>
      <use x="63.623047" xlink:href="#DejaVuSans-54"/>
     </g>
    </g>
   </g>
   <g id="text_17">
    <g clip-path="url(#pac4c3317b0)">
     <!-- 17 -->
     <g transform="translate(151.739207 379.683058)scale(0.12 -0.12)">
      <use xlink:href="#DejaVuSans-49"/>
      <use x="63.623047" xlink:href="#DejaVuSans-55"/>
     </g>
    </g>
   </g>
   <g id="text_18">
    <g clip-path="url(#pac4c3317b0)">
     <!-- 18 -->
     <g transform="translate(107.884338 522.099193)scale(0.12 -0.12)">
      <use xlink:href="#DejaVuSans-49"/>
      <use x="63.623047" xlink:href="#DejaVuSans-56"/>
     </g>
    </g>
   </g>
   <g id="text_19">
    <g clip-path="url(#pac4c3317b0)">
     <!-- 19 -->
     <g transform="translate(198.967528 350.401235)scale(0.12 -0.12)">
      <use xlink:href="#DejaVuSans-49"/>
      <use x="63.623047" xlink:href="#DejaVuSans-57"/>
     </g>
    </g>
   </g>
   <g id="text_20">
    <g clip-path="url(#pac4c3317b0)">
     <!-- 20 -->
     <g transform="translate(149.811521 349.735739)scale(0.12 -0.12)">
      <use xlink:href="#DejaVuSans-50"/>
      <use x="63.623047" xlink:href="#DejaVuSans-48"/>
     </g>
    </g>
   </g>
   <g id="text_21">
    <g clip-path="url(#pac4c3317b0)">
     <!-- 21 -->
     <g transform="translate(377.760456 115.481161)scale(0.12 -0.12)">
      <use xlink:href="#DejaVuSans-50"/>
      <use x="63.623047" xlink:href="#DejaVuSans-49"/>
     </g>
    </g>
   </g>
   <g id="text_22">
    <g clip-path="url(#pac4c3317b0)">
     <!-- 22 -->
     <g transform="translate(213.425177 150.086951)scale(0.12 -0.12)">
      <use xlink:href="#DejaVuSans-50"/>
      <use x="63.623047" xlink:href="#DejaVuSans-50"/>
     </g>
    </g>
   </g>
   <g id="text_23">
    <g clip-path="url(#pac4c3317b0)">
     <!-- 23 -->
     <g transform="translate(200.413293 229.280971)scale(0.12 -0.12)">
      <use xlink:href="#DejaVuSans-50"/>
      <use x="63.623047" xlink:href="#DejaVuSans-51"/>
     </g>
    </g>
   </g>
   <g id="text_24">
    <g clip-path="url(#pac4c3317b0)">
     <!-- 24 -->
     <g transform="translate(105.47473 425.602279)scale(0.12 -0.12)">
      <use xlink:href="#DejaVuSans-50"/>
      <use x="63.623047" xlink:href="#DejaVuSans-52"/>
     </g>
    </g>
   </g>
   <g id="text_25">
    <g clip-path="url(#pac4c3317b0)">
     <!-- 25 -->
     <g transform="translate(137.281558 453.553109)scale(0.12 -0.12)">
      <use xlink:href="#DejaVuSans-50"/>
      <use x="63.623047" xlink:href="#DejaVuSans-53"/>
     </g>
    </g>
   </g>
   <g id="text_26">
    <g clip-path="url(#pac4c3317b0)">
     <!-- 26 -->
     <g transform="translate(190.292939 299.823542)scale(0.12 -0.12)">
      <use xlink:href="#DejaVuSans-50"/>
      <use x="63.623047" xlink:href="#DejaVuSans-54"/>
     </g>
    </g>
   </g>
   <g id="text_27">
    <g clip-path="url(#pac4c3317b0)">
     <!-- 27 -->
     <g transform="translate(229.328591 539.402088)scale(0.12 -0.12)">
      <use xlink:href="#DejaVuSans-50"/>
      <use x="63.623047" xlink:href="#DejaVuSans-55"/>
     </g>
    </g>
   </g>
   <g id="text_28">
    <g clip-path="url(#pac4c3317b0)">
     <!-- 28 -->
     <g transform="translate(219.690159 98.843762)scale(0.12 -0.12)">
      <use xlink:href="#DejaVuSans-50"/>
      <use x="63.623047" xlink:href="#DejaVuSans-56"/>
     </g>
    </g>
   </g>
   <g id="text_29">
    <g clip-path="url(#pac4c3317b0)">
     <!-- 29 -->
     <g transform="translate(94.390532 361.049171)scale(0.12 -0.12)">
      <use xlink:href="#DejaVuSans-50"/>
      <use x="63.623047" xlink:href="#DejaVuSans-57"/>
     </g>
    </g>
   </g>
   <g id="text_30">
    <g clip-path="url(#pac4c3317b0)">
     <!-- 30 -->
     <g transform="translate(63.065626 325.112389)scale(0.12 -0.12)">
      <use xlink:href="#DejaVuSans-51"/>
      <use x="63.623047" xlink:href="#DejaVuSans-48"/>
     </g>
    </g>
   </g>
   <g id="text_31">
    <g clip-path="url(#pac4c3317b0)">
     <!-- 31 -->
     <g transform="translate(174.389524 543.395064)scale(0.12 -0.12)">
      <use xlink:href="#DejaVuSans-51"/>
      <use x="63.623047" xlink:href="#DejaVuSans-49"/>
     </g>
    </g>
   </g>
   <g id="text_32">
    <g clip-path="url(#pac4c3317b0)">
     <!-- 32 -->
     <g transform="translate(328.604449 298.49255)scale(0.12 -0.12)">
      <use xlink:href="#DejaVuSans-51"/>
      <use x="63.623047" xlink:href="#DejaVuSans-50"/>
     </g>
    </g>
   </g>
   <g id="text_33">
    <g clip-path="url(#pac4c3317b0)">
     <!-- 33 -->
     <g transform="translate(292.942248 245.252874)scale(0.12 -0.12)">
      <use xlink:href="#DejaVuSans-51"/>
      <use x="63.623047" xlink:href="#DejaVuSans-51"/>
     </g>
    </g>
   </g>
   <g id="text_34">
    <g clip-path="url(#pac4c3317b0)">
     <!-- 34 -->
     <g transform="translate(141.136931 421.609303)scale(0.12 -0.12)">
      <use xlink:href="#DejaVuSans-51"/>
      <use x="63.623047" xlink:href="#DejaVuSans-52"/>
     </g>
    </g>
   </g>
   <g id="text_35">
    <g clip-path="url(#pac4c3317b0)">
     <!-- 35 -->
     <g transform="translate(289.568796 510.785762)scale(0.12 -0.12)">
      <use xlink:href="#DejaVuSans-51"/>
      <use x="63.623047" xlink:href="#DejaVuSans-53"/>
     </g>
    </g>
   </g>
   <g id="text_36">
    <g clip-path="url(#pac4c3317b0)">
     <!-- 36 -->
     <g transform="translate(98.245905 256.566305)scale(0.12 -0.12)">
      <use xlink:href="#DejaVuSans-51"/>
      <use x="63.623047" xlink:href="#DejaVuSans-54"/>
     </g>
    </g>
   </g>
   <g id="text_37">
    <g clip-path="url(#pac4c3317b0)">
     <!-- 37 -->
     <g transform="translate(79.450961 148.090463)scale(0.12 -0.12)">
      <use xlink:href="#DejaVuSans-51"/>
      <use x="63.623047" xlink:href="#DejaVuSans-55"/>
     </g>
    </g>
   </g>
   <g id="text_38">
    <g clip-path="url(#pac4c3317b0)">
     <!-- 38 -->
     <g transform="translate(263.545028 416.285336)scale(0.12 -0.12)">
      <use xlink:href="#DejaVuSans-51"/>
      <use x="63.623047" xlink:href="#DejaVuSans-56"/>
     </g>
    </g>
   </g>
   <g id="text_39">
    <g clip-path="url(#pac4c3317b0)">
     <!-- 39 -->
     <g transform="translate(127.643125 180.699765)scale(0.12 -0.12)">
      <use xlink:href="#DejaVuSans-51"/>
      <use x="63.623047" xlink:href="#DejaVuSans-57"/>
     </g>
    </g>
   </g>
   <g id="text_40">
    <g clip-path="url(#pac4c3317b0)">
     <!-- 40 -->
     <g transform="translate(118.968536 235.93593)scale(0.12 -0.12)">
      <use xlink:href="#DejaVuSans-52"/>
      <use x="63.623047" xlink:href="#DejaVuSans-48"/>
     </g>
    </g>
   </g>
   <g id="text_41">
    <g clip-path="url(#pac4c3317b0)">
     <!-- 41 -->
     <g transform="translate(380.651986 482.834932)scale(0.12 -0.12)">
      <use xlink:href="#DejaVuSans-52"/>
      <use x="63.623047" xlink:href="#DejaVuSans-49"/>
     </g>
    </g>
   </g>
   <g id="text_42">
    <g clip-path="url(#pac4c3317b0)">
     <!-- 42 -->
     <g transform="translate(314.628721 454.218605)scale(0.12 -0.12)">
      <use xlink:href="#DejaVuSans-52"/>
      <use x="63.623047" xlink:href="#DejaVuSans-50"/>
     </g>
    </g>
   </g>
   <g id="text_43">
    <g clip-path="url(#pac4c3317b0)">
     <!-- 43 -->
     <g transform="translate(70.776372 438.912198)scale(0.12 -0.12)">
      <use xlink:href="#DejaVuSans-52"/>
      <use x="63.623047" xlink:href="#DejaVuSans-51"/>
     </g>
    </g>
   </g>
   <g id="text_44">
    <g clip-path="url(#pac4c3317b0)">
     <!-- 44 -->
     <g transform="translate(283.785737 151.417943)scale(0.12 -0.12)">
      <use xlink:href="#DejaVuSans-52"/>
      <use x="63.623047" xlink:href="#DejaVuSans-52"/>
     </g>
    </g>
   </g>
   <g id="text_45">
    <g clip-path="url(#pac4c3317b0)">
     <!-- 45 -->
     <g transform="translate(118.968536 327.108877)scale(0.12 -0.12)">
      <use xlink:href="#DejaVuSans-52"/>
      <use x="63.623047" xlink:href="#DejaVuSans-53"/>
     </g>
    </g>
   </g>
   <g id="text_46">
    <g clip-path="url(#pac4c3317b0)">
     <!-- 46 -->
     <g transform="translate(170.534151 471.5215)scale(0.12 -0.12)">
      <use xlink:href="#DejaVuSans-52"/>
      <use x="63.623047" xlink:href="#DejaVuSans-54"/>
     </g>
    </g>
   </g>
   <g id="text_47">
    <g clip-path="url(#pac4c3317b0)">
     <!-- 47 -->
     <g transform="translate(53.909115 404.306408)scale(0.12 -0.12)">
      <use xlink:href="#DejaVuSans-52"/>
      <use x="63.623047" xlink:href="#DejaVuSans-55"/>
     </g>
    </g>
   </g>
   <g id="text_48">
    <g clip-path="url(#pac4c3317b0)">
     <!-- 48 -->
     <g transform="translate(213.425177 494.148363)scale(0.12 -0.12)">
      <use xlink:href="#DejaVuSans-52"/>
      <use x="63.623047" xlink:href="#DejaVuSans-56"/>
     </g>
    </g>
   </g>
   <g id="text_49">
    <g clip-path="url(#pac4c3317b0)">
     <!-- 49 -->
     <g transform="translate(38.969544 295.165071)scale(0.12 -0.12)">
      <use xlink:href="#DejaVuSans-52"/>
      <use x="63.623047" xlink:href="#DejaVuSans-57"/>
     </g>
    </g>
   </g>
   <g id="text_50">
    <g clip-path="url(#pac4c3317b0)">
     <!-- 50 -->
     <g transform="translate(212.461334 402.30992)scale(0.12 -0.12)">
      <use xlink:href="#DejaVuSans-53"/>
      <use x="63.623047" xlink:href="#DejaVuSans-48"/>
     </g>
    </g>
   </g>
   <g id="text_51">
    <!-- Fig. 2: Network topology (Germany50)  -->
    <defs>
     <path d="M 9.8125 72.90625 
L 51.703125 72.90625 
L 51.703125 64.59375 
L 19.671875 64.59375 
L 19.671875 43.109375 
L 48.578125 43.109375 
L 48.578125 34.8125 
L 19.671875 34.8125 
L 19.671875 0 
L 9.8125 0 
z
" id="DejaVuSans-70"/>
     <path d="M 9.421875 54.6875 
L 18.40625 54.6875 
L 18.40625 0 
L 9.421875 0 
z
M 9.421875 75.984375 
L 18.40625 75.984375 
L 18.40625 64.59375 
L 9.421875 64.59375 
z
" id="DejaVuSans-105"/>
     <path d="M 45.40625 27.984375 
Q 45.40625 37.75 41.375 43.109375 
Q 37.359375 48.484375 30.078125 48.484375 
Q 22.859375 48.484375 18.828125 43.109375 
Q 14.796875 37.75 14.796875 27.984375 
Q 14.796875 18.265625 18.828125 12.890625 
Q 22.859375 7.515625 30.078125 7.515625 
Q 37.359375 7.515625 41.375 12.890625 
Q 45.40625 18.265625 45.40625 27.984375 
z
M 54.390625 6.78125 
Q 54.390625 -7.171875 48.1875 -13.984375 
Q 42 -20.796875 29.203125 -20.796875 
Q 24.46875 -20.796875 20.265625 -20.09375 
Q 16.0625 -19.390625 12.109375 -17.921875 
L 12.109375 -9.1875 
Q 16.0625 -11.328125 19.921875 -12.34375 
Q 23.78125 -13.375 27.78125 -13.375 
Q 36.625 -13.375 41.015625 -8.765625 
Q 45.40625 -4.15625 45.40625 5.171875 
L 45.40625 9.625 
Q 42.625 4.78125 38.28125 2.390625 
Q 33.9375 0 27.875 0 
Q 17.828125 0 11.671875 7.65625 
Q 5.515625 15.328125 5.515625 27.984375 
Q 5.515625 40.671875 11.671875 48.328125 
Q 17.828125 56 27.875 56 
Q 33.9375 56 38.28125 53.609375 
Q 42.625 51.21875 45.40625 46.390625 
L 45.40625 54.6875 
L 54.390625 54.6875 
z
" id="DejaVuSans-103"/>
     <path d="M 10.6875 12.40625 
L 21 12.40625 
L 21 0 
L 10.6875 0 
z
" id="DejaVuSans-46"/>
     <path id="DejaVuSans-32"/>
     <path d="M 11.71875 12.40625 
L 22.015625 12.40625 
L 22.015625 0 
L 11.71875 0 
z
M 11.71875 51.703125 
L 22.015625 51.703125 
L 22.015625 39.3125 
L 11.71875 39.3125 
z
" id="DejaVuSans-58"/>
     <path d="M 9.8125 72.90625 
L 23.09375 72.90625 
L 55.421875 11.921875 
L 55.421875 72.90625 
L 64.984375 72.90625 
L 64.984375 0 
L 51.703125 0 
L 19.390625 60.984375 
L 19.390625 0 
L 9.8125 0 
z
" id="DejaVuSans-78"/>
     <path d="M 56.203125 29.59375 
L 56.203125 25.203125 
L 14.890625 25.203125 
Q 15.484375 15.921875 20.484375 11.0625 
Q 25.484375 6.203125 34.421875 6.203125 
Q 39.59375 6.203125 44.453125 7.46875 
Q 49.3125 8.734375 54.109375 11.28125 
L 54.109375 2.78125 
Q 49.265625 0.734375 44.1875 -0.34375 
Q 39.109375 -1.421875 33.890625 -1.421875 
Q 20.796875 -1.421875 13.15625 6.1875 
Q 5.515625 13.8125 5.515625 26.8125 
Q 5.515625 40.234375 12.765625 48.109375 
Q 20.015625 56 32.328125 56 
Q 43.359375 56 49.78125 48.890625 
Q 56.203125 41.796875 56.203125 29.59375 
z
M 47.21875 32.234375 
Q 47.125 39.59375 43.09375 43.984375 
Q 39.0625 48.390625 32.421875 48.390625 
Q 24.90625 48.390625 20.390625 44.140625 
Q 15.875 39.890625 15.1875 32.171875 
z
" id="DejaVuSans-101"/>
     <path d="M 18.3125 70.21875 
L 18.3125 54.6875 
L 36.8125 54.6875 
L 36.8125 47.703125 
L 18.3125 47.703125 
L 18.3125 18.015625 
Q 18.3125 11.328125 20.140625 9.421875 
Q 21.96875 7.515625 27.59375 7.515625 
L 36.8125 7.515625 
L 36.8125 0 
L 27.59375 0 
Q 17.1875 0 13.234375 3.875 
Q 9.28125 7.765625 9.28125 18.015625 
L 9.28125 47.703125 
L 2.6875 47.703125 
L 2.6875 54.6875 
L 9.28125 54.6875 
L 9.28125 70.21875 
z
" id="DejaVuSans-116"/>
     <path d="M 4.203125 54.6875 
L 13.1875 54.6875 
L 24.421875 12.015625 
L 35.59375 54.6875 
L 46.1875 54.6875 
L 57.421875 12.015625 
L 68.609375 54.6875 
L 77.59375 54.6875 
L 63.28125 0 
L 52.6875 0 
L 40.921875 44.828125 
L 29.109375 0 
L 18.5 0 
z
" id="DejaVuSans-119"/>
     <path d="M 30.609375 48.390625 
Q 23.390625 48.390625 19.1875 42.75 
Q 14.984375 37.109375 14.984375 27.296875 
Q 14.984375 17.484375 19.15625 11.84375 
Q 23.34375 6.203125 30.609375 6.203125 
Q 37.796875 6.203125 41.984375 11.859375 
Q 46.1875 17.53125 46.1875 27.296875 
Q 46.1875 37.015625 41.984375 42.703125 
Q 37.796875 48.390625 30.609375 48.390625 
z
M 30.609375 56 
Q 42.328125 56 49.015625 48.375 
Q 55.71875 40.765625 55.71875 27.296875 
Q 55.71875 13.875 49.015625 6.21875 
Q 42.328125 -1.421875 30.609375 -1.421875 
Q 18.84375 -1.421875 12.171875 6.21875 
Q 5.515625 13.875 5.515625 27.296875 
Q 5.515625 40.765625 12.171875 48.375 
Q 18.84375 56 30.609375 56 
z
" id="DejaVuSans-111"/>
     <path d="M 41.109375 46.296875 
Q 39.59375 47.171875 37.8125 47.578125 
Q 36.03125 48 33.890625 48 
Q 26.265625 48 22.1875 43.046875 
Q 18.109375 38.09375 18.109375 28.8125 
L 18.109375 0 
L 9.078125 0 
L 9.078125 54.6875 
L 18.109375 54.6875 
L 18.109375 46.1875 
Q 20.953125 51.171875 25.484375 53.578125 
Q 30.03125 56 36.53125 56 
Q 37.453125 56 38.578125 55.875 
Q 39.703125 55.765625 41.0625 55.515625 
z
" id="DejaVuSans-114"/>
     <path d="M 9.078125 75.984375 
L 18.109375 75.984375 
L 18.109375 31.109375 
L 44.921875 54.6875 
L 56.390625 54.6875 
L 27.390625 29.109375 
L 57.625 0 
L 45.90625 0 
L 18.109375 26.703125 
L 18.109375 0 
L 9.078125 0 
z
" id="DejaVuSans-107"/>
     <path d="M 18.109375 8.203125 
L 18.109375 -20.796875 
L 9.078125 -20.796875 
L 9.078125 54.6875 
L 18.109375 54.6875 
L 18.109375 46.390625 
Q 20.953125 51.265625 25.265625 53.625 
Q 29.59375 56 35.59375 56 
Q 45.5625 56 51.78125 48.09375 
Q 58.015625 40.1875 58.015625 27.296875 
Q 58.015625 14.40625 51.78125 6.484375 
Q 45.5625 -1.421875 35.59375 -1.421875 
Q 29.59375 -1.421875 25.265625 0.953125 
Q 20.953125 3.328125 18.109375 8.203125 
z
M 48.6875 27.296875 
Q 48.6875 37.203125 44.609375 42.84375 
Q 40.53125 48.484375 33.40625 48.484375 
Q 26.265625 48.484375 22.1875 42.84375 
Q 18.109375 37.203125 18.109375 27.296875 
Q 18.109375 17.390625 22.1875 11.75 
Q 26.265625 6.109375 33.40625 6.109375 
Q 40.53125 6.109375 44.609375 11.75 
Q 48.6875 17.390625 48.6875 27.296875 
z
" id="DejaVuSans-112"/>
     <path d="M 9.421875 75.984375 
L 18.40625 75.984375 
L 18.40625 0 
L 9.421875 0 
z
" id="DejaVuSans-108"/>
     <path d="M 32.171875 -5.078125 
Q 28.375 -14.84375 24.75 -17.8125 
Q 21.140625 -20.796875 15.09375 -20.796875 
L 7.90625 -20.796875 
L 7.90625 -13.28125 
L 13.1875 -13.28125 
Q 16.890625 -13.28125 18.9375 -11.515625 
Q 21 -9.765625 23.484375 -3.21875 
L 25.09375 0.875 
L 2.984375 54.6875 
L 12.5 54.6875 
L 29.59375 11.921875 
L 46.6875 54.6875 
L 56.203125 54.6875 
z
" id="DejaVuSans-121"/>
     <path d="M 31 75.875 
Q 24.46875 64.65625 21.28125 53.65625 
Q 18.109375 42.671875 18.109375 31.390625 
Q 18.109375 20.125 21.3125 9.0625 
Q 24.515625 -2 31 -13.1875 
L 23.1875 -13.1875 
Q 15.875 -1.703125 12.234375 9.375 
Q 8.59375 20.453125 8.59375 31.390625 
Q 8.59375 42.28125 12.203125 53.3125 
Q 15.828125 64.359375 23.1875 75.875 
z
" id="DejaVuSans-40"/>
     <path d="M 59.515625 10.40625 
L 59.515625 29.984375 
L 43.40625 29.984375 
L 43.40625 38.09375 
L 69.28125 38.09375 
L 69.28125 6.78125 
Q 63.578125 2.734375 56.6875 0.65625 
Q 49.8125 -1.421875 42 -1.421875 
Q 24.90625 -1.421875 15.25 8.5625 
Q 5.609375 18.5625 5.609375 36.375 
Q 5.609375 54.25 15.25 64.234375 
Q 24.90625 74.21875 42 74.21875 
Q 49.125 74.21875 55.546875 72.453125 
Q 61.96875 70.703125 67.390625 67.28125 
L 67.390625 56.78125 
Q 61.921875 61.421875 55.765625 63.765625 
Q 49.609375 66.109375 42.828125 66.109375 
Q 29.4375 66.109375 22.71875 58.640625 
Q 16.015625 51.171875 16.015625 36.375 
Q 16.015625 21.625 22.71875 14.15625 
Q 29.4375 6.6875 42.828125 6.6875 
Q 48.046875 6.6875 52.140625 7.59375 
Q 56.25 8.5 59.515625 10.40625 
z
" id="DejaVuSans-71"/>
     <path d="M 52 44.1875 
Q 55.375 50.25 60.0625 53.125 
Q 64.75 56 71.09375 56 
Q 79.640625 56 84.28125 50.015625 
Q 88.921875 44.046875 88.921875 33.015625 
L 88.921875 0 
L 79.890625 0 
L 79.890625 32.71875 
Q 79.890625 40.578125 77.09375 44.375 
Q 74.3125 48.1875 68.609375 48.1875 
Q 61.625 48.1875 57.5625 43.546875 
Q 53.515625 38.921875 53.515625 30.90625 
L 53.515625 0 
L 44.484375 0 
L 44.484375 32.71875 
Q 44.484375 40.625 41.703125 44.40625 
Q 38.921875 48.1875 33.109375 48.1875 
Q 26.21875 48.1875 22.15625 43.53125 
Q 18.109375 38.875 18.109375 30.90625 
L 18.109375 0 
L 9.078125 0 
L 9.078125 54.6875 
L 18.109375 54.6875 
L 18.109375 46.1875 
Q 21.1875 51.21875 25.484375 53.609375 
Q 29.78125 56 35.6875 56 
Q 41.65625 56 45.828125 52.96875 
Q 50 49.953125 52 44.1875 
z
" id="DejaVuSans-109"/>
     <path d="M 34.28125 27.484375 
Q 23.390625 27.484375 19.1875 25 
Q 14.984375 22.515625 14.984375 16.5 
Q 14.984375 11.71875 18.140625 8.90625 
Q 21.296875 6.109375 26.703125 6.109375 
Q 34.1875 6.109375 38.703125 11.40625 
Q 43.21875 16.703125 43.21875 25.484375 
L 43.21875 27.484375 
z
M 52.203125 31.203125 
L 52.203125 0 
L 43.21875 0 
L 43.21875 8.296875 
Q 40.140625 3.328125 35.546875 0.953125 
Q 30.953125 -1.421875 24.3125 -1.421875 
Q 15.921875 -1.421875 10.953125 3.296875 
Q 6 8.015625 6 15.921875 
Q 6 25.140625 12.171875 29.828125 
Q 18.359375 34.515625 30.609375 34.515625 
L 43.21875 34.515625 
L 43.21875 35.40625 
Q 43.21875 41.609375 39.140625 45 
Q 35.0625 48.390625 27.6875 48.390625 
Q 23 48.390625 18.546875 47.265625 
Q 14.109375 46.140625 10.015625 43.890625 
L 10.015625 52.203125 
Q 14.9375 54.109375 19.578125 55.046875 
Q 24.21875 56 28.609375 56 
Q 40.484375 56 46.34375 49.84375 
Q 52.203125 43.703125 52.203125 31.203125 
z
" id="DejaVuSans-97"/>
     <path d="M 54.890625 33.015625 
L 54.890625 0 
L 45.90625 0 
L 45.90625 32.71875 
Q 45.90625 40.484375 42.875 44.328125 
Q 39.84375 48.1875 33.796875 48.1875 
Q 26.515625 48.1875 22.3125 43.546875 
Q 18.109375 38.921875 18.109375 30.90625 
L 18.109375 0 
L 9.078125 0 
L 9.078125 54.6875 
L 18.109375 54.6875 
L 18.109375 46.1875 
Q 21.34375 51.125 25.703125 53.5625 
Q 30.078125 56 35.796875 56 
Q 45.21875 56 50.046875 50.171875 
Q 54.890625 44.34375 54.890625 33.015625 
z
" id="DejaVuSans-110"/>
     <path d="M 8.015625 75.875 
L 15.828125 75.875 
Q 23.140625 64.359375 26.78125 53.3125 
Q 30.421875 42.28125 30.421875 31.390625 
Q 30.421875 20.453125 26.78125 9.375 
Q 23.140625 -1.703125 15.828125 -13.1875 
L 8.015625 -13.1875 
Q 14.5 -2 17.703125 9.0625 
Q 20.90625 20.125 20.90625 31.390625 
Q 20.90625 42.671875 17.703125 53.65625 
Q 14.5 64.65625 8.015625 75.875 
z
" id="DejaVuSans-41"/>
    </defs>
    <g transform="translate(98.547188 22.362625)scale(0.12 -0.12)">
     <use xlink:href="#DejaVuSans-70"/>
     <use x="57.410156" xlink:href="#DejaVuSans-105"/>
     <use x="85.193359" xlink:href="#DejaVuSans-103"/>
     <use x="148.669922" xlink:href="#DejaVuSans-46"/>
     <use x="180.457031" xlink:href="#DejaVuSans-32"/>
     <use x="212.244141" xlink:href="#DejaVuSans-50"/>
     <use x="275.867188" xlink:href="#DejaVuSans-58"/>
     <use x="309.558594" xlink:href="#DejaVuSans-32"/>
     <use x="341.345703" xlink:href="#DejaVuSans-78"/>
     <use x="416.150391" xlink:href="#DejaVuSans-101"/>
     <use x="477.673828" xlink:href="#DejaVuSans-116"/>
     <use x="516.882812" xlink:href="#DejaVuSans-119"/>
     <use x="598.669922" xlink:href="#DejaVuSans-111"/>
     <use x="659.851562" xlink:href="#DejaVuSans-114"/>
     <use x="700.964844" xlink:href="#DejaVuSans-107"/>
     <use x="758.875" xlink:href="#DejaVuSans-32"/>
     <use x="790.662109" xlink:href="#DejaVuSans-116"/>
     <use x="829.871094" xlink:href="#DejaVuSans-111"/>
     <use x="891.052734" xlink:href="#DejaVuSans-112"/>
     <use x="954.529297" xlink:href="#DejaVuSans-111"/>
     <use x="1015.710938" xlink:href="#DejaVuSans-108"/>
     <use x="1043.494141" xlink:href="#DejaVuSans-111"/>
     <use x="1104.675781" xlink:href="#DejaVuSans-103"/>
     <use x="1168.152344" xlink:href="#DejaVuSans-121"/>
     <use x="1227.332031" xlink:href="#DejaVuSans-32"/>
     <use x="1259.119141" xlink:href="#DejaVuSans-40"/>
     <use x="1298.132812" xlink:href="#DejaVuSans-71"/>
     <use x="1375.623047" xlink:href="#DejaVuSans-101"/>
     <use x="1437.146484" xlink:href="#DejaVuSans-114"/>
     <use x="1478.244141" xlink:href="#DejaVuSans-109"/>
     <use x="1575.65625" xlink:href="#DejaVuSans-97"/>
     <use x="1636.935547" xlink:href="#DejaVuSans-110"/>
     <use x="1700.314453" xlink:href="#DejaVuSans-121"/>
     <use x="1759.494141" xlink:href="#DejaVuSans-53"/>
     <use x="1823.117188" xlink:href="#DejaVuSans-48"/>
     <use x="1886.740234" xlink:href="#DejaVuSans-41"/>
     <use x="1925.753906" xlink:href="#DejaVuSans-32"/>
    </g>
    <!--  used for the study carried in this chapter. -->
    <defs>
     <path d="M 8.5 21.578125 
L 8.5 54.6875 
L 17.484375 54.6875 
L 17.484375 21.921875 
Q 17.484375 14.15625 20.5 10.265625 
Q 23.53125 6.390625 29.59375 6.390625 
Q 36.859375 6.390625 41.078125 11.03125 
Q 45.3125 15.671875 45.3125 23.6875 
L 45.3125 54.6875 
L 54.296875 54.6875 
L 54.296875 0 
L 45.3125 0 
L 45.3125 8.40625 
Q 42.046875 3.421875 37.71875 1 
Q 33.40625 -1.421875 27.6875 -1.421875 
Q 18.265625 -1.421875 13.375 4.4375 
Q 8.5 10.296875 8.5 21.578125 
z
M 31.109375 56 
z
" id="DejaVuSans-117"/>
     <path d="M 44.28125 53.078125 
L 44.28125 44.578125 
Q 40.484375 46.53125 36.375 47.5 
Q 32.28125 48.484375 27.875 48.484375 
Q 21.1875 48.484375 17.84375 46.4375 
Q 14.5 44.390625 14.5 40.28125 
Q 14.5 37.15625 16.890625 35.375 
Q 19.28125 33.59375 26.515625 31.984375 
L 29.59375 31.296875 
Q 39.15625 29.25 43.1875 25.515625 
Q 47.21875 21.78125 47.21875 15.09375 
Q 47.21875 7.46875 41.1875 3.015625 
Q 35.15625 -1.421875 24.609375 -1.421875 
Q 20.21875 -1.421875 15.453125 -0.5625 
Q 10.6875 0.296875 5.421875 2 
L 5.421875 11.28125 
Q 10.40625 8.6875 15.234375 7.390625 
Q 20.0625 6.109375 24.8125 6.109375 
Q 31.15625 6.109375 34.5625 8.28125 
Q 37.984375 10.453125 37.984375 14.40625 
Q 37.984375 18.0625 35.515625 20.015625 
Q 33.0625 21.96875 24.703125 23.78125 
L 21.578125 24.515625 
Q 13.234375 26.265625 9.515625 29.90625 
Q 5.8125 33.546875 5.8125 39.890625 
Q 5.8125 47.609375 11.28125 51.796875 
Q 16.75 56 26.8125 56 
Q 31.78125 56 36.171875 55.265625 
Q 40.578125 54.546875 44.28125 53.078125 
z
" id="DejaVuSans-115"/>
     <path d="M 45.40625 46.390625 
L 45.40625 75.984375 
L 54.390625 75.984375 
L 54.390625 0 
L 45.40625 0 
L 45.40625 8.203125 
Q 42.578125 3.328125 38.25 0.953125 
Q 33.9375 -1.421875 27.875 -1.421875 
Q 17.96875 -1.421875 11.734375 6.484375 
Q 5.515625 14.40625 5.515625 27.296875 
Q 5.515625 40.1875 11.734375 48.09375 
Q 17.96875 56 27.875 56 
Q 33.9375 56 38.25 53.625 
Q 42.578125 51.265625 45.40625 46.390625 
z
M 14.796875 27.296875 
Q 14.796875 17.390625 18.875 11.75 
Q 22.953125 6.109375 30.078125 6.109375 
Q 37.203125 6.109375 41.296875 11.75 
Q 45.40625 17.390625 45.40625 27.296875 
Q 45.40625 37.203125 41.296875 42.84375 
Q 37.203125 48.484375 30.078125 48.484375 
Q 22.953125 48.484375 18.875 42.84375 
Q 14.796875 37.203125 14.796875 27.296875 
z
" id="DejaVuSans-100"/>
     <path d="M 37.109375 75.984375 
L 37.109375 68.5 
L 28.515625 68.5 
Q 23.6875 68.5 21.796875 66.546875 
Q 19.921875 64.59375 19.921875 59.515625 
L 19.921875 54.6875 
L 34.71875 54.6875 
L 34.71875 47.703125 
L 19.921875 47.703125 
L 19.921875 0 
L 10.890625 0 
L 10.890625 47.703125 
L 2.296875 47.703125 
L 2.296875 54.6875 
L 10.890625 54.6875 
L 10.890625 58.5 
Q 10.890625 67.625 15.140625 71.796875 
Q 19.390625 75.984375 28.609375 75.984375 
z
" id="DejaVuSans-102"/>
     <path d="M 54.890625 33.015625 
L 54.890625 0 
L 45.90625 0 
L 45.90625 32.71875 
Q 45.90625 40.484375 42.875 44.328125 
Q 39.84375 48.1875 33.796875 48.1875 
Q 26.515625 48.1875 22.3125 43.546875 
Q 18.109375 38.921875 18.109375 30.90625 
L 18.109375 0 
L 9.078125 0 
L 9.078125 75.984375 
L 18.109375 75.984375 
L 18.109375 46.1875 
Q 21.34375 51.125 25.703125 53.5625 
Q 30.078125 56 35.796875 56 
Q 45.21875 56 50.046875 50.171875 
Q 54.890625 44.34375 54.890625 33.015625 
z
" id="DejaVuSans-104"/>
     <path d="M 48.78125 52.59375 
L 48.78125 44.1875 
Q 44.96875 46.296875 41.140625 47.34375 
Q 37.3125 48.390625 33.40625 48.390625 
Q 24.65625 48.390625 19.8125 42.84375 
Q 14.984375 37.3125 14.984375 27.296875 
Q 14.984375 17.28125 19.8125 11.734375 
Q 24.65625 6.203125 33.40625 6.203125 
Q 37.3125 6.203125 41.140625 7.25 
Q 44.96875 8.296875 48.78125 10.40625 
L 48.78125 2.09375 
Q 45.015625 0.34375 40.984375 -0.53125 
Q 36.96875 -1.421875 32.421875 -1.421875 
Q 20.0625 -1.421875 12.78125 6.34375 
Q 5.515625 14.109375 5.515625 27.296875 
Q 5.515625 40.671875 12.859375 48.328125 
Q 20.21875 56 33.015625 56 
Q 37.15625 56 41.109375 55.140625 
Q 45.0625 54.296875 48.78125 52.59375 
z
" id="DejaVuSans-99"/>
    </defs>
    <g transform="translate(89.089688 35.8)scale(0.12 -0.12)">
     <use xlink:href="#DejaVuSans-32"/>
     <use x="31.787109" xlink:href="#DejaVuSans-117"/>
     <use x="95.166016" xlink:href="#DejaVuSans-115"/>
     <use x="147.265625" xlink:href="#DejaVuSans-101"/>
     <use x="208.789062" xlink:href="#DejaVuSans-100"/>
     <use x="272.265625" xlink:href="#DejaVuSans-32"/>
     <use x="304.052734" xlink:href="#DejaVuSans-102"/>
     <use x="339.257812" xlink:href="#DejaVuSans-111"/>
     <use x="400.439453" xlink:href="#DejaVuSans-114"/>
     <use x="441.552734" xlink:href="#DejaVuSans-32"/>
     <use x="473.339844" xlink:href="#DejaVuSans-116"/>
     <use x="512.548828" xlink:href="#DejaVuSans-104"/>
     <use x="575.927734" xlink:href="#DejaVuSans-101"/>
     <use x="637.451172" xlink:href="#DejaVuSans-32"/>
     <use x="669.238281" xlink:href="#DejaVuSans-115"/>
     <use x="721.337891" xlink:href="#DejaVuSans-116"/>
     <use x="760.546875" xlink:href="#DejaVuSans-117"/>
     <use x="823.925781" xlink:href="#DejaVuSans-100"/>
     <use x="887.402344" xlink:href="#DejaVuSans-121"/>
     <use x="946.582031" xlink:href="#DejaVuSans-32"/>
     <use x="978.369141" xlink:href="#DejaVuSans-99"/>
     <use x="1033.349609" xlink:href="#DejaVuSans-97"/>
     <use x="1094.628906" xlink:href="#DejaVuSans-114"/>
     <use x="1135.726562" xlink:href="#DejaVuSans-114"/>
     <use x="1176.839844" xlink:href="#DejaVuSans-105"/>
     <use x="1204.623047" xlink:href="#DejaVuSans-101"/>
     <use x="1266.146484" xlink:href="#DejaVuSans-100"/>
     <use x="1329.623047" xlink:href="#DejaVuSans-32"/>
     <use x="1361.410156" xlink:href="#DejaVuSans-105"/>
     <use x="1389.193359" xlink:href="#DejaVuSans-110"/>
     <use x="1452.572266" xlink:href="#DejaVuSans-32"/>
     <use x="1484.359375" xlink:href="#DejaVuSans-116"/>
     <use x="1523.568359" xlink:href="#DejaVuSans-104"/>
     <use x="1586.947266" xlink:href="#DejaVuSans-105"/>
     <use x="1614.730469" xlink:href="#DejaVuSans-115"/>
     <use x="1666.830078" xlink:href="#DejaVuSans-32"/>
     <use x="1698.617188" xlink:href="#DejaVuSans-99"/>
     <use x="1753.597656" xlink:href="#DejaVuSans-104"/>
     <use x="1816.976562" xlink:href="#DejaVuSans-97"/>
     <use x="1878.255859" xlink:href="#DejaVuSans-112"/>
     <use x="1941.732422" xlink:href="#DejaVuSans-116"/>
     <use x="1980.941406" xlink:href="#DejaVuSans-101"/>
     <use x="2042.464844" xlink:href="#DejaVuSans-114"/>
     <use x="2083.4375" xlink:href="#DejaVuSans-46"/>
    </g>
   </g>
  </g>
 </g>
 <defs>
  <clipPath id="pac4c3317b0">
   <rect height="523.4" width="410.4" x="10.8" y="41.8"/>
  </clipPath>
 </defs>
</svg>
