<?xml version="1.0" encoding="utf-8" standalone="no"?>
<!DOCTYPE svg PUBLIC "-//W3C//DTD SVG 1.1//EN"
  "http://www.w3.org/Graphics/SVG/1.1/DTD/svg11.dtd">
<!-- Created with matplotlib (https://matplotlib.org/) -->
<svg height="252pt" version="1.1" viewBox="0 0 720 252" width="720pt" xmlns="http://www.w3.org/2000/svg" xmlns:xlink="http://www.w3.org/1999/xlink">
 <defs>
  <style type="text/css">
*{stroke-linecap:butt;stroke-linejoin:round;white-space:pre;}
  </style>
 </defs>
 <g id="figure_1">
  <g id="patch_1">
   <path d="M 0 252 
L 720 252 
L 720 0 
L 0 0 
z
" style="fill:#ffffff;"/>
  </g>
  <g id="axes_1">
   <g id="patch_2">
    <path d="M 68.529492 206.2 
L 602.6 206.2 
L 602.6 28.8 
L 68.529492 28.8 
z
" style="fill:#ffffff;"/>
   </g>
   <g id="PolyCollection_1">
    <path clip-path="url(#pbd87703428)" d="M 92.805424 198.136364 
L 92.805424 198.136364 
L 105.25462 198.136364 
L 117.703816 198.136364 
L 130.153012 198.136364 
L 142.602208 198.136364 
L 155.051404 198.136364 
L 167.5006 198.136364 
L 179.949796 198.136364 
L 192.398992 198.136364 
L 204.848188 198.136364 
L 217.297384 198.136364 
L 229.74658 198.136364 
L 242.195776 198.136364 
L 254.644972 198.136364 
L 267.094168 198.136364 
L 279.543364 198.136364 
L 291.99256 198.136364 
L 304.441756 198.136364 
L 316.890952 198.136364 
L 329.340148 198.136364 
L 341.789344 198.136364 
L 354.23854 198.136364 
L 366.687736 198.136364 
L 379.136932 198.136364 
L 391.586128 198.136364 
L 404.035324 198.136364 
L 416.48452 198.136364 
L 428.933716 198.136364 
L 441.382912 198.136364 
L 453.832108 198.136364 
L 466.281304 198.136364 
L 478.7305 198.136364 
L 491.179696 198.136364 
L 503.628892 198.136364 
L 516.078088 198.136364 
L 528.527284 198.136364 
L 540.97648 198.136364 
L 553.425676 198.136364 
L 565.874872 198.136364 
L 578.324068 198.136364 
L 578.324068 156.839781 
L 578.324068 156.839781 
L 565.874872 156.839781 
L 553.425676 158.582986 
L 540.97648 175.003732 
L 528.527284 175.838085 
L 516.078088 176.827918 
L 503.628892 180.653622 
L 491.179696 185.018621 
L 478.7305 185.480385 
L 466.281304 185.480385 
L 453.832108 185.018621 
L 441.382912 185.207436 
L 428.933716 187.32819 
L 416.48452 187.32819 
L 404.035324 192.407012 
L 391.586128 192.407012 
L 379.136932 192.407012 
L 366.687736 192.407012 
L 354.23854 192.407012 
L 341.789344 192.407012 
L 329.340148 192.407012 
L 316.890952 191.945247 
L 304.441756 192.407012 
L 291.99256 192.911013 
L 279.543364 192.911013 
L 267.094168 192.905686 
L 254.644972 193.094502 
L 242.195776 193.094502 
L 229.74658 197.928134 
L 217.297384 197.928134 
L 204.848188 197.744645 
L 192.398992 197.744645 
L 179.949796 197.952874 
L 167.5006 197.952874 
L 155.051404 197.952874 
L 142.602208 197.952874 
L 130.153012 197.952874 
L 117.703816 197.952874 
L 105.25462 198.136364 
L 92.805424 198.136364 
z
" style="fill:url(#h9481e8c579);stroke:#ffffff;"/>
   </g>
   <g id="PolyCollection_2">
    <path clip-path="url(#pbd87703428)" d="M 92.805424 194.177536 
L 92.805424 198.136364 
L 105.25462 198.136364 
L 117.703816 197.952874 
L 130.153012 197.952874 
L 142.602208 197.952874 
L 155.051404 197.952874 
L 167.5006 197.952874 
L 179.949796 197.952874 
L 192.398992 197.744645 
L 204.848188 197.744645 
L 217.297384 197.928134 
L 229.74658 197.928134 
L 242.195776 193.094502 
L 254.644972 193.094502 
L 267.094168 192.905686 
L 279.543364 192.911013 
L 291.99256 192.911013 
L 304.441756 192.407012 
L 316.890952 191.945247 
L 329.340148 192.407012 
L 341.789344 192.407012 
L 354.23854 192.407012 
L 366.687736 192.407012 
L 379.136932 192.407012 
L 391.586128 192.407012 
L 404.035324 192.407012 
L 416.48452 187.32819 
L 428.933716 187.32819 
L 441.382912 185.207436 
L 453.832108 185.018621 
L 466.281304 185.480385 
L 478.7305 185.480385 
L 491.179696 185.018621 
L 503.628892 180.653622 
L 516.078088 176.827918 
L 528.527284 175.838085 
L 540.97648 175.003732 
L 553.425676 158.582986 
L 565.874872 156.839781 
L 578.324068 156.839781 
L 578.324068 97.284121 
L 578.324068 97.284121 
L 565.874872 97.284121 
L 553.425676 97.284121 
L 540.97648 112.300451 
L 528.527284 112.300451 
L 516.078088 132.422714 
L 503.628892 137.300707 
L 491.179696 138.589564 
L 478.7305 137.300707 
L 466.281304 137.300707 
L 453.832108 137.300707 
L 441.382912 137.300707 
L 428.933716 139.796388 
L 416.48452 146.40315 
L 404.035324 135.906229 
L 391.586128 154.95592 
L 379.136932 154.419207 
L 366.687736 150.950202 
L 354.23854 155.365194 
L 341.789344 155.365194 
L 329.340148 161.897264 
L 316.890952 161.897264 
L 304.441756 162.610266 
L 291.99256 161.897264 
L 279.543364 163.403958 
L 267.094168 163.403958 
L 254.644972 171.579868 
L 242.195776 171.579868 
L 229.74658 171.579868 
L 217.297384 171.579868 
L 204.848188 171.020124 
L 192.398992 171.020124 
L 179.949796 181.393264 
L 167.5006 187.642969 
L 155.051404 188.672343 
L 142.602208 190.725755 
L 130.153012 190.395404 
L 117.703816 191.742751 
L 105.25462 192.898319 
L 92.805424 194.177536 
z
" style="fill:url(#hc9896001e5);stroke:#ffffff;"/>
   </g>
   <g id="PolyCollection_3">
    <path clip-path="url(#pbd87703428)" d="M 92.805424 178.407951 
L 92.805424 194.177536 
L 105.25462 192.898319 
L 117.703816 191.742751 
L 130.153012 190.395404 
L 142.602208 190.725755 
L 155.051404 188.672343 
L 167.5006 187.642969 
L 179.949796 181.393264 
L 192.398992 171.020124 
L 204.848188 171.020124 
L 217.297384 171.579868 
L 229.74658 171.579868 
L 242.195776 171.579868 
L 254.644972 171.579868 
L 267.094168 163.403958 
L 279.543364 163.403958 
L 291.99256 161.897264 
L 304.441756 162.610266 
L 316.890952 161.897264 
L 329.340148 161.897264 
L 341.789344 155.365194 
L 354.23854 155.365194 
L 366.687736 150.950202 
L 379.136932 154.419207 
L 391.586128 154.95592 
L 404.035324 135.906229 
L 416.48452 146.40315 
L 428.933716 139.796388 
L 441.382912 137.300707 
L 453.832108 137.300707 
L 466.281304 137.300707 
L 478.7305 137.300707 
L 491.179696 138.589564 
L 503.628892 137.300707 
L 516.078088 132.422714 
L 528.527284 112.300451 
L 540.97648 112.300451 
L 553.425676 97.284121 
L 565.874872 97.284121 
L 578.324068 97.284121 
L 578.324068 67.624795 
L 578.324068 67.624795 
L 565.874872 67.624795 
L 553.425676 67.624795 
L 540.97648 97.284121 
L 528.527284 97.284121 
L 516.078088 97.284121 
L 503.628892 105.031319 
L 491.179696 120.047649 
L 478.7305 117.510802 
L 466.281304 120.047649 
L 453.832108 120.047649 
L 441.382912 120.047649 
L 428.933716 120.047649 
L 416.48452 124.278562 
L 404.035324 124.278562 
L 391.586128 128.319589 
L 379.136932 127.525947 
L 366.687736 127.525947 
L 354.23854 127.525947 
L 341.789344 127.525947 
L 329.340148 134.058017 
L 316.890952 134.058017 
L 304.441756 135.700555 
L 291.99256 134.058017 
L 279.543364 135.700555 
L 267.094168 136.907378 
L 254.644972 151.819291 
L 242.195776 155.106423 
L 229.74658 145.358046 
L 217.297384 145.358046 
L 204.848188 150.318877 
L 192.398992 150.318877 
L 179.949796 161.693449 
L 167.5006 163.619347 
L 155.051404 164.332349 
L 142.602208 167.725624 
L 130.153012 168.643495 
L 117.703816 176.064491 
L 105.25462 176.064491 
L 92.805424 178.407951 
z
" style="fill:url(#h7d3c1838a5);stroke:#ffffff;"/>
   </g>
   <g id="PolyCollection_4">
    <path clip-path="url(#pbd87703428)" d="M 92.805424 155.453126 
L 92.805424 178.407951 
L 105.25462 176.064491 
L 117.703816 176.064491 
L 130.153012 168.643495 
L 142.602208 167.725624 
L 155.051404 164.332349 
L 167.5006 163.619347 
L 179.949796 161.693449 
L 192.398992 150.318877 
L 204.848188 150.318877 
L 217.297384 145.358046 
L 229.74658 145.358046 
L 242.195776 155.106423 
L 254.644972 151.819291 
L 267.094168 136.907378 
L 279.543364 135.700555 
L 291.99256 134.058017 
L 304.441756 135.700555 
L 316.890952 134.058017 
L 329.340148 134.058017 
L 341.789344 127.525947 
L 354.23854 127.525947 
L 366.687736 127.525947 
L 379.136932 127.525947 
L 391.586128 128.319589 
L 404.035324 124.278562 
L 416.48452 124.278562 
L 428.933716 120.047649 
L 441.382912 120.047649 
L 453.832108 120.047649 
L 466.281304 120.047649 
L 478.7305 117.510802 
L 491.179696 120.047649 
L 503.628892 105.031319 
L 516.078088 97.284121 
L 528.527284 97.284121 
L 540.97648 97.284121 
L 553.425676 67.624795 
L 565.874872 67.624795 
L 578.324068 67.624795 
L 578.324068 67.624795 
L 578.324068 67.624795 
L 565.874872 67.624795 
L 553.425676 67.624795 
L 540.97648 67.624795 
L 528.527284 67.624795 
L 516.078088 67.624795 
L 503.628892 67.624795 
L 491.179696 112.300451 
L 478.7305 97.284121 
L 466.281304 97.284121 
L 453.832108 97.284121 
L 441.382912 97.284121 
L 428.933716 97.284121 
L 416.48452 112.300451 
L 404.035324 112.300451 
L 391.586128 112.300451 
L 379.136932 112.300451 
L 366.687736 112.300451 
L 354.23854 112.300451 
L 341.789344 112.300451 
L 329.340148 116.812194 
L 316.890952 116.812194 
L 304.441756 116.812194 
L 291.99256 116.812194 
L 279.543364 116.812194 
L 267.094168 121.043107 
L 254.644972 121.043107 
L 242.195776 126.253458 
L 229.74658 126.253458 
L 217.297384 126.253458 
L 204.848188 134.704126 
L 192.398992 134.704126 
L 179.949796 134.704126 
L 167.5006 136.659758 
L 155.051404 140.42329 
L 142.602208 142.799139 
L 130.153012 148.188774 
L 117.703816 152.603765 
L 105.25462 155.453126 
L 92.805424 155.453126 
z
" style="fill:url(#h1933ccbd2e);stroke:#ffffff;"/>
   </g>
   <g id="PolyCollection_5">
    <path clip-path="url(#pbd87703428)" d="M 92.805424 87.152869 
L 92.805424 155.453126 
L 105.25462 155.453126 
L 117.703816 152.603765 
L 130.153012 148.188774 
L 142.602208 142.799139 
L 155.051404 140.42329 
L 167.5006 136.659758 
L 179.949796 134.704126 
L 192.398992 134.704126 
L 204.848188 134.704126 
L 217.297384 126.253458 
L 229.74658 126.253458 
L 242.195776 126.253458 
L 254.644972 121.043107 
L 267.094168 121.043107 
L 279.543364 116.812194 
L 291.99256 116.812194 
L 304.441756 116.812194 
L 316.890952 116.812194 
L 329.340148 116.812194 
L 341.789344 112.300451 
L 354.23854 112.300451 
L 366.687736 112.300451 
L 379.136932 112.300451 
L 391.586128 112.300451 
L 404.035324 112.300451 
L 416.48452 112.300451 
L 428.933716 97.284121 
L 441.382912 97.284121 
L 453.832108 97.284121 
L 466.281304 97.284121 
L 478.7305 97.284121 
L 491.179696 112.300451 
L 503.628892 67.624795 
L 516.078088 67.624795 
L 528.527284 67.624795 
L 540.97648 67.624795 
L 553.425676 67.624795 
L 565.874872 67.624795 
L 578.324068 67.624795 
L 578.324068 67.624795 
L 578.324068 67.624795 
L 565.874872 67.624795 
L 553.425676 67.624795 
L 540.97648 67.624795 
L 528.527284 67.624795 
L 516.078088 67.624795 
L 503.628892 67.624795 
L 491.179696 67.624795 
L 478.7305 67.624795 
L 466.281304 67.624795 
L 453.832108 67.624795 
L 441.382912 67.624795 
L 428.933716 67.624795 
L 416.48452 67.624795 
L 404.035324 67.624795 
L 391.586128 67.624795 
L 379.136932 67.624795 
L 366.687736 67.624795 
L 354.23854 67.624795 
L 341.789344 67.624795 
L 329.340148 67.624795 
L 316.890952 67.624795 
L 304.441756 67.624795 
L 291.99256 67.624795 
L 279.543364 67.624795 
L 267.094168 67.624795 
L 254.644972 67.624795 
L 242.195776 67.624795 
L 229.74658 67.624795 
L 217.297384 67.624795 
L 204.848188 67.624795 
L 192.398992 67.624795 
L 179.949796 67.624795 
L 167.5006 82.641125 
L 155.051404 82.641125 
L 142.602208 87.152869 
L 130.153012 87.152869 
L 117.703816 87.152869 
L 105.25462 87.152869 
L 92.805424 87.152869 
z
" style="fill:url(#hf651cabb25);stroke:#ffffff;"/>
   </g>
   <g id="PolyCollection_6">
    <path clip-path="url(#pbd87703428)" d="M 92.805424 36.863636 
L 92.805424 87.152869 
L 105.25462 87.152869 
L 117.703816 87.152869 
L 130.153012 87.152869 
L 142.602208 87.152869 
L 155.051404 82.641125 
L 167.5006 82.641125 
L 179.949796 67.624795 
L 192.398992 67.624795 
L 204.848188 67.624795 
L 217.297384 67.624795 
L 229.74658 67.624795 
L 242.195776 67.624795 
L 254.644972 67.624795 
L 267.094168 67.624795 
L 279.543364 67.624795 
L 291.99256 67.624795 
L 304.441756 67.624795 
L 316.890952 67.624795 
L 329.340148 67.624795 
L 341.789344 67.624795 
L 354.23854 67.624795 
L 366.687736 67.624795 
L 379.136932 67.624795 
L 391.586128 67.624795 
L 404.035324 67.624795 
L 416.48452 67.624795 
L 428.933716 67.624795 
L 441.382912 67.624795 
L 453.832108 67.624795 
L 466.281304 67.624795 
L 478.7305 67.624795 
L 491.179696 67.624795 
L 503.628892 67.624795 
L 516.078088 67.624795 
L 528.527284 67.624795 
L 540.97648 67.624795 
L 553.425676 67.624795 
L 565.874872 67.624795 
L 578.324068 67.624795 
L 578.324068 36.863636 
L 578.324068 36.863636 
L 565.874872 36.863636 
L 553.425676 36.863636 
L 540.97648 36.863636 
L 528.527284 36.863636 
L 516.078088 36.863636 
L 503.628892 36.863636 
L 491.179696 36.863636 
L 478.7305 36.863636 
L 466.281304 36.863636 
L 453.832108 36.863636 
L 441.382912 36.863636 
L 428.933716 36.863636 
L 416.48452 36.863636 
L 404.035324 36.863636 
L 391.586128 36.863636 
L 379.136932 36.863636 
L 366.687736 36.863636 
L 354.23854 36.863636 
L 341.789344 36.863636 
L 329.340148 36.863636 
L 316.890952 36.863636 
L 304.441756 36.863636 
L 291.99256 36.863636 
L 279.543364 36.863636 
L 267.094168 36.863636 
L 254.644972 36.863636 
L 242.195776 36.863636 
L 229.74658 36.863636 
L 217.297384 36.863636 
L 204.848188 36.863636 
L 192.398992 36.863636 
L 179.949796 36.863636 
L 167.5006 36.863636 
L 155.051404 36.863636 
L 142.602208 36.863636 
L 130.153012 36.863636 
L 117.703816 36.863636 
L 105.25462 36.863636 
L 92.805424 36.863636 
z
" style="fill:url(#h60cd69b5f9);stroke:#ffffff;"/>
   </g>
   <g id="matplotlib.axis_1">
    <g id="xtick_1">
     <g id="line2d_1">
      <defs>
       <path d="M 0 0 
L 0 3.5 
" id="mbed50b73e2" style="stroke:#000000;stroke-width:0.8;"/>
      </defs>
      <g>
       <use style="stroke:#000000;stroke-width:0.8;" x="92.805424" xlink:href="#mbed50b73e2" y="206.2"/>
      </g>
     </g>
     <g id="text_1">
      <!-- 0 -->
      <defs>
       <path d="M 31.78125 66.40625 
Q 24.171875 66.40625 20.328125 58.90625 
Q 16.5 51.421875 16.5 36.375 
Q 16.5 21.390625 20.328125 13.890625 
Q 24.171875 6.390625 31.78125 6.390625 
Q 39.453125 6.390625 43.28125 13.890625 
Q 47.125 21.390625 47.125 36.375 
Q 47.125 51.421875 43.28125 58.90625 
Q 39.453125 66.40625 31.78125 66.40625 
z
M 31.78125 74.21875 
Q 44.046875 74.21875 50.515625 64.515625 
Q 56.984375 54.828125 56.984375 36.375 
Q 56.984375 17.96875 50.515625 8.265625 
Q 44.046875 -1.421875 31.78125 -1.421875 
Q 19.53125 -1.421875 13.0625 8.265625 
Q 6.59375 17.96875 6.59375 36.375 
Q 6.59375 54.828125 13.0625 64.515625 
Q 19.53125 74.21875 31.78125 74.21875 
z
" id="DejaVuSans-48"/>
      </defs>
      <g transform="translate(89.624174 220.798438)scale(0.1 -0.1)">
       <use xlink:href="#DejaVuSans-48"/>
      </g>
     </g>
    </g>
    <g id="xtick_2">
     <g id="line2d_2">
      <g>
       <use style="stroke:#000000;stroke-width:0.8;" x="155.051404" xlink:href="#mbed50b73e2" y="206.2"/>
      </g>
     </g>
     <g id="text_2">
      <!-- 5 -->
      <defs>
       <path d="M 10.796875 72.90625 
L 49.515625 72.90625 
L 49.515625 64.59375 
L 19.828125 64.59375 
L 19.828125 46.734375 
Q 21.96875 47.46875 24.109375 47.828125 
Q 26.265625 48.1875 28.421875 48.1875 
Q 40.625 48.1875 47.75 41.5 
Q 54.890625 34.8125 54.890625 23.390625 
Q 54.890625 11.625 47.5625 5.09375 
Q 40.234375 -1.421875 26.90625 -1.421875 
Q 22.3125 -1.421875 17.546875 -0.640625 
Q 12.796875 0.140625 7.71875 1.703125 
L 7.71875 11.625 
Q 12.109375 9.234375 16.796875 8.0625 
Q 21.484375 6.890625 26.703125 6.890625 
Q 35.15625 6.890625 40.078125 11.328125 
Q 45.015625 15.765625 45.015625 23.390625 
Q 45.015625 31 40.078125 35.4375 
Q 35.15625 39.890625 26.703125 39.890625 
Q 22.75 39.890625 18.8125 39.015625 
Q 14.890625 38.140625 10.796875 36.28125 
z
" id="DejaVuSans-53"/>
      </defs>
      <g transform="translate(151.870154 220.798438)scale(0.1 -0.1)">
       <use xlink:href="#DejaVuSans-53"/>
      </g>
     </g>
    </g>
    <g id="xtick_3">
     <g id="line2d_3">
      <g>
       <use style="stroke:#000000;stroke-width:0.8;" x="217.297384" xlink:href="#mbed50b73e2" y="206.2"/>
      </g>
     </g>
     <g id="text_3">
      <!-- 10 -->
      <defs>
       <path d="M 12.40625 8.296875 
L 28.515625 8.296875 
L 28.515625 63.921875 
L 10.984375 60.40625 
L 10.984375 69.390625 
L 28.421875 72.90625 
L 38.28125 72.90625 
L 38.28125 8.296875 
L 54.390625 8.296875 
L 54.390625 0 
L 12.40625 0 
z
" id="DejaVuSans-49"/>
      </defs>
      <g transform="translate(210.934884 220.798438)scale(0.1 -0.1)">
       <use xlink:href="#DejaVuSans-49"/>
       <use x="63.623047" xlink:href="#DejaVuSans-48"/>
      </g>
     </g>
    </g>
    <g id="xtick_4">
     <g id="line2d_4">
      <g>
       <use style="stroke:#000000;stroke-width:0.8;" x="279.543364" xlink:href="#mbed50b73e2" y="206.2"/>
      </g>
     </g>
     <g id="text_4">
      <!-- 15 -->
      <g transform="translate(273.180864 220.798438)scale(0.1 -0.1)">
       <use xlink:href="#DejaVuSans-49"/>
       <use x="63.623047" xlink:href="#DejaVuSans-53"/>
      </g>
     </g>
    </g>
    <g id="xtick_5">
     <g id="line2d_5">
      <g>
       <use style="stroke:#000000;stroke-width:0.8;" x="341.789344" xlink:href="#mbed50b73e2" y="206.2"/>
      </g>
     </g>
     <g id="text_5">
      <!-- 20 -->
      <defs>
       <path d="M 19.1875 8.296875 
L 53.609375 8.296875 
L 53.609375 0 
L 7.328125 0 
L 7.328125 8.296875 
Q 12.9375 14.109375 22.625 23.890625 
Q 32.328125 33.6875 34.8125 36.53125 
Q 39.546875 41.84375 41.421875 45.53125 
Q 43.3125 49.21875 43.3125 52.78125 
Q 43.3125 58.59375 39.234375 62.25 
Q 35.15625 65.921875 28.609375 65.921875 
Q 23.96875 65.921875 18.8125 64.3125 
Q 13.671875 62.703125 7.8125 59.421875 
L 7.8125 69.390625 
Q 13.765625 71.78125 18.9375 73 
Q 24.125 74.21875 28.421875 74.21875 
Q 39.75 74.21875 46.484375 68.546875 
Q 53.21875 62.890625 53.21875 53.421875 
Q 53.21875 48.921875 51.53125 44.890625 
Q 49.859375 40.875 45.40625 35.40625 
Q 44.1875 33.984375 37.640625 27.21875 
Q 31.109375 20.453125 19.1875 8.296875 
z
" id="DejaVuSans-50"/>
      </defs>
      <g transform="translate(335.426844 220.798438)scale(0.1 -0.1)">
       <use xlink:href="#DejaVuSans-50"/>
       <use x="63.623047" xlink:href="#DejaVuSans-48"/>
      </g>
     </g>
    </g>
    <g id="xtick_6">
     <g id="line2d_6">
      <g>
       <use style="stroke:#000000;stroke-width:0.8;" x="404.035324" xlink:href="#mbed50b73e2" y="206.2"/>
      </g>
     </g>
     <g id="text_6">
      <!-- 25 -->
      <g transform="translate(397.672824 220.798438)scale(0.1 -0.1)">
       <use xlink:href="#DejaVuSans-50"/>
       <use x="63.623047" xlink:href="#DejaVuSans-53"/>
      </g>
     </g>
    </g>
    <g id="xtick_7">
     <g id="line2d_7">
      <g>
       <use style="stroke:#000000;stroke-width:0.8;" x="466.281304" xlink:href="#mbed50b73e2" y="206.2"/>
      </g>
     </g>
     <g id="text_7">
      <!-- 30 -->
      <defs>
       <path d="M 40.578125 39.3125 
Q 47.65625 37.796875 51.625 33 
Q 55.609375 28.21875 55.609375 21.1875 
Q 55.609375 10.40625 48.1875 4.484375 
Q 40.765625 -1.421875 27.09375 -1.421875 
Q 22.515625 -1.421875 17.65625 -0.515625 
Q 12.796875 0.390625 7.625 2.203125 
L 7.625 11.71875 
Q 11.71875 9.328125 16.59375 8.109375 
Q 21.484375 6.890625 26.8125 6.890625 
Q 36.078125 6.890625 40.9375 10.546875 
Q 45.796875 14.203125 45.796875 21.1875 
Q 45.796875 27.640625 41.28125 31.265625 
Q 36.765625 34.90625 28.71875 34.90625 
L 20.21875 34.90625 
L 20.21875 43.015625 
L 29.109375 43.015625 
Q 36.375 43.015625 40.234375 45.921875 
Q 44.09375 48.828125 44.09375 54.296875 
Q 44.09375 59.90625 40.109375 62.90625 
Q 36.140625 65.921875 28.71875 65.921875 
Q 24.65625 65.921875 20.015625 65.03125 
Q 15.375 64.15625 9.8125 62.3125 
L 9.8125 71.09375 
Q 15.4375 72.65625 20.34375 73.4375 
Q 25.25 74.21875 29.59375 74.21875 
Q 40.828125 74.21875 47.359375 69.109375 
Q 53.90625 64.015625 53.90625 55.328125 
Q 53.90625 49.265625 50.4375 45.09375 
Q 46.96875 40.921875 40.578125 39.3125 
z
" id="DejaVuSans-51"/>
      </defs>
      <g transform="translate(459.918804 220.798438)scale(0.1 -0.1)">
       <use xlink:href="#DejaVuSans-51"/>
       <use x="63.623047" xlink:href="#DejaVuSans-48"/>
      </g>
     </g>
    </g>
    <g id="xtick_8">
     <g id="line2d_8">
      <g>
       <use style="stroke:#000000;stroke-width:0.8;" x="528.527284" xlink:href="#mbed50b73e2" y="206.2"/>
      </g>
     </g>
     <g id="text_8">
      <!-- 35 -->
      <g transform="translate(522.164784 220.798438)scale(0.1 -0.1)">
       <use xlink:href="#DejaVuSans-51"/>
       <use x="63.623047" xlink:href="#DejaVuSans-53"/>
      </g>
     </g>
    </g>
    <g id="xtick_9">
     <g id="line2d_9">
      <g>
       <use style="stroke:#000000;stroke-width:0.8;" x="590.773264" xlink:href="#mbed50b73e2" y="206.2"/>
      </g>
     </g>
     <g id="text_9">
      <!-- 40 -->
      <defs>
       <path d="M 37.796875 64.3125 
L 12.890625 25.390625 
L 37.796875 25.390625 
z
M 35.203125 72.90625 
L 47.609375 72.90625 
L 47.609375 25.390625 
L 58.015625 25.390625 
L 58.015625 17.1875 
L 47.609375 17.1875 
L 47.609375 0 
L 37.796875 0 
L 37.796875 17.1875 
L 4.890625 17.1875 
L 4.890625 26.703125 
z
" id="DejaVuSans-52"/>
      </defs>
      <g transform="translate(584.410764 220.798438)scale(0.1 -0.1)">
       <use xlink:href="#DejaVuSans-52"/>
       <use x="63.623047" xlink:href="#DejaVuSans-48"/>
      </g>
     </g>
    </g>
    <g id="text_10">
     <!-- Number of links removed ($\rho$) -->
     <defs>
      <path d="M 9.8125 72.90625 
L 23.09375 72.90625 
L 55.421875 11.921875 
L 55.421875 72.90625 
L 64.984375 72.90625 
L 64.984375 0 
L 51.703125 0 
L 19.390625 60.984375 
L 19.390625 0 
L 9.8125 0 
z
" id="DejaVuSans-78"/>
      <path d="M 8.5 21.578125 
L 8.5 54.6875 
L 17.484375 54.6875 
L 17.484375 21.921875 
Q 17.484375 14.15625 20.5 10.265625 
Q 23.53125 6.390625 29.59375 6.390625 
Q 36.859375 6.390625 41.078125 11.03125 
Q 45.3125 15.671875 45.3125 23.6875 
L 45.3125 54.6875 
L 54.296875 54.6875 
L 54.296875 0 
L 45.3125 0 
L 45.3125 8.40625 
Q 42.046875 3.421875 37.71875 1 
Q 33.40625 -1.421875 27.6875 -1.421875 
Q 18.265625 -1.421875 13.375 4.4375 
Q 8.5 10.296875 8.5 21.578125 
z
M 31.109375 56 
z
" id="DejaVuSans-117"/>
      <path d="M 52 44.1875 
Q 55.375 50.25 60.0625 53.125 
Q 64.75 56 71.09375 56 
Q 79.640625 56 84.28125 50.015625 
Q 88.921875 44.046875 88.921875 33.015625 
L 88.921875 0 
L 79.890625 0 
L 79.890625 32.71875 
Q 79.890625 40.578125 77.09375 44.375 
Q 74.3125 48.1875 68.609375 48.1875 
Q 61.625 48.1875 57.5625 43.546875 
Q 53.515625 38.921875 53.515625 30.90625 
L 53.515625 0 
L 44.484375 0 
L 44.484375 32.71875 
Q 44.484375 40.625 41.703125 44.40625 
Q 38.921875 48.1875 33.109375 48.1875 
Q 26.21875 48.1875 22.15625 43.53125 
Q 18.109375 38.875 18.109375 30.90625 
L 18.109375 0 
L 9.078125 0 
L 9.078125 54.6875 
L 18.109375 54.6875 
L 18.109375 46.1875 
Q 21.1875 51.21875 25.484375 53.609375 
Q 29.78125 56 35.6875 56 
Q 41.65625 56 45.828125 52.96875 
Q 50 49.953125 52 44.1875 
z
" id="DejaVuSans-109"/>
      <path d="M 48.6875 27.296875 
Q 48.6875 37.203125 44.609375 42.84375 
Q 40.53125 48.484375 33.40625 48.484375 
Q 26.265625 48.484375 22.1875 42.84375 
Q 18.109375 37.203125 18.109375 27.296875 
Q 18.109375 17.390625 22.1875 11.75 
Q 26.265625 6.109375 33.40625 6.109375 
Q 40.53125 6.109375 44.609375 11.75 
Q 48.6875 17.390625 48.6875 27.296875 
z
M 18.109375 46.390625 
Q 20.953125 51.265625 25.265625 53.625 
Q 29.59375 56 35.59375 56 
Q 45.5625 56 51.78125 48.09375 
Q 58.015625 40.1875 58.015625 27.296875 
Q 58.015625 14.40625 51.78125 6.484375 
Q 45.5625 -1.421875 35.59375 -1.421875 
Q 29.59375 -1.421875 25.265625 0.953125 
Q 20.953125 3.328125 18.109375 8.203125 
L 18.109375 0 
L 9.078125 0 
L 9.078125 75.984375 
L 18.109375 75.984375 
z
" id="DejaVuSans-98"/>
      <path d="M 56.203125 29.59375 
L 56.203125 25.203125 
L 14.890625 25.203125 
Q 15.484375 15.921875 20.484375 11.0625 
Q 25.484375 6.203125 34.421875 6.203125 
Q 39.59375 6.203125 44.453125 7.46875 
Q 49.3125 8.734375 54.109375 11.28125 
L 54.109375 2.78125 
Q 49.265625 0.734375 44.1875 -0.34375 
Q 39.109375 -1.421875 33.890625 -1.421875 
Q 20.796875 -1.421875 13.15625 6.1875 
Q 5.515625 13.8125 5.515625 26.8125 
Q 5.515625 40.234375 12.765625 48.109375 
Q 20.015625 56 32.328125 56 
Q 43.359375 56 49.78125 48.890625 
Q 56.203125 41.796875 56.203125 29.59375 
z
M 47.21875 32.234375 
Q 47.125 39.59375 43.09375 43.984375 
Q 39.0625 48.390625 32.421875 48.390625 
Q 24.90625 48.390625 20.390625 44.140625 
Q 15.875 39.890625 15.1875 32.171875 
z
" id="DejaVuSans-101"/>
      <path d="M 41.109375 46.296875 
Q 39.59375 47.171875 37.8125 47.578125 
Q 36.03125 48 33.890625 48 
Q 26.265625 48 22.1875 43.046875 
Q 18.109375 38.09375 18.109375 28.8125 
L 18.109375 0 
L 9.078125 0 
L 9.078125 54.6875 
L 18.109375 54.6875 
L 18.109375 46.1875 
Q 20.953125 51.171875 25.484375 53.578125 
Q 30.03125 56 36.53125 56 
Q 37.453125 56 38.578125 55.875 
Q 39.703125 55.765625 41.0625 55.515625 
z
" id="DejaVuSans-114"/>
      <path id="DejaVuSans-32"/>
      <path d="M 30.609375 48.390625 
Q 23.390625 48.390625 19.1875 42.75 
Q 14.984375 37.109375 14.984375 27.296875 
Q 14.984375 17.484375 19.15625 11.84375 
Q 23.34375 6.203125 30.609375 6.203125 
Q 37.796875 6.203125 41.984375 11.859375 
Q 46.1875 17.53125 46.1875 27.296875 
Q 46.1875 37.015625 41.984375 42.703125 
Q 37.796875 48.390625 30.609375 48.390625 
z
M 30.609375 56 
Q 42.328125 56 49.015625 48.375 
Q 55.71875 40.765625 55.71875 27.296875 
Q 55.71875 13.875 49.015625 6.21875 
Q 42.328125 -1.421875 30.609375 -1.421875 
Q 18.84375 -1.421875 12.171875 6.21875 
Q 5.515625 13.875 5.515625 27.296875 
Q 5.515625 40.765625 12.171875 48.375 
Q 18.84375 56 30.609375 56 
z
" id="DejaVuSans-111"/>
      <path d="M 37.109375 75.984375 
L 37.109375 68.5 
L 28.515625 68.5 
Q 23.6875 68.5 21.796875 66.546875 
Q 19.921875 64.59375 19.921875 59.515625 
L 19.921875 54.6875 
L 34.71875 54.6875 
L 34.71875 47.703125 
L 19.921875 47.703125 
L 19.921875 0 
L 10.890625 0 
L 10.890625 47.703125 
L 2.296875 47.703125 
L 2.296875 54.6875 
L 10.890625 54.6875 
L 10.890625 58.5 
Q 10.890625 67.625 15.140625 71.796875 
Q 19.390625 75.984375 28.609375 75.984375 
z
" id="DejaVuSans-102"/>
      <path d="M 9.421875 75.984375 
L 18.40625 75.984375 
L 18.40625 0 
L 9.421875 0 
z
" id="DejaVuSans-108"/>
      <path d="M 9.421875 54.6875 
L 18.40625 54.6875 
L 18.40625 0 
L 9.421875 0 
z
M 9.421875 75.984375 
L 18.40625 75.984375 
L 18.40625 64.59375 
L 9.421875 64.59375 
z
" id="DejaVuSans-105"/>
      <path d="M 54.890625 33.015625 
L 54.890625 0 
L 45.90625 0 
L 45.90625 32.71875 
Q 45.90625 40.484375 42.875 44.328125 
Q 39.84375 48.1875 33.796875 48.1875 
Q 26.515625 48.1875 22.3125 43.546875 
Q 18.109375 38.921875 18.109375 30.90625 
L 18.109375 0 
L 9.078125 0 
L 9.078125 54.6875 
L 18.109375 54.6875 
L 18.109375 46.1875 
Q 21.34375 51.125 25.703125 53.5625 
Q 30.078125 56 35.796875 56 
Q 45.21875 56 50.046875 50.171875 
Q 54.890625 44.34375 54.890625 33.015625 
z
" id="DejaVuSans-110"/>
      <path d="M 9.078125 75.984375 
L 18.109375 75.984375 
L 18.109375 31.109375 
L 44.921875 54.6875 
L 56.390625 54.6875 
L 27.390625 29.109375 
L 57.625 0 
L 45.90625 0 
L 18.109375 26.703125 
L 18.109375 0 
L 9.078125 0 
z
" id="DejaVuSans-107"/>
      <path d="M 44.28125 53.078125 
L 44.28125 44.578125 
Q 40.484375 46.53125 36.375 47.5 
Q 32.28125 48.484375 27.875 48.484375 
Q 21.1875 48.484375 17.84375 46.4375 
Q 14.5 44.390625 14.5 40.28125 
Q 14.5 37.15625 16.890625 35.375 
Q 19.28125 33.59375 26.515625 31.984375 
L 29.59375 31.296875 
Q 39.15625 29.25 43.1875 25.515625 
Q 47.21875 21.78125 47.21875 15.09375 
Q 47.21875 7.46875 41.1875 3.015625 
Q 35.15625 -1.421875 24.609375 -1.421875 
Q 20.21875 -1.421875 15.453125 -0.5625 
Q 10.6875 0.296875 5.421875 2 
L 5.421875 11.28125 
Q 10.40625 8.6875 15.234375 7.390625 
Q 20.0625 6.109375 24.8125 6.109375 
Q 31.15625 6.109375 34.5625 8.28125 
Q 37.984375 10.453125 37.984375 14.40625 
Q 37.984375 18.0625 35.515625 20.015625 
Q 33.0625 21.96875 24.703125 23.78125 
L 21.578125 24.515625 
Q 13.234375 26.265625 9.515625 29.90625 
Q 5.8125 33.546875 5.8125 39.890625 
Q 5.8125 47.609375 11.28125 51.796875 
Q 16.75 56 26.8125 56 
Q 31.78125 56 36.171875 55.265625 
Q 40.578125 54.546875 44.28125 53.078125 
z
" id="DejaVuSans-115"/>
      <path d="M 2.984375 54.6875 
L 12.5 54.6875 
L 29.59375 8.796875 
L 46.6875 54.6875 
L 56.203125 54.6875 
L 35.6875 0 
L 23.484375 0 
z
" id="DejaVuSans-118"/>
      <path d="M 45.40625 46.390625 
L 45.40625 75.984375 
L 54.390625 75.984375 
L 54.390625 0 
L 45.40625 0 
L 45.40625 8.203125 
Q 42.578125 3.328125 38.25 0.953125 
Q 33.9375 -1.421875 27.875 -1.421875 
Q 17.96875 -1.421875 11.734375 6.484375 
Q 5.515625 14.40625 5.515625 27.296875 
Q 5.515625 40.1875 11.734375 48.09375 
Q 17.96875 56 27.875 56 
Q 33.9375 56 38.25 53.625 
Q 42.578125 51.265625 45.40625 46.390625 
z
M 14.796875 27.296875 
Q 14.796875 17.390625 18.875 11.75 
Q 22.953125 6.109375 30.078125 6.109375 
Q 37.203125 6.109375 41.296875 11.75 
Q 45.40625 17.390625 45.40625 27.296875 
Q 45.40625 37.203125 41.296875 42.84375 
Q 37.203125 48.484375 30.078125 48.484375 
Q 22.953125 48.484375 18.875 42.84375 
Q 14.796875 37.203125 14.796875 27.296875 
z
" id="DejaVuSans-100"/>
      <path d="M 31 75.875 
Q 24.46875 64.65625 21.28125 53.65625 
Q 18.109375 42.671875 18.109375 31.390625 
Q 18.109375 20.125 21.3125 9.0625 
Q 24.515625 -2 31 -13.1875 
L 23.1875 -13.1875 
Q 15.875 -1.703125 12.234375 9.375 
Q 8.59375 20.453125 8.59375 31.390625 
Q 8.59375 42.28125 12.203125 53.3125 
Q 15.828125 64.359375 23.1875 75.875 
z
" id="DejaVuSans-40"/>
      <path d="M 18.796875 44.921875 
Q 22.703125 49.90625 30.953125 54.296875 
Q 34.1875 56 43.0625 56 
Q 53.03125 56 57.71875 48.09375 
Q 62.40625 40.1875 59.90625 27.296875 
Q 57.375 14.40625 49.609375 6.484375 
Q 41.84375 -1.421875 31.890625 -1.421875 
Q 25.875 -1.421875 22.015625 0.984375 
Q 18.171875 3.328125 16.3125 8.203125 
L 10.640625 -20.796875 
L 1.609375 -20.796875 
L 10.890625 26.8125 
Q 13.09375 38.09375 18.796875 44.921875 
z
M 50.59375 27.296875 
Q 52.484375 37.203125 49.515625 42.875 
Q 46.53125 48.484375 39.40625 48.484375 
Q 32.28125 48.484375 27.09375 42.875 
Q 21.921875 37.203125 20.015625 27.296875 
Q 18.0625 17.390625 21.046875 11.71875 
Q 24.03125 6.109375 31.15625 6.109375 
Q 38.28125 6.109375 43.453125 11.71875 
Q 48.640625 17.390625 50.59375 27.296875 
z
" id="DejaVuSans-Oblique-961"/>
      <path d="M 8.015625 75.875 
L 15.828125 75.875 
Q 23.140625 64.359375 26.78125 53.3125 
Q 30.421875 42.28125 30.421875 31.390625 
Q 30.421875 20.453125 26.78125 9.375 
Q 23.140625 -1.703125 15.828125 -13.1875 
L 8.015625 -13.1875 
Q 14.5 -2 17.703125 9.0625 
Q 20.90625 20.125 20.90625 31.390625 
Q 20.90625 42.671875 17.703125 53.65625 
Q 14.5 64.65625 8.015625 75.875 
z
" id="DejaVuSans-41"/>
     </defs>
     <g transform="translate(263.464746 234.478125)scale(0.1 -0.1)">
      <use transform="translate(0 0.015625)" xlink:href="#DejaVuSans-78"/>
      <use transform="translate(74.804688 0.015625)" xlink:href="#DejaVuSans-117"/>
      <use transform="translate(138.183594 0.015625)" xlink:href="#DejaVuSans-109"/>
      <use transform="translate(235.595703 0.015625)" xlink:href="#DejaVuSans-98"/>
      <use transform="translate(299.072266 0.015625)" xlink:href="#DejaVuSans-101"/>
      <use transform="translate(360.595703 0.015625)" xlink:href="#DejaVuSans-114"/>
      <use transform="translate(401.708984 0.015625)" xlink:href="#DejaVuSans-32"/>
      <use transform="translate(433.496094 0.015625)" xlink:href="#DejaVuSans-111"/>
      <use transform="translate(494.677734 0.015625)" xlink:href="#DejaVuSans-102"/>
      <use transform="translate(529.882812 0.015625)" xlink:href="#DejaVuSans-32"/>
      <use transform="translate(561.669922 0.015625)" xlink:href="#DejaVuSans-108"/>
      <use transform="translate(589.453125 0.015625)" xlink:href="#DejaVuSans-105"/>
      <use transform="translate(617.236328 0.015625)" xlink:href="#DejaVuSans-110"/>
      <use transform="translate(680.615234 0.015625)" xlink:href="#DejaVuSans-107"/>
      <use transform="translate(738.525391 0.015625)" xlink:href="#DejaVuSans-115"/>
      <use transform="translate(790.625 0.015625)" xlink:href="#DejaVuSans-32"/>
      <use transform="translate(822.412109 0.015625)" xlink:href="#DejaVuSans-114"/>
      <use transform="translate(863.525391 0.015625)" xlink:href="#DejaVuSans-101"/>
      <use transform="translate(925.048828 0.015625)" xlink:href="#DejaVuSans-109"/>
      <use transform="translate(1022.460938 0.015625)" xlink:href="#DejaVuSans-111"/>
      <use transform="translate(1083.642578 0.015625)" xlink:href="#DejaVuSans-118"/>
      <use transform="translate(1142.822266 0.015625)" xlink:href="#DejaVuSans-101"/>
      <use transform="translate(1204.345703 0.015625)" xlink:href="#DejaVuSans-100"/>
      <use transform="translate(1267.822266 0.015625)" xlink:href="#DejaVuSans-32"/>
      <use transform="translate(1299.609375 0.015625)" xlink:href="#DejaVuSans-40"/>
      <use transform="translate(1338.623047 0.015625)" xlink:href="#DejaVuSans-Oblique-961"/>
      <use transform="translate(1402.099609 0.015625)" xlink:href="#DejaVuSans-41"/>
     </g>
    </g>
   </g>
   <g id="matplotlib.axis_2">
    <g id="ytick_1">
     <g id="line2d_10">
      <defs>
       <path d="M 0 0 
L -3.5 0 
" id="m291915df3b" style="stroke:#000000;stroke-width:0.8;"/>
      </defs>
      <g>
       <use style="stroke:#000000;stroke-width:0.8;" x="68.529492" xlink:href="#m291915df3b" y="198.136364"/>
      </g>
     </g>
     <g id="text_11">
      <!-- 0 -->
      <g transform="translate(55.166992 201.935582)scale(0.1 -0.1)">
       <use xlink:href="#DejaVuSans-48"/>
      </g>
     </g>
    </g>
    <g id="ytick_2">
     <g id="line2d_11">
      <g>
       <use style="stroke:#000000;stroke-width:0.8;" x="68.529492" xlink:href="#m291915df3b" y="165.881818"/>
      </g>
     </g>
     <g id="text_12">
      <!-- 20 -->
      <g transform="translate(48.804492 169.681037)scale(0.1 -0.1)">
       <use xlink:href="#DejaVuSans-50"/>
       <use x="63.623047" xlink:href="#DejaVuSans-48"/>
      </g>
     </g>
    </g>
    <g id="ytick_3">
     <g id="line2d_12">
      <g>
       <use style="stroke:#000000;stroke-width:0.8;" x="68.529492" xlink:href="#m291915df3b" y="133.627273"/>
      </g>
     </g>
     <g id="text_13">
      <!-- 40 -->
      <g transform="translate(48.804492 137.426491)scale(0.1 -0.1)">
       <use xlink:href="#DejaVuSans-52"/>
       <use x="63.623047" xlink:href="#DejaVuSans-48"/>
      </g>
     </g>
    </g>
    <g id="ytick_4">
     <g id="line2d_13">
      <g>
       <use style="stroke:#000000;stroke-width:0.8;" x="68.529492" xlink:href="#m291915df3b" y="101.372727"/>
      </g>
     </g>
     <g id="text_14">
      <!-- 60 -->
      <defs>
       <path d="M 33.015625 40.375 
Q 26.375 40.375 22.484375 35.828125 
Q 18.609375 31.296875 18.609375 23.390625 
Q 18.609375 15.53125 22.484375 10.953125 
Q 26.375 6.390625 33.015625 6.390625 
Q 39.65625 6.390625 43.53125 10.953125 
Q 47.40625 15.53125 47.40625 23.390625 
Q 47.40625 31.296875 43.53125 35.828125 
Q 39.65625 40.375 33.015625 40.375 
z
M 52.59375 71.296875 
L 52.59375 62.3125 
Q 48.875 64.0625 45.09375 64.984375 
Q 41.3125 65.921875 37.59375 65.921875 
Q 27.828125 65.921875 22.671875 59.328125 
Q 17.53125 52.734375 16.796875 39.40625 
Q 19.671875 43.65625 24.015625 45.921875 
Q 28.375 48.1875 33.59375 48.1875 
Q 44.578125 48.1875 50.953125 41.515625 
Q 57.328125 34.859375 57.328125 23.390625 
Q 57.328125 12.15625 50.6875 5.359375 
Q 44.046875 -1.421875 33.015625 -1.421875 
Q 20.359375 -1.421875 13.671875 8.265625 
Q 6.984375 17.96875 6.984375 36.375 
Q 6.984375 53.65625 15.1875 63.9375 
Q 23.390625 74.21875 37.203125 74.21875 
Q 40.921875 74.21875 44.703125 73.484375 
Q 48.484375 72.75 52.59375 71.296875 
z
" id="DejaVuSans-54"/>
      </defs>
      <g transform="translate(48.804492 105.171946)scale(0.1 -0.1)">
       <use xlink:href="#DejaVuSans-54"/>
       <use x="63.623047" xlink:href="#DejaVuSans-48"/>
      </g>
     </g>
    </g>
    <g id="ytick_5">
     <g id="line2d_14">
      <g>
       <use style="stroke:#000000;stroke-width:0.8;" x="68.529492" xlink:href="#m291915df3b" y="69.118182"/>
      </g>
     </g>
     <g id="text_15">
      <!-- 80 -->
      <defs>
       <path d="M 31.78125 34.625 
Q 24.75 34.625 20.71875 30.859375 
Q 16.703125 27.09375 16.703125 20.515625 
Q 16.703125 13.921875 20.71875 10.15625 
Q 24.75 6.390625 31.78125 6.390625 
Q 38.8125 6.390625 42.859375 10.171875 
Q 46.921875 13.96875 46.921875 20.515625 
Q 46.921875 27.09375 42.890625 30.859375 
Q 38.875 34.625 31.78125 34.625 
z
M 21.921875 38.8125 
Q 15.578125 40.375 12.03125 44.71875 
Q 8.5 49.078125 8.5 55.328125 
Q 8.5 64.0625 14.71875 69.140625 
Q 20.953125 74.21875 31.78125 74.21875 
Q 42.671875 74.21875 48.875 69.140625 
Q 55.078125 64.0625 55.078125 55.328125 
Q 55.078125 49.078125 51.53125 44.71875 
Q 48 40.375 41.703125 38.8125 
Q 48.828125 37.15625 52.796875 32.3125 
Q 56.78125 27.484375 56.78125 20.515625 
Q 56.78125 9.90625 50.3125 4.234375 
Q 43.84375 -1.421875 31.78125 -1.421875 
Q 19.734375 -1.421875 13.25 4.234375 
Q 6.78125 9.90625 6.78125 20.515625 
Q 6.78125 27.484375 10.78125 32.3125 
Q 14.796875 37.15625 21.921875 38.8125 
z
M 18.3125 54.390625 
Q 18.3125 48.734375 21.84375 45.5625 
Q 25.390625 42.390625 31.78125 42.390625 
Q 38.140625 42.390625 41.71875 45.5625 
Q 45.3125 48.734375 45.3125 54.390625 
Q 45.3125 60.0625 41.71875 63.234375 
Q 38.140625 66.40625 31.78125 66.40625 
Q 25.390625 66.40625 21.84375 63.234375 
Q 18.3125 60.0625 18.3125 54.390625 
z
" id="DejaVuSans-56"/>
      </defs>
      <g transform="translate(48.804492 72.917401)scale(0.1 -0.1)">
       <use xlink:href="#DejaVuSans-56"/>
       <use x="63.623047" xlink:href="#DejaVuSans-48"/>
      </g>
     </g>
    </g>
    <g id="ytick_6">
     <g id="line2d_15">
      <g>
       <use style="stroke:#000000;stroke-width:0.8;" x="68.529492" xlink:href="#m291915df3b" y="36.863636"/>
      </g>
     </g>
     <g id="text_16">
      <!-- 100 -->
      <g transform="translate(42.441992 40.662855)scale(0.1 -0.1)">
       <use xlink:href="#DejaVuSans-49"/>
       <use x="63.623047" xlink:href="#DejaVuSans-48"/>
       <use x="127.246094" xlink:href="#DejaVuSans-48"/>
      </g>
     </g>
    </g>
    <g id="text_17">
     <!-- Percentage of population -->
     <defs>
      <path d="M 19.671875 64.796875 
L 19.671875 37.40625 
L 32.078125 37.40625 
Q 38.96875 37.40625 42.71875 40.96875 
Q 46.484375 44.53125 46.484375 51.125 
Q 46.484375 57.671875 42.71875 61.234375 
Q 38.96875 64.796875 32.078125 64.796875 
z
M 9.8125 72.90625 
L 32.078125 72.90625 
Q 44.34375 72.90625 50.609375 67.359375 
Q 56.890625 61.8125 56.890625 51.125 
Q 56.890625 40.328125 50.609375 34.8125 
Q 44.34375 29.296875 32.078125 29.296875 
L 19.671875 29.296875 
L 19.671875 0 
L 9.8125 0 
z
" id="DejaVuSans-80"/>
      <path d="M 48.78125 52.59375 
L 48.78125 44.1875 
Q 44.96875 46.296875 41.140625 47.34375 
Q 37.3125 48.390625 33.40625 48.390625 
Q 24.65625 48.390625 19.8125 42.84375 
Q 14.984375 37.3125 14.984375 27.296875 
Q 14.984375 17.28125 19.8125 11.734375 
Q 24.65625 6.203125 33.40625 6.203125 
Q 37.3125 6.203125 41.140625 7.25 
Q 44.96875 8.296875 48.78125 10.40625 
L 48.78125 2.09375 
Q 45.015625 0.34375 40.984375 -0.53125 
Q 36.96875 -1.421875 32.421875 -1.421875 
Q 20.0625 -1.421875 12.78125 6.34375 
Q 5.515625 14.109375 5.515625 27.296875 
Q 5.515625 40.671875 12.859375 48.328125 
Q 20.21875 56 33.015625 56 
Q 37.15625 56 41.109375 55.140625 
Q 45.0625 54.296875 48.78125 52.59375 
z
" id="DejaVuSans-99"/>
      <path d="M 18.3125 70.21875 
L 18.3125 54.6875 
L 36.8125 54.6875 
L 36.8125 47.703125 
L 18.3125 47.703125 
L 18.3125 18.015625 
Q 18.3125 11.328125 20.140625 9.421875 
Q 21.96875 7.515625 27.59375 7.515625 
L 36.8125 7.515625 
L 36.8125 0 
L 27.59375 0 
Q 17.1875 0 13.234375 3.875 
Q 9.28125 7.765625 9.28125 18.015625 
L 9.28125 47.703125 
L 2.6875 47.703125 
L 2.6875 54.6875 
L 9.28125 54.6875 
L 9.28125 70.21875 
z
" id="DejaVuSans-116"/>
      <path d="M 34.28125 27.484375 
Q 23.390625 27.484375 19.1875 25 
Q 14.984375 22.515625 14.984375 16.5 
Q 14.984375 11.71875 18.140625 8.90625 
Q 21.296875 6.109375 26.703125 6.109375 
Q 34.1875 6.109375 38.703125 11.40625 
Q 43.21875 16.703125 43.21875 25.484375 
L 43.21875 27.484375 
z
M 52.203125 31.203125 
L 52.203125 0 
L 43.21875 0 
L 43.21875 8.296875 
Q 40.140625 3.328125 35.546875 0.953125 
Q 30.953125 -1.421875 24.3125 -1.421875 
Q 15.921875 -1.421875 10.953125 3.296875 
Q 6 8.015625 6 15.921875 
Q 6 25.140625 12.171875 29.828125 
Q 18.359375 34.515625 30.609375 34.515625 
L 43.21875 34.515625 
L 43.21875 35.40625 
Q 43.21875 41.609375 39.140625 45 
Q 35.0625 48.390625 27.6875 48.390625 
Q 23 48.390625 18.546875 47.265625 
Q 14.109375 46.140625 10.015625 43.890625 
L 10.015625 52.203125 
Q 14.9375 54.109375 19.578125 55.046875 
Q 24.21875 56 28.609375 56 
Q 40.484375 56 46.34375 49.84375 
Q 52.203125 43.703125 52.203125 31.203125 
z
" id="DejaVuSans-97"/>
      <path d="M 45.40625 27.984375 
Q 45.40625 37.75 41.375 43.109375 
Q 37.359375 48.484375 30.078125 48.484375 
Q 22.859375 48.484375 18.828125 43.109375 
Q 14.796875 37.75 14.796875 27.984375 
Q 14.796875 18.265625 18.828125 12.890625 
Q 22.859375 7.515625 30.078125 7.515625 
Q 37.359375 7.515625 41.375 12.890625 
Q 45.40625 18.265625 45.40625 27.984375 
z
M 54.390625 6.78125 
Q 54.390625 -7.171875 48.1875 -13.984375 
Q 42 -20.796875 29.203125 -20.796875 
Q 24.46875 -20.796875 20.265625 -20.09375 
Q 16.0625 -19.390625 12.109375 -17.921875 
L 12.109375 -9.1875 
Q 16.0625 -11.328125 19.921875 -12.34375 
Q 23.78125 -13.375 27.78125 -13.375 
Q 36.625 -13.375 41.015625 -8.765625 
Q 45.40625 -4.15625 45.40625 5.171875 
L 45.40625 9.625 
Q 42.625 4.78125 38.28125 2.390625 
Q 33.9375 0 27.875 0 
Q 17.828125 0 11.671875 7.65625 
Q 5.515625 15.328125 5.515625 27.984375 
Q 5.515625 40.671875 11.671875 48.328125 
Q 17.828125 56 27.875 56 
Q 33.9375 56 38.28125 53.609375 
Q 42.625 51.21875 45.40625 46.390625 
L 45.40625 54.6875 
L 54.390625 54.6875 
z
" id="DejaVuSans-103"/>
      <path d="M 18.109375 8.203125 
L 18.109375 -20.796875 
L 9.078125 -20.796875 
L 9.078125 54.6875 
L 18.109375 54.6875 
L 18.109375 46.390625 
Q 20.953125 51.265625 25.265625 53.625 
Q 29.59375 56 35.59375 56 
Q 45.5625 56 51.78125 48.09375 
Q 58.015625 40.1875 58.015625 27.296875 
Q 58.015625 14.40625 51.78125 6.484375 
Q 45.5625 -1.421875 35.59375 -1.421875 
Q 29.59375 -1.421875 25.265625 0.953125 
Q 20.953125 3.328125 18.109375 8.203125 
z
M 48.6875 27.296875 
Q 48.6875 37.203125 44.609375 42.84375 
Q 40.53125 48.484375 33.40625 48.484375 
Q 26.265625 48.484375 22.1875 42.84375 
Q 18.109375 37.203125 18.109375 27.296875 
Q 18.109375 17.390625 22.1875 11.75 
Q 26.265625 6.109375 33.40625 6.109375 
Q 40.53125 6.109375 44.609375 11.75 
Q 48.6875 17.390625 48.6875 27.296875 
z
" id="DejaVuSans-112"/>
     </defs>
     <g transform="translate(36.362305 180.517187)rotate(-90)scale(0.1 -0.1)">
      <use xlink:href="#DejaVuSans-80"/>
      <use x="60.255859" xlink:href="#DejaVuSans-101"/>
      <use x="121.779297" xlink:href="#DejaVuSans-114"/>
      <use x="162.861328" xlink:href="#DejaVuSans-99"/>
      <use x="217.841797" xlink:href="#DejaVuSans-101"/>
      <use x="279.365234" xlink:href="#DejaVuSans-110"/>
      <use x="342.744141" xlink:href="#DejaVuSans-116"/>
      <use x="381.953125" xlink:href="#DejaVuSans-97"/>
      <use x="443.232422" xlink:href="#DejaVuSans-103"/>
      <use x="506.708984" xlink:href="#DejaVuSans-101"/>
      <use x="568.232422" xlink:href="#DejaVuSans-32"/>
      <use x="600.019531" xlink:href="#DejaVuSans-111"/>
      <use x="661.201172" xlink:href="#DejaVuSans-102"/>
      <use x="696.40625" xlink:href="#DejaVuSans-32"/>
      <use x="728.193359" xlink:href="#DejaVuSans-112"/>
      <use x="791.669922" xlink:href="#DejaVuSans-111"/>
      <use x="852.851562" xlink:href="#DejaVuSans-112"/>
      <use x="916.328125" xlink:href="#DejaVuSans-117"/>
      <use x="979.707031" xlink:href="#DejaVuSans-108"/>
      <use x="1007.490234" xlink:href="#DejaVuSans-97"/>
      <use x="1068.769531" xlink:href="#DejaVuSans-116"/>
      <use x="1107.978516" xlink:href="#DejaVuSans-105"/>
      <use x="1135.761719" xlink:href="#DejaVuSans-111"/>
      <use x="1196.943359" xlink:href="#DejaVuSans-110"/>
     </g>
    </g>
   </g>
   <g id="patch_3">
    <path d="M 68.529492 206.2 
L 68.529492 28.8 
" style="fill:none;stroke:#000000;stroke-linecap:square;stroke-linejoin:miter;stroke-width:0.8;"/>
   </g>
   <g id="patch_4">
    <path d="M 602.6 206.2 
L 602.6 28.8 
" style="fill:none;stroke:#000000;stroke-linecap:square;stroke-linejoin:miter;stroke-width:0.8;"/>
   </g>
   <g id="patch_5">
    <path d="M 68.529492 206.2 
L 602.6 206.2 
" style="fill:none;stroke:#000000;stroke-linecap:square;stroke-linejoin:miter;stroke-width:0.8;"/>
   </g>
   <g id="patch_6">
    <path d="M 68.529492 28.8 
L 602.6 28.8 
" style="fill:none;stroke:#000000;stroke-linecap:square;stroke-linejoin:miter;stroke-width:0.8;"/>
   </g>
   <g id="text_18">
    <!-- Fig. 5 Percentage of the population accessing videos with a given quality over the number of links removed ($\rho$). -->
    <defs>
     <path d="M 9.8125 72.90625 
L 51.703125 72.90625 
L 51.703125 64.59375 
L 19.671875 64.59375 
L 19.671875 43.109375 
L 48.578125 43.109375 
L 48.578125 34.8125 
L 19.671875 34.8125 
L 19.671875 0 
L 9.8125 0 
z
" id="DejaVuSans-70"/>
     <path d="M 10.6875 12.40625 
L 21 12.40625 
L 21 0 
L 10.6875 0 
z
" id="DejaVuSans-46"/>
     <path d="M 54.890625 33.015625 
L 54.890625 0 
L 45.90625 0 
L 45.90625 32.71875 
Q 45.90625 40.484375 42.875 44.328125 
Q 39.84375 48.1875 33.796875 48.1875 
Q 26.515625 48.1875 22.3125 43.546875 
Q 18.109375 38.921875 18.109375 30.90625 
L 18.109375 0 
L 9.078125 0 
L 9.078125 75.984375 
L 18.109375 75.984375 
L 18.109375 46.1875 
Q 21.34375 51.125 25.703125 53.5625 
Q 30.078125 56 35.796875 56 
Q 45.21875 56 50.046875 50.171875 
Q 54.890625 44.34375 54.890625 33.015625 
z
" id="DejaVuSans-104"/>
     <path d="M 4.203125 54.6875 
L 13.1875 54.6875 
L 24.421875 12.015625 
L 35.59375 54.6875 
L 46.1875 54.6875 
L 57.421875 12.015625 
L 68.609375 54.6875 
L 77.59375 54.6875 
L 63.28125 0 
L 52.6875 0 
L 40.921875 44.828125 
L 29.109375 0 
L 18.5 0 
z
" id="DejaVuSans-119"/>
     <path d="M 14.796875 27.296875 
Q 14.796875 17.390625 18.875 11.75 
Q 22.953125 6.109375 30.078125 6.109375 
Q 37.203125 6.109375 41.296875 11.75 
Q 45.40625 17.390625 45.40625 27.296875 
Q 45.40625 37.203125 41.296875 42.84375 
Q 37.203125 48.484375 30.078125 48.484375 
Q 22.953125 48.484375 18.875 42.84375 
Q 14.796875 37.203125 14.796875 27.296875 
z
M 45.40625 8.203125 
Q 42.578125 3.328125 38.25 0.953125 
Q 33.9375 -1.421875 27.875 -1.421875 
Q 17.96875 -1.421875 11.734375 6.484375 
Q 5.515625 14.40625 5.515625 27.296875 
Q 5.515625 40.1875 11.734375 48.09375 
Q 17.96875 56 27.875 56 
Q 33.9375 56 38.25 53.625 
Q 42.578125 51.265625 45.40625 46.390625 
L 45.40625 54.6875 
L 54.390625 54.6875 
L 54.390625 -20.796875 
L 45.40625 -20.796875 
z
" id="DejaVuSans-113"/>
     <path d="M 32.171875 -5.078125 
Q 28.375 -14.84375 24.75 -17.8125 
Q 21.140625 -20.796875 15.09375 -20.796875 
L 7.90625 -20.796875 
L 7.90625 -13.28125 
L 13.1875 -13.28125 
Q 16.890625 -13.28125 18.9375 -11.515625 
Q 21 -9.765625 23.484375 -3.21875 
L 25.09375 0.875 
L 2.984375 54.6875 
L 12.5 54.6875 
L 29.59375 11.921875 
L 46.6875 54.6875 
L 56.203125 54.6875 
z
" id="DejaVuSans-121"/>
    </defs>
    <g transform="translate(-0.855254 22.8)scale(0.12 -0.12)">
     <use transform="translate(0 0.015625)" xlink:href="#DejaVuSans-70"/>
     <use transform="translate(57.519531 0.015625)" xlink:href="#DejaVuSans-105"/>
     <use transform="translate(85.302734 0.015625)" xlink:href="#DejaVuSans-103"/>
     <use transform="translate(148.779297 0.015625)" xlink:href="#DejaVuSans-46"/>
     <use transform="translate(180.566406 0.015625)" xlink:href="#DejaVuSans-32"/>
     <use transform="translate(212.353516 0.015625)" xlink:href="#DejaVuSans-53"/>
     <use transform="translate(275.976562 0.015625)" xlink:href="#DejaVuSans-32"/>
     <use transform="translate(307.763672 0.015625)" xlink:href="#DejaVuSans-80"/>
     <use transform="translate(368.066406 0.015625)" xlink:href="#DejaVuSans-101"/>
     <use transform="translate(429.589844 0.015625)" xlink:href="#DejaVuSans-114"/>
     <use transform="translate(470.703125 0.015625)" xlink:href="#DejaVuSans-99"/>
     <use transform="translate(525.683594 0.015625)" xlink:href="#DejaVuSans-101"/>
     <use transform="translate(587.207031 0.015625)" xlink:href="#DejaVuSans-110"/>
     <use transform="translate(650.585938 0.015625)" xlink:href="#DejaVuSans-116"/>
     <use transform="translate(689.794922 0.015625)" xlink:href="#DejaVuSans-97"/>
     <use transform="translate(751.074219 0.015625)" xlink:href="#DejaVuSans-103"/>
     <use transform="translate(814.550781 0.015625)" xlink:href="#DejaVuSans-101"/>
     <use transform="translate(876.074219 0.015625)" xlink:href="#DejaVuSans-32"/>
     <use transform="translate(907.861328 0.015625)" xlink:href="#DejaVuSans-111"/>
     <use transform="translate(969.042969 0.015625)" xlink:href="#DejaVuSans-102"/>
     <use transform="translate(1004.248047 0.015625)" xlink:href="#DejaVuSans-32"/>
     <use transform="translate(1036.035156 0.015625)" xlink:href="#DejaVuSans-116"/>
     <use transform="translate(1075.244141 0.015625)" xlink:href="#DejaVuSans-104"/>
     <use transform="translate(1138.623047 0.015625)" xlink:href="#DejaVuSans-101"/>
     <use transform="translate(1200.146484 0.015625)" xlink:href="#DejaVuSans-32"/>
     <use transform="translate(1231.933594 0.015625)" xlink:href="#DejaVuSans-112"/>
     <use transform="translate(1295.410156 0.015625)" xlink:href="#DejaVuSans-111"/>
     <use transform="translate(1356.591797 0.015625)" xlink:href="#DejaVuSans-112"/>
     <use transform="translate(1420.068359 0.015625)" xlink:href="#DejaVuSans-117"/>
     <use transform="translate(1483.447266 0.015625)" xlink:href="#DejaVuSans-108"/>
     <use transform="translate(1511.230469 0.015625)" xlink:href="#DejaVuSans-97"/>
     <use transform="translate(1572.509766 0.015625)" xlink:href="#DejaVuSans-116"/>
     <use transform="translate(1611.71875 0.015625)" xlink:href="#DejaVuSans-105"/>
     <use transform="translate(1639.501953 0.015625)" xlink:href="#DejaVuSans-111"/>
     <use transform="translate(1700.683594 0.015625)" xlink:href="#DejaVuSans-110"/>
     <use transform="translate(1764.0625 0.015625)" xlink:href="#DejaVuSans-32"/>
     <use transform="translate(1795.849609 0.015625)" xlink:href="#DejaVuSans-97"/>
     <use transform="translate(1857.128906 0.015625)" xlink:href="#DejaVuSans-99"/>
     <use transform="translate(1912.109375 0.015625)" xlink:href="#DejaVuSans-99"/>
     <use transform="translate(1967.089844 0.015625)" xlink:href="#DejaVuSans-101"/>
     <use transform="translate(2028.613281 0.015625)" xlink:href="#DejaVuSans-115"/>
     <use transform="translate(2080.712891 0.015625)" xlink:href="#DejaVuSans-115"/>
     <use transform="translate(2132.8125 0.015625)" xlink:href="#DejaVuSans-105"/>
     <use transform="translate(2160.595703 0.015625)" xlink:href="#DejaVuSans-110"/>
     <use transform="translate(2223.974609 0.015625)" xlink:href="#DejaVuSans-103"/>
     <use transform="translate(2287.451172 0.015625)" xlink:href="#DejaVuSans-32"/>
     <use transform="translate(2319.238281 0.015625)" xlink:href="#DejaVuSans-118"/>
     <use transform="translate(2378.417969 0.015625)" xlink:href="#DejaVuSans-105"/>
     <use transform="translate(2406.201172 0.015625)" xlink:href="#DejaVuSans-100"/>
     <use transform="translate(2469.677734 0.015625)" xlink:href="#DejaVuSans-101"/>
     <use transform="translate(2531.201172 0.015625)" xlink:href="#DejaVuSans-111"/>
     <use transform="translate(2592.382812 0.015625)" xlink:href="#DejaVuSans-115"/>
     <use transform="translate(2644.482422 0.015625)" xlink:href="#DejaVuSans-32"/>
     <use transform="translate(2676.269531 0.015625)" xlink:href="#DejaVuSans-119"/>
     <use transform="translate(2758.056641 0.015625)" xlink:href="#DejaVuSans-105"/>
     <use transform="translate(2785.839844 0.015625)" xlink:href="#DejaVuSans-116"/>
     <use transform="translate(2825.048828 0.015625)" xlink:href="#DejaVuSans-104"/>
     <use transform="translate(2888.427734 0.015625)" xlink:href="#DejaVuSans-32"/>
     <use transform="translate(2920.214844 0.015625)" xlink:href="#DejaVuSans-97"/>
     <use transform="translate(2981.494141 0.015625)" xlink:href="#DejaVuSans-32"/>
     <use transform="translate(3013.28125 0.015625)" xlink:href="#DejaVuSans-103"/>
     <use transform="translate(3076.757812 0.015625)" xlink:href="#DejaVuSans-105"/>
     <use transform="translate(3104.541016 0.015625)" xlink:href="#DejaVuSans-118"/>
     <use transform="translate(3163.720703 0.015625)" xlink:href="#DejaVuSans-101"/>
     <use transform="translate(3225.244141 0.015625)" xlink:href="#DejaVuSans-110"/>
     <use transform="translate(3288.623047 0.015625)" xlink:href="#DejaVuSans-32"/>
     <use transform="translate(3320.410156 0.015625)" xlink:href="#DejaVuSans-113"/>
     <use transform="translate(3383.886719 0.015625)" xlink:href="#DejaVuSans-117"/>
     <use transform="translate(3447.265625 0.015625)" xlink:href="#DejaVuSans-97"/>
     <use transform="translate(3508.544922 0.015625)" xlink:href="#DejaVuSans-108"/>
     <use transform="translate(3536.328125 0.015625)" xlink:href="#DejaVuSans-105"/>
     <use transform="translate(3564.111328 0.015625)" xlink:href="#DejaVuSans-116"/>
     <use transform="translate(3603.320312 0.015625)" xlink:href="#DejaVuSans-121"/>
     <use transform="translate(3662.5 0.015625)" xlink:href="#DejaVuSans-32"/>
     <use transform="translate(3694.287109 0.015625)" xlink:href="#DejaVuSans-111"/>
     <use transform="translate(3755.46875 0.015625)" xlink:href="#DejaVuSans-118"/>
     <use transform="translate(3814.648438 0.015625)" xlink:href="#DejaVuSans-101"/>
     <use transform="translate(3876.171875 0.015625)" xlink:href="#DejaVuSans-114"/>
     <use transform="translate(3917.285156 0.015625)" xlink:href="#DejaVuSans-32"/>
     <use transform="translate(3949.072266 0.015625)" xlink:href="#DejaVuSans-116"/>
     <use transform="translate(3988.28125 0.015625)" xlink:href="#DejaVuSans-104"/>
     <use transform="translate(4051.660156 0.015625)" xlink:href="#DejaVuSans-101"/>
     <use transform="translate(4113.183594 0.015625)" xlink:href="#DejaVuSans-32"/>
     <use transform="translate(4144.970703 0.015625)" xlink:href="#DejaVuSans-110"/>
     <use transform="translate(4208.349609 0.015625)" xlink:href="#DejaVuSans-117"/>
     <use transform="translate(4271.728516 0.015625)" xlink:href="#DejaVuSans-109"/>
     <use transform="translate(4369.140625 0.015625)" xlink:href="#DejaVuSans-98"/>
     <use transform="translate(4432.617188 0.015625)" xlink:href="#DejaVuSans-101"/>
     <use transform="translate(4494.140625 0.015625)" xlink:href="#DejaVuSans-114"/>
     <use transform="translate(4535.253906 0.015625)" xlink:href="#DejaVuSans-32"/>
     <use transform="translate(4567.041016 0.015625)" xlink:href="#DejaVuSans-111"/>
     <use transform="translate(4628.222656 0.015625)" xlink:href="#DejaVuSans-102"/>
     <use transform="translate(4663.427734 0.015625)" xlink:href="#DejaVuSans-32"/>
     <use transform="translate(4695.214844 0.015625)" xlink:href="#DejaVuSans-108"/>
     <use transform="translate(4722.998047 0.015625)" xlink:href="#DejaVuSans-105"/>
     <use transform="translate(4750.78125 0.015625)" xlink:href="#DejaVuSans-110"/>
     <use transform="translate(4814.160156 0.015625)" xlink:href="#DejaVuSans-107"/>
     <use transform="translate(4872.070312 0.015625)" xlink:href="#DejaVuSans-115"/>
     <use transform="translate(4924.169922 0.015625)" xlink:href="#DejaVuSans-32"/>
     <use transform="translate(4955.957031 0.015625)" xlink:href="#DejaVuSans-114"/>
     <use transform="translate(4997.070312 0.015625)" xlink:href="#DejaVuSans-101"/>
     <use transform="translate(5058.59375 0.015625)" xlink:href="#DejaVuSans-109"/>
     <use transform="translate(5156.005859 0.015625)" xlink:href="#DejaVuSans-111"/>
     <use transform="translate(5217.1875 0.015625)" xlink:href="#DejaVuSans-118"/>
     <use transform="translate(5276.367188 0.015625)" xlink:href="#DejaVuSans-101"/>
     <use transform="translate(5337.890625 0.015625)" xlink:href="#DejaVuSans-100"/>
     <use transform="translate(5401.367188 0.015625)" xlink:href="#DejaVuSans-32"/>
     <use transform="translate(5433.154297 0.015625)" xlink:href="#DejaVuSans-40"/>
     <use transform="translate(5472.167969 0.015625)" xlink:href="#DejaVuSans-Oblique-961"/>
     <use transform="translate(5535.644531 0.015625)" xlink:href="#DejaVuSans-41"/>
     <use transform="translate(5574.658203 0.015625)" xlink:href="#DejaVuSans-46"/>
    </g>
   </g>
   <g id="legend_1">
    <g id="patch_7">
     <path d="M 628.578164 160.34875 
L 702.414102 160.34875 
Q 704.414102 160.34875 704.414102 158.34875 
L 704.414102 71.28 
Q 704.414102 69.28 702.414102 69.28 
L 628.578164 69.28 
Q 626.578164 69.28 626.578164 71.28 
L 626.578164 158.34875 
Q 626.578164 160.34875 628.578164 160.34875 
z
" style="fill:#ffffff;opacity:0.8;stroke:#cccccc;stroke-linejoin:miter;"/>
    </g>
    <g id="patch_8">
     <path d="M 630.578164 80.878437 
L 650.578164 80.878437 
L 650.578164 73.878437 
L 630.578164 73.878437 
z
" style="fill:url(#h9481e8c579);stroke:#ffffff;stroke-linejoin:miter;"/>
    </g>
    <g id="text_19">
     <!-- NoVideo -->
     <defs>
      <path d="M 28.609375 0 
L 0.78125 72.90625 
L 11.078125 72.90625 
L 34.1875 11.53125 
L 57.328125 72.90625 
L 67.578125 72.90625 
L 39.796875 0 
z
" id="DejaVuSans-86"/>
     </defs>
     <g transform="translate(658.578164 80.878437)scale(0.1 -0.1)">
      <use xlink:href="#DejaVuSans-78"/>
      <use x="74.804688" xlink:href="#DejaVuSans-111"/>
      <use x="135.986328" xlink:href="#DejaVuSans-86"/>
      <use x="204.363281" xlink:href="#DejaVuSans-105"/>
      <use x="232.146484" xlink:href="#DejaVuSans-100"/>
      <use x="295.623047" xlink:href="#DejaVuSans-101"/>
      <use x="357.146484" xlink:href="#DejaVuSans-111"/>
     </g>
    </g>
    <g id="patch_9">
     <path d="M 630.578164 95.556562 
L 650.578164 95.556562 
L 650.578164 88.556562 
L 630.578164 88.556562 
z
" style="fill:url(#hc9896001e5);stroke:#ffffff;stroke-linejoin:miter;"/>
    </g>
    <g id="text_20">
     <!-- 240p -->
     <g transform="translate(658.578164 95.556562)scale(0.1 -0.1)">
      <use xlink:href="#DejaVuSans-50"/>
      <use x="63.623047" xlink:href="#DejaVuSans-52"/>
      <use x="127.246094" xlink:href="#DejaVuSans-48"/>
      <use x="190.869141" xlink:href="#DejaVuSans-112"/>
     </g>
    </g>
    <g id="patch_10">
     <path d="M 630.578164 110.234687 
L 650.578164 110.234687 
L 650.578164 103.234687 
L 630.578164 103.234687 
z
" style="fill:url(#h7d3c1838a5);stroke:#ffffff;stroke-linejoin:miter;"/>
    </g>
    <g id="text_21">
     <!-- 720p -->
     <defs>
      <path d="M 8.203125 72.90625 
L 55.078125 72.90625 
L 55.078125 68.703125 
L 28.609375 0 
L 18.3125 0 
L 43.21875 64.59375 
L 8.203125 64.59375 
z
" id="DejaVuSans-55"/>
     </defs>
     <g transform="translate(658.578164 110.234687)scale(0.1 -0.1)">
      <use xlink:href="#DejaVuSans-55"/>
      <use x="63.623047" xlink:href="#DejaVuSans-50"/>
      <use x="127.246094" xlink:href="#DejaVuSans-48"/>
      <use x="190.869141" xlink:href="#DejaVuSans-112"/>
     </g>
    </g>
    <g id="patch_11">
     <path d="M 630.578164 124.912812 
L 650.578164 124.912812 
L 650.578164 117.912812 
L 630.578164 117.912812 
z
" style="fill:url(#h1933ccbd2e);stroke:#ffffff;stroke-linejoin:miter;"/>
    </g>
    <g id="text_22">
     <!-- 1080p -->
     <g transform="translate(658.578164 124.912812)scale(0.1 -0.1)">
      <use xlink:href="#DejaVuSans-49"/>
      <use x="63.623047" xlink:href="#DejaVuSans-48"/>
      <use x="127.246094" xlink:href="#DejaVuSans-56"/>
      <use x="190.869141" xlink:href="#DejaVuSans-48"/>
      <use x="254.492188" xlink:href="#DejaVuSans-112"/>
     </g>
    </g>
    <g id="patch_12">
     <path d="M 630.578164 139.590937 
L 650.578164 139.590937 
L 650.578164 132.590937 
L 630.578164 132.590937 
z
" style="fill:url(#hf651cabb25);stroke:#ffffff;stroke-linejoin:miter;"/>
    </g>
    <g id="text_23">
     <!-- 4k -->
     <g transform="translate(658.578164 139.590937)scale(0.1 -0.1)">
      <use xlink:href="#DejaVuSans-52"/>
      <use x="63.623047" xlink:href="#DejaVuSans-107"/>
     </g>
    </g>
    <g id="patch_13">
     <path d="M 630.578164 154.269062 
L 650.578164 154.269062 
L 650.578164 147.269062 
L 630.578164 147.269062 
z
" style="fill:url(#h60cd69b5f9);stroke:#ffffff;stroke-linejoin:miter;"/>
    </g>
    <g id="text_24">
     <!-- 8k -->
     <g transform="translate(658.578164 154.269062)scale(0.1 -0.1)">
      <use xlink:href="#DejaVuSans-56"/>
      <use x="63.623047" xlink:href="#DejaVuSans-107"/>
     </g>
    </g>
   </g>
  </g>
 </g>
 <defs>
  <clipPath id="pbd87703428">
   <rect height="177.4" width="534.070508" x="68.529492" y="28.8"/>
  </clipPath>
 </defs>
 <defs>
  <pattern height="72" id="h9481e8c579" patternUnits="userSpaceOnUse" width="72" x="0" y="0">
   <rect fill="#1f77b4" height="73" width="73" x="0" y="0"/>
   <path d="M -36 36 
L 36 -36 
M -30 42 
L 42 -30 
M -24 48 
L 48 -24 
M -18 54 
L 54 -18 
M -12 60 
L 60 -12 
M -6 66 
L 66 -6 
M 0 72 
L 72 0 
M 6 78 
L 78 6 
M 12 84 
L 84 12 
M 18 90 
L 90 18 
M 24 96 
L 96 24 
M 30 102 
L 102 30 
M 36 108 
L 108 36 
" style="fill:#ffffff;stroke:#ffffff;stroke-linecap:butt;stroke-linejoin:miter;stroke-width:1.0;"/>
  </pattern>
  <pattern height="72" id="hc9896001e5" patternUnits="userSpaceOnUse" width="72" x="0" y="0">
   <rect fill="#ff7f0e" height="73" width="73" x="0" y="0"/>
   <path d="M -36 36 
L 36 108 
M -24 24 
L 48 96 
M -12 12 
L 60 84 
M 0 0 
L 72 72 
M 12 -12 
L 84 60 
M 24 -24 
L 96 48 
M 36 -36 
L 108 36 
" style="fill:#ffffff;stroke:#ffffff;stroke-linecap:butt;stroke-linejoin:miter;stroke-width:1.0;"/>
  </pattern>
  <pattern height="72" id="h7d3c1838a5" patternUnits="userSpaceOnUse" width="72" x="0" y="0">
   <rect fill="#2ca02c" height="73" width="73" x="0" y="0"/>
   <path d="M -36 36 
L 36 -36 
M -24 48 
L 48 -24 
M -12 60 
L 60 -12 
M 0 72 
L 72 0 
M 12 84 
L 84 12 
M 24 96 
L 96 24 
M 36 108 
L 108 36 
" style="fill:#ffffff;stroke:#ffffff;stroke-linecap:butt;stroke-linejoin:miter;stroke-width:1.0;"/>
  </pattern>
  <pattern height="72" id="h1933ccbd2e" patternUnits="userSpaceOnUse" width="72" x="0" y="0">
   <rect fill="#d62728" height="73" width="73" x="0" y="0"/>
   <path d="M -36 36 
L 36 108 
M -30 30 
L 42 102 
M -24 24 
L 48 96 
M -18 18 
L 54 90 
M -12 12 
L 60 84 
M -6 6 
L 66 78 
M 0 0 
L 72 72 
M 6 -6 
L 78 66 
M 12 -12 
L 84 60 
M 18 -18 
L 90 54 
M 24 -24 
L 96 48 
M 30 -30 
L 102 42 
M 36 -36 
L 108 36 
" style="fill:#ffffff;stroke:#ffffff;stroke-linecap:butt;stroke-linejoin:miter;stroke-width:1.0;"/>
  </pattern>
  <pattern height="72" id="hf651cabb25" patternUnits="userSpaceOnUse" width="72" x="0" y="0">
   <rect fill="#9467bd" height="73" width="73" x="0" y="0"/>
   <path d="M 6 72 
L 6 0 
M 18 72 
L 18 0 
M 30 72 
L 30 0 
M 42 72 
L 42 0 
M 54 72 
L 54 0 
M 66 72 
L 66 0 
" style="fill:#ffffff;stroke:#ffffff;stroke-linecap:butt;stroke-linejoin:miter;stroke-width:1.0;"/>
  </pattern>
  <pattern height="72" id="h60cd69b5f9" patternUnits="userSpaceOnUse" width="72" x="0" y="0">
   <rect fill="#8c564b" height="73" width="73" x="0" y="0"/>
   <path d="M -36 36 
L 36 -36 
M -24 48 
L 48 -24 
M -12 60 
L 60 -12 
M 0 72 
L 72 0 
M 12 84 
L 84 12 
M 24 96 
L 96 24 
M 36 108 
L 108 36 
M -36 36 
L 36 108 
M -24 24 
L 48 96 
M -12 12 
L 60 84 
M 0 0 
L 72 72 
M 12 -12 
L 84 60 
M 24 -24 
L 96 48 
M 36 -36 
L 108 36 
" style="fill:#ffffff;stroke:#ffffff;stroke-linecap:butt;stroke-linejoin:miter;stroke-width:1.0;"/>
  </pattern>
 </defs>
</svg>
